<svg xmlns="http://www.w3.org/2000/svg" width="80.054" height="80.054" viewBox="0 0 80.054 80.054"><g transform="translate(0)"><path d="M194.294,241.8c-1.67-1.689-5.13-2.367-7.677-2.6.206,2.545.85,6.007,2.521,7.7,1.547,1.565,2.843,2.087,3.862,2.121l-.951-.951a2.345,2.345,0,0,1,3.317-3.317l1,1c0-.06,0-.119-.007-.18A6.324,6.324,0,0,0,194.294,241.8Z" transform="translate(-157.438 -201.801)"/><path d="M265.072,24.625a2.345,2.345,0,0,0,2.345-2.345V19.808h5.133a2.345,2.345,0,0,0,0-4.691h-5.133V9.508h5.133a2.345,2.345,0,0,0,0-4.691h-5.133V2.345a2.345,2.345,0,0,0-4.691,0V22.28A2.345,2.345,0,0,0,265.072,24.625Z" transform="translate(-221.648)"/><path d="M74.665,57.457C66.331,54.749,55.733,46.193,50.64,42.081c-.555-.448-1.043-.842-1.464-1.178a16.214,16.214,0,0,0-10.059-3.521H21.522A21.491,21.491,0,0,0,4.748,45.437L4.691,27.66a3.627,3.627,0,0,1,3.7-3.54H22.217v1.6A5.613,5.613,0,0,0,27.2,31.3l9.186,1.034V11.216L27.2,12.25a5.613,5.613,0,0,0-4.985,5.577v1.6H8.391A8.323,8.323,0,0,0,0,27.666V74.65a4.155,4.155,0,0,0,3.64,4.117,16.416,16.416,0,1,1,32.771.032h4.316a16.416,16.416,0,1,1,32.77,0H75.9a4.154,4.154,0,0,0,4.15-4.15V64.888a7.789,7.789,0,0,0-5.389-7.431Zm-31.551,3.3a2.345,2.345,0,0,1-3.317,0l-.46-.46a7.706,7.706,0,0,1-3.645.918c-2.3,0-4.854-1.014-7.328-3.515-1.826-1.846-3.043-4.719-3.617-8.538a30.311,30.311,0,0,1-.334-4.977,2.346,2.346,0,0,1,2.29-2.268c.945-.022,9.353-.094,13.487,4.086A10.851,10.851,0,0,1,43.6,52.752,7.664,7.664,0,0,1,42.672,57l.442.442a2.345,2.345,0,0,1,0,3.317Z" transform="translate(0 -9.462)"/></g><g transform="translate(8.301 56.607)"><path d="M70.753,363.647a11.726,11.726,0,1,0,5.574,12.361A11.744,11.744,0,0,0,70.753,363.647Zm.971,11.46a7.026,7.026,0,1,1-3.343-7.413A7.052,7.052,0,0,1,71.724,375.107Z" transform="translate(-53.092 -362.039)"/><path d="M116.659,422.359a2.345,2.345,0,1,0,1.111,2.465A2.367,2.367,0,0,0,116.659,422.359Z" transform="translate(-103.742 -412.658)"/><g transform="translate(37.086)"><path d="M307.944,363.647a11.726,11.726,0,1,0,5.574,12.361A11.744,11.744,0,0,0,307.944,363.647Zm.971,11.46a7.026,7.026,0,1,1-3.343-7.413A7.052,7.052,0,0,1,308.915,375.107Z" transform="translate(-290.283 -362.039)"/><path d="M353.85,422.359a2.345,2.345,0,1,0,1.111,2.465A2.367,2.367,0,0,0,353.85,422.359Z" transform="translate(-340.933 -412.658)"/></g></g></svg>