<svg xmlns="http://www.w3.org/2000/svg" width="84.528" height="56.352" viewBox="0 0 84.528 56.352"><defs><style>.a{fill:#1d1d1d;}</style></defs><g transform="translate(66.214 38.038)"><path class="a" d="M9.157,315.733A9.157,9.157,0,1,1,0,324.89,9.169,9.169,0,0,1,9.157,315.733Zm0,15.5a6.34,6.34,0,1,0-6.34-6.34A6.347,6.347,0,0,0,9.157,331.23Z" transform="translate(0 -315.733)"/></g><g transform="translate(0 0)"><path class="a" d="M1.409,113.509H2.817V111.4a.7.7,0,0,1,.7-.7h23.95a.7.7,0,0,1,.7.7v1.238a.709.709,0,0,0,.206.5L33.4,118.15a1.407,1.407,0,0,1,.413.995v4.931a.7.7,0,0,0,.7.7h8.453a.7.7,0,0,0,.7-.7V94.49a.7.7,0,0,0-.7-.7H28.881a.7.7,0,0,0-.7.7V107.17a.7.7,0,0,1-.7.7H3.522a.7.7,0,0,1-.7-.7V98.012c0-6.282,5.266-11.683,11.271-12.679H59.17a1.211,1.211,0,0,1,.142.007c8.988.91,14.537,16.342,16.408,22.534h1.764a1.409,1.409,0,0,1,1.409,1.409v4.226a1.409,1.409,0,0,1-1.409,1.409H73.258v2.888a14.09,14.09,0,0,1,10.8,3.518,1.409,1.409,0,1,1-1.879,2.1c-4.211-3.77-10.918-4.091-15.956.628-2.117,1.984-2.84,4.865-2.829,7.765a1.408,1.408,0,0,1-1.407,1.416H25.246a9.848,9.848,0,0,1-19.5,0H4.226a1.409,1.409,0,0,1-1.409-1.409v-9.862H1.409A1.409,1.409,0,0,1,0,120.553v-5.635A1.409,1.409,0,0,1,1.409,113.509Zm64.413-7.253a.706.706,0,0,0,1,.444L71,104.61a.709.709,0,0,0,.347-.883A41.481,41.481,0,0,0,64.94,91.9a.705.705,0,0,0-.93-.117l-1.385.923a.7.7,0,0,0-.289.772Zm-19.332.913a.7.7,0,0,0,.7.7H62.421a.7.7,0,0,0,.679-.89L59.642,94.3a.7.7,0,0,0-.678-.518H47.2a.7.7,0,0,0-.7.7ZM15.5,138.868a7.057,7.057,0,0,0,6.9-5.635H8.6A7.055,7.055,0,0,0,15.5,138.868Z" transform="translate(0 -85.333)"/></g></svg>