<svg xmlns="http://www.w3.org/2000/svg" width="99.518" height="45.548" viewBox="0 0 99.518 45.548"><defs><style>.a{fill:#fff;}</style></defs><g transform="translate(69.662 28.962)"><g transform="translate(0 0)"><path class="a" d="M76.559,287.834a8.293,8.293,0,1,1-8.293,8.293A8.3,8.3,0,0,1,76.559,287.834Zm0,13.269a4.976,4.976,0,1,0-4.976-4.976A4.982,4.982,0,0,0,76.559,301.1Z" transform="translate(-68.266 -287.834)"/></g></g><g transform="translate(0 0)"><path class="a" d="M1.658,167.795v-9.952a1.659,1.659,0,0,1,1.135-1.574l9.358-3.12c3.525-5.969,8.369-11.65,19.076-13.526l.06-.01c19.773-2.733,34.618,1.727,44.148,13.261,7.094.1,14.336,1.586,18.6,4.313a8.12,8.12,0,0,1,3.637,6.49l.192,4.118a1.659,1.659,0,0,1,1.659,1.659v6.635a1.659,1.659,0,0,1-1.659,1.659H91.225a1.669,1.669,0,0,1-1.659-1.677c0-.008,0-.017,0-.027a11.61,11.61,0,0,0-23.219.045,1.509,1.509,0,0,1-1.659,1.659H34.831a1.669,1.669,0,0,1-1.659-1.677c0-.008,0-.017,0-.027a11.61,11.61,0,0,0-23.219.045,1.509,1.509,0,0,1-1.659,1.659H1.659A1.659,1.659,0,0,1,0,176.088v-6.634A1.658,1.658,0,0,1,1.658,167.795Zm44.783-15.757a.83.83,0,0,0,.829.829H68.9a.834.834,0,0,0,.549-1.458c-5.756-5.246-13.075-8.247-22.095-9.045a.846.846,0,0,0-.914.836Zm-19.927.008a.83.83,0,0,0,.829.821H42.295a.83.83,0,0,0,.829-.829v-9.056a.831.831,0,0,0-.824-.838,76.279,76.279,0,0,0-10.527.751,27.939,27.939,0,0,0-4.787,1.266.831.831,0,0,0-.537.793Zm-8.657.821h4.51a.829.829,0,0,0,.829-.838l-.043-4.495a.836.836,0,0,0-1.34-.652,21.931,21.931,0,0,0-4.613,4.643A.834.834,0,0,0,17.858,152.867Z" transform="translate(0 -138.833)"/></g><g transform="translate(13.268 28.962)"><g transform="translate(0 0)"><path class="a" d="M366.693,287.834a8.293,8.293,0,1,1-8.293,8.293A8.3,8.3,0,0,1,366.693,287.834Zm0,13.269a4.976,4.976,0,1,0-4.976-4.976A4.982,4.982,0,0,0,366.693,301.1Z" transform="translate(-358.4 -287.834)"/></g></g></svg>