<svg xmlns="http://www.w3.org/2000/svg" width="93.434" height="62.394" viewBox="0 0 93.434 62.394"><g transform="translate(0 0)"><path d="M43.371,297.512a6.795,6.795,0,1,1-5.666,6.7,6.4,6.4,0,0,1,.087-1.125A6.8,6.8,0,0,1,43.371,297.512Z" transform="translate(33.992 -248.613)"/><path d="M27.661,215.658a1.113,1.113,0,0,1,.67,1.06v16.458a1.026,1.026,0,0,1-1.081.995H23.919a11.135,11.135,0,0,0-21.065,0H0V212.76H20.848Z" transform="translate(65.101 -182.266)"/><path d="M48.9,143.882v-.043a1.112,1.112,0,0,1,1.146-1.081H60.367a1.18,1.18,0,0,1,1.038.649l5.234,10.165H48.9Z" transform="translate(16.218 -127.402)"/><path d="M333.3,297.36a6.8,6.8,0,1,1-6.791,6.791,5.581,5.581,0,0,1,.065-1.038A6.848,6.848,0,0,1,333.3,297.36Z" transform="translate(-317.273 -248.569)"/><path d="M179.4,105.715H121.005V71.76h64.882V82.79h-1.081a5.418,5.418,0,0,0-5.407,5.45Z" transform="translate(-118.623 -71.76)"/><path d="M152.089,248.76H211.78v13.625H177.588a11.135,11.135,0,0,0-21.065,0h-4.542a1.039,1.039,0,0,1-.973-1.1V249.993A1.15,1.15,0,0,1,152.089,248.76Z" transform="translate(-151.005 -210.48)"/></g></svg>