<svg xmlns="http://www.w3.org/2000/svg" width="68.766" height="48.351" viewBox="0 0 68.766 48.351"><path d="M58.693,28.2a9.945,9.945,0,0,0-4.563,1.144l-2.723-3.236A13.44,13.44,0,0,1,55.3,24.541a16.4,16.4,0,0,1,3.4-.364A5.752,5.752,0,0,0,62.788,22.5,6.327,6.327,0,0,0,64.6,17.9,18.044,18.044,0,0,0,46.733,0H44.456a2.015,2.015,0,1,0,0,4.029h2.276a13.6,13.6,0,0,1,1.753.178V8.1a9.991,9.991,0,0,0-3.314.953c-.013-.015-.03-.025-.042-.04a10.047,10.047,0,0,0-4.112,3.531l-4.586,6.878a2.02,2.02,0,0,1-1.371.874,12.7,12.7,0,0,0-9.471,7.024,16.026,16.026,0,0,1,2.75,8.944H24.176a12.266,12.266,0,1,0-.742,4.029H42.442a2.014,2.014,0,0,0,2.015-2.015,15.115,15.115,0,0,1,.4-3.4,13.749,13.749,0,0,1,3.414-6.243l2.719,3.231a9.975,9.975,0,0,0-2.366,6.407A10.073,10.073,0,1,0,58.693,28.2ZM12.088,44.322a8.059,8.059,0,1,1,8.059-8.059H14.1a2.016,2.016,0,0,1-2.015-2.015,2.015,2.015,0,1,0-4.029,0A6.051,6.051,0,0,0,14.1,40.293h4.923A8.031,8.031,0,0,1,12.088,44.322Zm46.605,0a6.051,6.051,0,0,1-6.044-6.044,5.988,5.988,0,0,1,.923-3.174l3.547,4.433a2.016,2.016,0,1,0,3.148-2.518l-3.542-4.428a5.966,5.966,0,0,1,1.968-.357,6.044,6.044,0,1,1,0,12.088Zm0,0" transform="translate(0 0)"/><path d="M180.126,41.458l3.452-5.178a14.04,14.04,0,0,1,4.194-4.046A13.967,13.967,0,0,0,180.3,30a14.141,14.141,0,0,0-11.745,6.318l3.222,1.934A26.885,26.885,0,0,0,180.126,41.458Zm0,0" transform="translate(-145.912 -25.971)"/><path d="M23.786,67.676,10.858,60H2.014A2.014,2.014,0,0,0,0,62.014,10.085,10.085,0,0,0,10.073,72.088c4.03,0,8.21.088,12.689,3.981.017-.032.017-.068.037-.1a16.7,16.7,0,0,1,6.3-5.831,30.884,30.884,0,0,1-5.312-2.462Zm0,0" transform="translate(0.001 -51.941)"/></svg>