<svg xmlns="http://www.w3.org/2000/svg" width="59.037" height="59.037" viewBox="0 0 59.037 59.037"><defs><style>.a{fill:#1d1d1d;}</style></defs><path class="a" d="M56.085,17.711a2.952,2.952,0,0,0,2.952-2.952V2.952A2.952,2.952,0,0,0,56.085,0H2.952A2.952,2.952,0,0,0,0,2.952V14.759a2.952,2.952,0,0,0,2.952,2.952H5.9v2.952H2.952A2.952,2.952,0,0,0,0,23.615V35.422a2.952,2.952,0,0,0,2.952,2.952H5.9v2.952H2.952A2.952,2.952,0,0,0,0,44.277V56.085a2.952,2.952,0,0,0,2.952,2.952H56.085a2.952,2.952,0,0,0,2.952-2.952V44.277a2.952,2.952,0,0,0-2.952-2.952H53.133V38.374h2.952a2.952,2.952,0,0,0,2.952-2.952V23.615a2.952,2.952,0,0,0-2.952-2.952H53.133V17.711Zm0,25.583a.984.984,0,0,1,.984.984V56.085a.984.984,0,0,1-.984.984H2.952a.984.984,0,0,1-.984-.984V44.277a.984.984,0,0,1,.984-.984ZM7.872,41.326V38.374H9.839v2.952Zm3.936,0V38.374H47.229v2.952Zm37.39,0V38.374h1.968v2.952Zm6.888-18.695a.984.984,0,0,1,.984.984V35.422a.984.984,0,0,1-.984.984H2.952a.984.984,0,0,1-.984-.984V23.615a.984.984,0,0,1,.984-.984ZM7.872,20.663V17.711H9.839v2.952Zm3.936,0V17.711H47.229v2.952Zm37.39,0V17.711h1.968v2.952ZM2.952,15.743a.984.984,0,0,1-.984-.984V2.952a.984.984,0,0,1,.984-.984H56.085a.984.984,0,0,1,.984.984V14.759a.984.984,0,0,1-.984.984Z"/><g transform="translate(5.891 5.903)"><path class="a" d="M73.49,49.962H53.63a2.952,2.952,0,1,0,0,1.968H73.49a.984.984,0,0,0,0-1.968ZM50.859,51.93a.984.984,0,1,1,.984-.984A.984.984,0,0,1,50.859,51.93Z" transform="translate(-47.894 -47.994)"/></g><g transform="translate(43.518 3.629)"><g transform="translate(0 0)"><rect class="a" width="2" height="1" transform="translate(0.482 -0.044)"/></g></g><g transform="translate(47.73 3.629)"><g transform="translate(0 0)"><rect class="a" width="1" height="1" transform="translate(0.271 -0.044)"/></g></g><g transform="translate(51.941 3.629)"><g transform="translate(0 0)"><rect class="a" width="3" height="1" transform="translate(0.059 -0.044)"/></g></g><g transform="translate(39.306 3.629)"><g transform="translate(0 0)"><rect class="a" width="3" height="1" transform="translate(-0.306 -0.044)"/></g></g><g transform="translate(35.095 3.629)"><g transform="translate(0 0)"><rect class="a" width="3" height="1" transform="translate(-0.095 -0.044)"/></g></g><g transform="translate(43.518 7.84)"><g transform="translate(0 0)"><rect class="a" width="2" height="3" transform="translate(0.482 -0.255)"/></g></g><g transform="translate(47.73 7.84)"><g transform="translate(0 0)"><rect class="a" width="1" height="3" transform="translate(0.271 -0.255)"/></g></g><g transform="translate(51.941 7.84)"><g transform="translate(0 0)"><rect class="a" width="3" height="3" transform="translate(0.059 -0.255)"/></g></g><g transform="translate(39.306 7.84)"><g transform="translate(0 0)"><rect class="a" width="3" height="3" transform="translate(-0.306 -0.255)"/></g></g><g transform="translate(35.095 7.84)"><g transform="translate(0 0)"><rect class="a" width="3" height="3" transform="translate(-0.095 -0.255)"/></g></g><g transform="translate(43.518 12.052)"><g transform="translate(0 0)"><rect class="a" width="2" height="2" transform="translate(0.482 -0.467)"/></g></g><g transform="translate(47.73 12.052)"><g transform="translate(0 0)"><rect class="a" width="1" height="2" transform="translate(0.271 -0.467)"/></g></g><g transform="translate(51.941 12.052)"><g transform="translate(0 0)"><rect class="a" width="3" height="2" transform="translate(0.059 -0.467)"/></g></g><g transform="translate(39.306 12.052)"><g transform="translate(0 0)"><rect class="a" width="3" height="2" transform="translate(-0.306 -0.467)"/></g></g><g transform="translate(35.095 12.052)"><g transform="translate(0 0)"><rect class="a" width="3" height="2" transform="translate(-0.095 -0.467)"/></g></g><g transform="translate(5.891 26.566)"><path class="a" d="M73.49,217.962H53.63a2.952,2.952,0,1,0,0,1.968H73.49a.984.984,0,0,0,0-1.968ZM50.859,219.93a.984.984,0,1,1,.984-.984A.984.984,0,0,1,50.859,219.93Z" transform="translate(-47.894 -215.994)"/></g><g transform="translate(43.518 24.686)"><g transform="translate(0 0)"><rect class="a" width="2" height="2" transform="translate(0.482 -0.101)"/></g></g><g transform="translate(47.73 24.686)"><g transform="translate(0 0)"><rect class="a" width="1" height="2" transform="translate(0.271 -0.101)"/></g></g><g transform="translate(51.941 24.686)"><g transform="translate(0 0)"><rect class="a" width="3" height="2" transform="translate(0.059 -0.101)"/></g></g><g transform="translate(39.306 24.686)"><g transform="translate(0 0)"><rect class="a" width="3" height="2" transform="translate(-0.306 -0.101)"/></g></g><g transform="translate(35.095 24.686)"><g transform="translate(0 0)"><rect class="a" width="3" height="2" transform="translate(-0.095 -0.101)"/></g></g><g transform="translate(43.518 27.493)"><g transform="translate(0 0)"><rect class="a" width="2" height="4" transform="translate(0.482 0.092)"/></g></g><g transform="translate(47.73 27.493)"><g transform="translate(0 0)"><rect class="a" width="1" height="4" transform="translate(0.271 0.092)"/></g></g><g transform="translate(51.941 27.493)"><g transform="translate(0 0)"><rect class="a" width="3" height="4" transform="translate(0.059 0.092)"/></g></g><g transform="translate(39.306 27.493)"><g transform="translate(0 0)"><rect class="a" width="3" height="4" transform="translate(-0.306 0.092)"/></g></g><g transform="translate(35.095 27.493)"><g transform="translate(0 0)"><rect class="a" width="3" height="4" transform="translate(-0.095 0.092)"/></g></g><g transform="translate(43.518 33.109)"><g transform="translate(0 0)"><rect class="a" width="2" height="1" transform="translate(0.482 0.476)"/></g></g><g transform="translate(47.73 33.109)"><g transform="translate(0 0)"><rect class="a" width="1" height="1" transform="translate(0.271 0.476)"/></g></g><g transform="translate(51.941 33.109)"><g transform="translate(0 0)"><rect class="a" width="3" height="1" transform="translate(0.059 0.476)"/></g></g><g transform="translate(39.306 33.109)"><g transform="translate(0 0)"><rect class="a" width="3" height="1" transform="translate(-0.306 0.476)"/></g></g><g transform="translate(35.095 33.109)"><g transform="translate(0 0)"><rect class="a" width="3" height="1" transform="translate(-0.095 0.476)"/></g></g><g transform="translate(5.891 47.229)"><path class="a" d="M73.49,385.962H53.63a2.952,2.952,0,1,0,0,1.968H73.49a.984.984,0,0,0,0-1.968ZM50.859,387.93a.984.984,0,1,1,.984-.984A.984.984,0,0,1,50.859,387.93Z" transform="translate(-47.894 -383.993)"/></g><g transform="translate(43.518 45.743)"><g transform="translate(0 0)"><rect class="a" width="2" height="3" transform="translate(0.482 -0.158)"/></g></g><g transform="translate(47.73 45.743)"><g transform="translate(0 0)"><rect class="a" width="1" height="3" transform="translate(0.271 -0.158)"/></g></g><g transform="translate(51.941 45.743)"><g transform="translate(0 0)"><rect class="a" width="3" height="3" transform="translate(0.059 -0.158)"/></g></g><g transform="translate(39.306 45.743)"><g transform="translate(0 0)"><rect class="a" width="3" height="3" transform="translate(-0.306 -0.158)"/></g></g><g transform="translate(35.095 45.743)"><g transform="translate(0 0)"><rect class="a" width="3" height="3" transform="translate(-0.095 -0.158)"/></g></g><g transform="translate(43.518 49.954)"><g transform="translate(0 0)"><rect class="a" width="2" height="2" transform="translate(0.482 -0.369)"/></g></g><g transform="translate(47.73 49.954)"><g transform="translate(0 0)"><rect class="a" width="1" height="2" transform="translate(0.271 -0.369)"/></g></g><g transform="translate(51.941 49.954)"><g transform="translate(0 0)"><rect class="a" width="3" height="2" transform="translate(0.059 -0.369)"/></g></g><g transform="translate(39.306 49.954)"><g transform="translate(0 0)"><rect class="a" width="3" height="2" transform="translate(-0.306 -0.369)"/></g></g><g transform="translate(35.095 49.954)"><g transform="translate(0 0)"><rect class="a" width="3" height="2" transform="translate(-0.095 -0.369)"/></g></g><g transform="translate(43.518 52.762)"><g transform="translate(0 0)"><rect class="a" width="2" height="4" transform="translate(0.482 -0.177)"/></g></g><g transform="translate(47.73 52.762)"><g transform="translate(0 0)"><rect class="a" width="1" height="4" transform="translate(0.271 -0.177)"/></g></g><g transform="translate(51.941 52.762)"><g transform="translate(0 0)"><rect class="a" width="3" height="4" transform="translate(0.059 -0.177)"/></g></g><g transform="translate(39.306 52.762)"><g transform="translate(0 0)"><rect class="a" width="3" height="4" transform="translate(-0.306 -0.177)"/></g></g><g transform="translate(35.095 52.762)"><g transform="translate(0 0)"><rect class="a" width="3" height="4" transform="translate(-0.095 -0.177)"/></g></g></svg>