<svg xmlns="http://www.w3.org/2000/svg" width="46.609" height="71.165" viewBox="0 0 46.609 71.165"><path d="M49.161,30.031a19.152,19.152,0,0,0-19.13,19.13v1.044h38.26V49.161A19.152,19.152,0,0,0,49.161,30.031Zm-4.4,18.087a4.521,4.521,0,0,1,8.8,0Zm10.925,0a6.625,6.625,0,0,0-5.482-5.482V34.413H48.118v8.222a6.625,6.625,0,0,0-5.482,5.482H32.149a17.044,17.044,0,0,1,34.024,0Zm0,0" transform="translate(-25.857 -25.857)"/><path d="M23.3,0A23.3,23.3,0,0,0,8.348,41.173V64.7h9.739v6.47h2.087V64.7h6.261v6.47h2.086V64.7h9.739V41.173A23.3,23.3,0,0,0,23.3,0ZM36.174,62.609H10.435v-32.7H36.174Zm2.087-24.257V27.826H8.348V38.352a21.217,21.217,0,1,1,29.913,0Zm0,0"/><path d="M96.351,230.227H90.09v11.826h6.261Zm-2.087,9.739H92.176v-7.652h2.087Zm0,0" transform="translate(-77.568 -198.227)"/><path d="M163.365,230.227H150.148v14.608h13.217Zm-2.086,12.521h-9.044V232.313h9.044Zm0,0" transform="translate(-129.278 -198.227)"/><path d="M230.227,361.852h2.086v5.565h-2.086Zm0,0" transform="translate(-198.227 -311.557)"/><path d="M230.227,416.906h2.086v2.087h-2.086Zm0,0" transform="translate(-198.227 -358.958)"/><path d="M177.672,260.254h5.565v2.087h-5.565Zm0,0" transform="translate(-152.977 -224.08)"/><path d="M177.672,290.285h5.565v2.087h-5.565Zm0,0" transform="translate(-152.977 -249.937)"/><path d="M117.035,67.146l1.906-.849.849,1.907-1.906.849Zm0,0" transform="translate(-100.768 -57.082)"/><path d="M82.664,91.64l1.4-1.551,1.551,1.4-1.4,1.551Zm0,0" transform="translate(-71.174 -77.568)"/><path d="M198.449,68.223l.849-1.907,1.906.849-.849,1.906Zm0,0" transform="translate(-170.866 -57.099)"/><path d="M231.43,91.482l1.551-1.4,1.4,1.551-1.551,1.4Zm0,0" transform="translate(-199.263 -77.564)"/><path d="M253.418,127.918l1.984-.645.645,1.985-1.985.645Zm0,0" transform="translate(-218.194 -109.583)"/><path d="M63.012,129.254l.645-1.984,1.985.644L65,129.9Zm0,0" transform="translate(-54.253 -109.58)"/><path d="M142.224,367.448h2.017a3.548,3.548,0,1,0,0-7.1h-4.1v10.5h2.087Zm0-5.009h2.017a1.461,1.461,0,1,1,0,2.922h-2.017Zm0,0" transform="translate(-120.659 -310.265)"/></svg>