<svg xmlns="http://www.w3.org/2000/svg" width="56.265" height="65.472" viewBox="0 0 56.265 65.472"><g transform="translate(-36)"><path d="M86.4,0H84.176a.959.959,0,1,0,0,1.918H86.4A3.947,3.947,0,0,1,90.347,5.86v8.781H37.918V5.86A3.947,3.947,0,0,1,41.86,1.918H79.7A.959.959,0,0,0,79.7,0H41.86A5.867,5.867,0,0,0,36,5.86V45.779a.959.959,0,1,0,1.918,0V16.56H90.347V55.178H37.918V50.255a.959.959,0,1,0-1.918,0v9.357a5.867,5.867,0,0,0,5.86,5.86H86.4a5.867,5.867,0,0,0,5.86-5.86V5.86A5.867,5.867,0,0,0,86.4,0Zm3.942,59.611A3.947,3.947,0,0,1,86.4,63.554H41.86a3.947,3.947,0,0,1-3.942-3.942V57.1H90.347Z"/><path d="M71.238,169.963H96.28a2.24,2.24,0,0,0,2.238-2.238V149.738A2.24,2.24,0,0,0,96.28,147.5H71.238A2.24,2.24,0,0,0,69,149.738v17.988a2.24,2.24,0,0,0,2.238,2.238Zm-.32-20.226a.32.32,0,0,1,.32-.32H96.28a.32.32,0,0,1,.32.32v17.988a.32.32,0,0,1-.32.32H71.238a.32.32,0,0,1-.32-.32Z" transform="translate(-28.78 -128.639)"/><path d="M69,343.818a2.24,2.24,0,0,0,2.238,2.238H96.28a2.24,2.24,0,0,0,2.238-2.238V338.4a2.24,2.24,0,0,0-2.238-2.238H71.238A2.24,2.24,0,0,0,69,338.4Zm1.918-5.413a.32.32,0,0,1,.32-.32H96.28a.32.32,0,0,1,.32.32v5.413a.32.32,0,0,1-.32.32H71.238a.32.32,0,0,1-.32-.32Z" transform="translate(-28.78 -293.18)"/><path d="M332.473,181.515a2.24,2.24,0,0,0,2.238-2.238V149.738a2.24,2.24,0,0,0-2.238-2.238h-11.4a2.24,2.24,0,0,0-2.238,2.238v29.539a2.24,2.24,0,0,0,2.238,2.238Zm-11.722-31.777a.32.32,0,0,1,.32-.32h11.4a.32.32,0,0,1,.32.32v21.888H320.751Zm0,23.806h12.042v2.771H320.751Zm0,5.733v-1.044h12.042v1.044a.32.32,0,0,1-.32.32h-11.4A.32.32,0,0,1,320.751,179.277Z" transform="translate(-246.666 -128.639)"/><path d="M354.591,177.172h-6.8a.959.959,0,0,0-.959.959v4.459a.959.959,0,0,0,.959.959h6.8a.959.959,0,0,0,.959-.959v-4.459A.959.959,0,0,0,354.591,177.172Zm-.959,4.459h-4.881V179.09h4.881Z" transform="translate(-271.085 -154.516)"/><path d="M349.71,245.868h-1.918a.959.959,0,1,0,0,1.918h1.918a.959.959,0,0,0,0-1.918Z" transform="translate(-271.085 -214.428)"/><path d="M387.877,245.868h-1.918a.959.959,0,0,0,0,1.918h1.918a.959.959,0,1,0,0-1.918Z" transform="translate(-304.372 -214.428)"/><path d="M349.71,275.52h-1.918a.959.959,0,1,0,0,1.918h1.918a.959.959,0,1,0,0-1.918Z" transform="translate(-271.085 -240.288)"/><path d="M387.877,275.52h-1.918a.959.959,0,1,0,0,1.918h1.918a.959.959,0,1,0,0-1.918Z" transform="translate(-304.372 -240.288)"/><path d="M349.71,305.172h-1.918a.959.959,0,1,0,0,1.918h1.918a.959.959,0,0,0,0-1.918Z" transform="translate(-271.085 -266.148)"/><path d="M387.877,305.172h-1.918a.959.959,0,1,0,0,1.918h1.918a.959.959,0,1,0,0-1.918Z" transform="translate(-304.372 -266.148)"/><path d="M106.376,369.251h18.286a.959.959,0,0,0,0-1.918H106.376a.959.959,0,0,0,0,1.918Z" transform="translate(-60.54 -320.361)"/><path d="M83.913,39.06a.959.959,0,0,0,.959-.959V32.085h2.809a.959.959,0,0,0,0-1.918H80.87a.959.959,0,1,0,0,1.918h2.084V38.1a.959.959,0,0,0,.959.959Z" transform="translate(-38.296 -26.309)"/><path d="M155.409,31.126V38.1a.959.959,0,1,0,1.918,0V31.126a.959.959,0,0,0-1.918,0Z" transform="translate(-104.14 -26.309)"/><path d="M184.922,32.086a2.532,2.532,0,0,1,1.878.837.959.959,0,1,0,1.425-1.284,4.446,4.446,0,1,0-.157,6.118.959.959,0,0,0-1.357-1.355,2.528,2.528,0,1,1-1.788-4.315Z" transform="translate(-126.001 -26.31)"/><path d="M260.248,30.5A.959.959,0,0,0,258.9,30.4l-2.5,2.137V31.125a.959.959,0,0,0-1.918,0V38.1a.959.959,0,0,0,1.918,0V36.693l2.5,2.137a.959.959,0,0,0,1.246-1.459l-3.23-2.758,3.23-2.758A.959.959,0,0,0,260.248,30.5Z" transform="translate(-190.538 -26.309)"/><path d="M315.93,32.085a.959.959,0,1,0,0-1.918h-3.487a.959.959,0,0,0-.959.959V38.1a.959.959,0,0,0,.959.959h3.487a.959.959,0,1,0,0-1.918H313.4V35.572h2.528a.959.959,0,1,0,0-1.918H313.4V32.085Z" transform="translate(-240.257 -26.309)"/><path d="M368.187,39.06a.959.959,0,0,0,.959-.959V32.085h2.447a.959.959,0,1,0,0-1.918h-6.811a.959.959,0,1,0,0,1.918h2.447V38.1A.959.959,0,0,0,368.187,39.06Z" transform="translate(-285.902 -26.309)"/></g></svg>