<svg xmlns="http://www.w3.org/2000/svg" width="64.315" height="64.315" viewBox="0 0 64.315 64.315"><g transform="translate(-1 -1)"><path d="M65.16,49.241l.015-.008L58.008,36.947,55.965,24.689a1.037,1.037,0,0,0-1.023-.867H48.718V20.71h9.336a1.036,1.036,0,0,0,1.037-1.037,6.23,6.23,0,0,0-6.224-6.224H38.344a6.23,6.23,0,0,0-6.224,6.224v4.149H26.934V20.71A1.036,1.036,0,0,0,25.9,19.672H23.822V15.523h6.224a1.036,1.036,0,0,0,1.037-1.037V2.037A1.036,1.036,0,0,0,30.046,1H11.373a1.036,1.036,0,0,0-1.037,1.037V14.485a1.036,1.036,0,0,0,1.037,1.037H17.6v4.149H15.523a1.036,1.036,0,0,0-1.037,1.037v3.112H11.373a1.037,1.037,0,0,0-1.023.867L8.307,36.947,1.141,49.232l.015.008A1.012,1.012,0,0,0,1,49.755V64.278a1.036,1.036,0,0,0,1.037,1.037H64.278a1.036,1.036,0,0,0,1.037-1.037V49.755a1.012,1.012,0,0,0-.156-.515ZM10.336,50.793H55.979v4.149H10.336ZM3.843,48.718,9.894,38.344H56.421l6.051,10.373Zm49.024-33.2a4.155,4.155,0,0,1,4.018,3.112h-8.02a4.144,4.144,0,0,1,4-3.112Zm-14.523,0h9.887a6.2,6.2,0,0,0-1.588,4.149V30.046H34.2V19.672A4.154,4.154,0,0,1,38.344,15.523ZM12.411,3.075h16.6V13.448h-16.6Zm7.261,12.448h2.075v4.149H19.672ZM16.56,21.747h8.3v2.075h-8.3ZM12.252,25.9H32.12v4.149H30.046V32.12H50.793V30.046H48.718V25.9h5.345L55.792,36.27H10.523ZM63.241,63.241H3.075V50.793H8.261v5.187A1.036,1.036,0,0,0,9.3,57.017H57.017a1.036,1.036,0,0,0,1.037-1.037V50.793h5.187Z" transform="translate(0)"/><circle cx="2" cy="2" r="2" transform="translate(32 58.941)"/><path d="M25.411,5H15.037A1.036,1.036,0,0,0,14,6.037v4.149a1.036,1.036,0,0,0,1.037,1.037H25.411a1.036,1.036,0,0,0,1.037-1.037V6.037A1.036,1.036,0,0,0,25.411,5ZM24.373,9.149h-8.3V7.075h8.3Z" transform="translate(0.485 0.149)"/><path d="M15.037,33.224H25.411a1.036,1.036,0,0,0,1.037-1.037V28.037A1.036,1.036,0,0,0,25.411,27H15.037A1.036,1.036,0,0,0,14,28.037v4.149A1.036,1.036,0,0,0,15.037,33.224Zm1.037-4.149h8.3v2.075h-8.3Z" transform="translate(0.485 0.971)"/><path d="M11,39h8.3v2.075H11Z" transform="translate(0.373 1.419)"/><path d="M21,39h8.3v2.075H21Z" transform="translate(0.747 1.419)"/><path d="M19,43h8.3v2.075H19Z" transform="translate(0.672 1.569)"/><path d="M8,43h8.3v2.075H8Z" transform="translate(0.261 1.569)"/><path d="M45,39h8.3v2.075H45Z" transform="translate(1.643 1.419)"/><path d="M35,39h8.3v2.075H35Z" transform="translate(1.27 1.419)"/><path d="M37,43h8.3v2.075H37Z" transform="translate(1.344 1.569)"/><path d="M48,43h8.3v2.075H48Z" transform="translate(1.755 1.569)"/><path d="M29,43h6.224v2.075H29Z" transform="translate(1.046 1.569)"/><path d="M36,18h2.075v2.075H36Z" transform="translate(1.307 0.635)"/><path d="M40,18h2.075v2.075H40Z" transform="translate(1.456 0.635)"/><path d="M35,22h8.3v2.075H35Z" transform="translate(1.27 0.784)"/></g></svg>