<svg xmlns="http://www.w3.org/2000/svg" width="1972.216" height="627" viewBox="0 0 1972.216 627"><defs><style>.a{fill:#fff;}.b{fill:#00bbdc;}.c{fill:none;stroke:#fff;stroke-miterlimit:10;stroke-width:0.1px;}</style></defs><g transform="translate(139.758 -1950)"><rect class="a" width="10.739" height="52.623" transform="translate(986.582 1992.062)"/><path class="a" d="M-139.758,2440.729h24.39v-27.384h1.477v-61.081h1.477v-14.631s6.624-10.739,11.9-10.829c1.7.044,3.938,0,3.938,0s10,6.4,10,13.715v11.835l15.639-.055v-3.927l29.31-.09,10.114-11.724h3.758v-26.983h9.576v-7.653l70.879-.4.2,5.466,7.753.067v27.688l3.995-.068v-5.963H76.509v5.874l5.862.044v-37.005s12.575-33.739,27.879-37.5c5.716-.041,13.356-.113,13.356-.113s19.756,6.645,28.347,36.536v42.421l4.744.089-.179,9.218,61.439-.717-.068-144.444s2.015-.068,2.015-4.229h-7.786l.2-52.823h2.416l.2,7.328,3.337.146-.179-7.474,137.554.313v6.8h3.938V2145.8h4.027v53.429l-10.068.268s-.155,3.021,2.128,3.021c-.068,1.947.02,5.369.02,5.369l-.537,232.842h8.456v-11.275l1.813-.022V2374.28s-2.618-8.256-7.719-8.66a10.721,10.721,0,0,1-.067-1.947l7.786.046V2338.8l56.985-1.075v-18.793l1.969-.09v-13.514l11.59-.045v11.813l29.488-.045s.246-4.049,2.193-4.117,2.081,4.162,2.081,4.162l29.467-.134v-15.393l13.6-.356v20.044h2.147v17.005h54.592l.335,19.979,5.571.067v1.522s-5.281,1.789-5.37,6.891,0,61.929,0,61.929l3.49.088.268,11.993h8.055v-21.477l5.638-.357v-17.363l13.872-6.086v-17.273s4.788-11.276,11.1-11.276,10.739,13.693,10.739,13.693v9.262l5.638-.133v-51.012l2.685-.269v-82.156l-3.133-.357.448-11.812,6.086-.091v-52.98l1.856.045v9.619l3.961-.088s11.819-5.016,10.925-47.436c2.305-.023,4.916-2.951,4.916-2.951s-3.849,46.27,12.44,50.564c1.2-.006,1.582-.006,1.582-.006v-9.748h2.177v52.488l8.278,1.344v10.47l-3.625.27.537,82.826,3.088.18v19.42h12.662v-11.947l15.663.268v3.894l4.161-.134v-9.71l2.013-.18V2228.359l3.58.179v-13.961l43.315.178v13.782l13.6-.357v130.393h8.5v-27.654l9.128.27.8-33.383,5.549-.178V2130.092h3.849v-5.816h3.849v4.027l4.117.091v-4.118h5.906v4.072l5.862-.134v-5.907h15.438s2.953,7.383,7.786,7.383,8.221-.068,8.221-.068v179.414l19.432-.134v-5.637l6.175.268V2318.3l5.638-.133v14.5h4.3v23.224H894.4v-35.439l13.693-.2v-9.329s7.07-5.772,14.051-5.951,12.35,5.906,12.35,5.906l3.134-.268V2210.1h4.027v-74.638l3.893.134v-52.22h8.188v-37.588s15.841-22.82,39.468-22.552,37.32,22.284,37.32,22.284v37.856h9.934V2136l3.4.179v73.744l4.854-.023-1.007,175.521,21.39-.087V2338.8l-4.295-.537-.179-6.086s7.159-4.3,9.307-8.055a32.917,32.917,0,0,1,4.25-.044v6.376l20.987-.423V2210.638h3.491V2136.27h4.027v-51.46l5.817.089v-38.572s15.125-23.63,40.9-23.091,39.02,24.166,39.02,24.166v36.872h7.159v50.833l5.728-.357v75.532h2.505v230.449h26.221v-27.116l4.563.269v-20.406l-9.128.269.268-4.3,10.471-.357v-11.635l27.653.045v-169.01l8.324.179v-13.6l32.576-.359s4.3-.178,4.3,5.909v10.021l9.665-.358v168.967l12.8.269h26.848v-34.634l5.638-.269v3.492l19.645-.448.224-3.715,5.638.539v35.036l43.494.135v-36.918l2.685.134v7.116l79.561-.089s13.2-18.37,21.859-18.906c2.036-.156,6.243-.156,6.243-.156s10.739,1.028,21.3,19.776c10.2.18,60.5-.178,60.5-.178v-36.693s-6.8-3.581-7.516-7.161,1.432-12.527,1.432-12.527l37.315-.438,1.48,12.206s-2.82,7.741-8.547,8.994c-.178,5.013-.358,34.724-.358,34.724l103.634-1.073v5.011l-3.222,1.434.179,56.382h56.918v29.442h15.757v118.94H-139.758Z" transform="translate(0 17.331)"/><rect class="a" width="4.296" height="40.81" transform="translate(989.445 1955.549)"/><path class="a" d="M749.16,2048.876l29-58.351v3.938l-26.132,53.16Z" transform="translate(210.395 9.592)"/><path class="a" d="M760.883,2039.326l14.5-44.748.894,3.758-13.065,40.99-2.327.716" transform="translate(213.169 10.551)"/><path class="a" d="M778.54,1998.631l11.276,40.452h3.043l-12.886-40.452Z" transform="translate(217.349 11.51)"/><path class="a" d="M779.119,1994.817l22.194,48.864,4.563.26-26.041-50.376Z" transform="translate(217.486 10.311)"/><rect class="a" width="4.296" height="40.81" transform="translate(1149.462 1954.475)"/><path class="a" d="M878.551,2048.008l29-58.351v3.938l-26.132,53.16Z" transform="translate(241.02 9.386)"/><path class="a" d="M890.275,2038.457l14.5-44.748.895,3.759L892.6,2038.457l-2.327.716" transform="translate(243.795 10.345)"/><path class="a" d="M907.932,1997.762l11.277,40.452h3.042l-12.886-40.452Z" transform="translate(247.974 11.304)"/><path class="a" d="M908.511,1993.949l22.194,48.865,5.817,3.043L909.227,1992.7Z" transform="translate(248.111 10.105)"/><rect class="a" width="10.739" height="52.623" transform="translate(1146.599 1992.062)"/><path class="a" d="M154.361,2129.268h-4.644l-.368-25.416h4.475Z" transform="translate(68.428 36.414)"/><rect class="a" width="4.117" height="26.401" transform="translate(351.526 2140.623)"/><path class="a" d="M1292.36,2251.068l.037-21.118h-5.988v-3.58h5.988v-13.425a11.4,11.4,0,0,1,10.426-6.622,11.857,11.857,0,0,1,10.62,6.8l-.266,13.176h6.3v3.424l-6.3-.067.528,21.178-2.685-.034-.638-23.056s-.123-2.381-1.577-2.418c-1.365-.032-1.746,2.484-1.746,2.484l-.247,23.257h-6.667l-.626-23.18s.178-2.46-1.387-2.46c-1.705,0-1.565,2.416-1.565,2.416l-.135,23.224Z" transform="translate(337.554 60.668)"/><path class="a" d="M1082.549,2291.664v-12.735h-3.687v-2.206h3.687v-8.263a7.019,7.019,0,0,1,6.42-4.077,7.3,7.3,0,0,1,6.538,4.187l-.165,8.113h3.88v2.106l-3.88-.04.344,12.772-1.713.007-.351-13.956s-.077-1.467-.971-1.49c-.841-.021-1.075,1.532-1.075,1.532l-.123,13.943-4.133.106-.386-14s.11-1.515-.854-1.515c-1.051,0-.964,1.487-.964,1.487l-.11,14.031Z" transform="translate(288.431 74.409)"/><path class="a" d="M1303.712,2214.54h-6.846l2.148-18.928h2.394Z" transform="translate(340.029 58.133)"/><path class="a" d="M1089.107,2267.655h-3.835l1.2-10.6h1.341Z" transform="translate(289.948 72.675)"/><g transform="translate(225.205 2142.593)"><rect class="a" width="1.342" height="26.714"/><rect class="a" width="1.342" height="26.714" transform="translate(3.669)"/><rect class="a" width="1.342" height="26.714" transform="translate(6.891)"/><rect class="a" width="1.342" height="26.714" transform="translate(10.202)"/><rect class="a" width="1.342" height="26.714" transform="translate(13.245)"/><rect class="a" width="1.342" height="26.714" transform="translate(16.378)"/><rect class="a" width="1.342" height="26.714" transform="translate(19.734)"/><rect class="a" width="1.342" height="26.714" transform="translate(23.291)"/><rect class="a" width="1.342" height="26.714" transform="translate(26.446)"/><rect class="a" width="1.342" height="26.714" transform="translate(29.533)"/><rect class="a" width="1.342" height="26.714" transform="translate(32.621)"/><rect class="a" width="1.342" height="26.714" transform="translate(35.776)"/><rect class="a" width="1.342" height="26.714" transform="translate(38.729)"/><rect class="a" width="1.342" height="26.714" transform="translate(41.682)"/><rect class="a" width="1.342" height="26.714" transform="translate(44.77)"/><rect class="a" width="1.342" height="26.714" transform="translate(47.79)"/><rect class="a" width="1.342" height="26.714" transform="translate(51.102)"/></g><g transform="translate(280.065 2142.593)"><rect class="a" width="1.342" height="26.714"/><rect class="a" width="1.342" height="26.714" transform="translate(3.669)"/><rect class="a" width="1.342" height="26.714" transform="translate(6.891)"/><rect class="a" width="1.342" height="26.714" transform="translate(10.202)"/><rect class="a" width="1.342" height="26.714" transform="translate(13.245)"/><rect class="a" width="1.342" height="26.714" transform="translate(16.378)"/><rect class="a" width="1.342" height="26.714" transform="translate(19.734)"/><rect class="a" width="1.342" height="26.714" transform="translate(23.291)"/><rect class="a" width="1.342" height="26.714" transform="translate(26.446)"/><rect class="a" width="1.342" height="26.714" transform="translate(29.533)"/><rect class="a" width="1.342" height="26.714" transform="translate(32.621)"/><rect class="a" width="1.342" height="26.714" transform="translate(35.776)"/><rect class="a" width="1.342" height="26.714" transform="translate(38.729)"/><rect class="a" width="1.342" height="26.714" transform="translate(41.682)"/><rect class="a" width="1.342" height="26.714" transform="translate(44.77)"/><rect class="a" width="1.342" height="26.714" transform="translate(47.79)"/><rect class="a" width="1.342" height="26.714" transform="translate(51.102)"/></g><g transform="translate(334.299 2142.593)"><rect class="a" width="1.342" height="26.714"/><rect class="a" width="1.342" height="26.714" transform="translate(3.669)"/><rect class="a" width="1.342" height="26.714" transform="translate(6.891)"/><rect class="a" width="1.342" height="26.714" transform="translate(10.202)"/><rect class="a" width="1.342" height="26.714" transform="translate(13.245)"/></g><rect class="a" width="137.833" height="2.416" transform="translate(217.81 2142.593)"/><path class="a" d="M779.365,1953.669A3.669,3.669,0,1,1,775.7,1950,3.669,3.669,0,0,1,779.365,1953.669Z" transform="translate(215.807 0)"/><path class="a" d="M908.829,1953.669A3.669,3.669,0,1,1,905.16,1950,3.669,3.669,0,0,1,908.829,1953.669Z" transform="translate(246.45 0)"/><rect class="a" width="2.282" height="21.881" transform="translate(109.756 2261.263)"/><rect class="a" width="2.282" height="21.881" transform="translate(113.851 2261.263)"/><rect class="a" width="2.282" height="21.881" transform="translate(117.878 2261.263)"/><rect class="a" width="2.282" height="21.881" transform="translate(121.637 2261.263)"/><path class="a" d="M-107.5,2263.352c.806-.809,1.416-.516,2.133.371,1.482,1.833,1.29,8.905,1.29,8.905h-4.563S-109.164,2265.018-107.5,2263.352Z" transform="translate(7.347 74.054)"/><g transform="translate(421.601 2304.269)"><path class="a" d="M330.765,2254.856h-16.6v-2.539h1.919s1.094-12,5.391-12.08h2.064s3.969,1.664,5.414,12.028c.7.007,1.813.083,1.813.083Z" transform="translate(-314.164 -2235.575)"/><path class="a" d="M320.4,2236.762c.5-.5.884-.321,1.332.232.924,1.144.805,5.561.805,5.561h-2.851S319.355,2237.8,320.4,2236.762Z" transform="translate(-312.869 -2236.467)"/></g><g transform="translate(497.85 2302.121)"><path class="a" d="M392.421,2253.119h-16.6v-2.541h1.92s1.095-12,5.39-12.078H385.2s3.967,1.664,5.413,12.029c.7,0,1.813.082,1.813.082Z" transform="translate(-375.82 -2233.837)"/><path class="a" d="M382.052,2235.024c.5-.5.884-.321,1.332.232.925,1.145.805,5.561.805,5.561h-2.849S381.012,2236.065,382.052,2235.024Z" transform="translate(-374.525 -2234.729)"/></g><path class="b" d="M467.339,2295.017c.915-.913,1.6-.581,2.419.424,1.678,2.077,1.462,10.1,1.462,10.1h-5.174S465.449,2296.907,467.339,2295.017Z" transform="translate(143.364 81.534)"/><rect class="a" width="1.021" height="9.531" transform="translate(-99.743 2329.055)"/><g transform="translate(1371.064 2192.397)"><path class="a" d="M1082.014,2146c.335.664,1.4,1.268,1.815,1.926.8,1.264,1.633,2.492,2.374,3.8.367.648.835,2.223,1.443,2.688a28.889,28.889,0,0,1,2.508,1.6,18.709,18.709,0,0,1,4.453,7.009,13.633,13.633,0,0,1,.749,2.7c.4-2.042,2.091-4.493,2.752-5.559,1.982-3.2,3.721-6.266,7.081-8.219a22.64,22.64,0,0,1,11.809-2.534c2.306.153,4.628-.05,6.943.023,1.464.044,3.586-.193,4.822.775l-.034.055c-.112-.043-.232-.078-.35-.115l-.118.112c-3.121.2-6.334,2.218-9.038,3.685-2.641,1.436-5.58,1.957-8.288,3.23a20.674,20.674,0,0,0-7.928,6.511c-1.045,1.415-2.792,4.61-2.763,6.71l.03.116c.356.369.711.739,1.046,1.123l.008.009a3.628,3.628,0,0,0,1.1-.016c1.806-.3,3.14-1.567,4.822-2.146l.04.049a8.423,8.423,0,0,1-4.029,3.016c.407.048.826.061,1.244.081.264-.07.53-.136.8-.186,1.947-.35,3.556-1.437,5.458-1.878l.1.168a12.292,12.292,0,0,1-3.517,2.033,20.017,20.017,0,0,1,4.78-.583c.093,0,.147.145.05.187-2.164.972-4.369,1.881-6.521,2.866-1.431.652-3.788.46-5.689.143a8.2,8.2,0,0,0,1.41,1.368,10.086,10.086,0,0,1,1.311.979l-.04.053c-.705-.369-1.519-.359-2.241-.759a6.522,6.522,0,0,1-1.67-1.45l-.248-.273a13.791,13.791,0,0,1-3.993-.9c-1.47-.511-3.789-1.777-4.5-3.468-1.349-.046-2.855-.37-3.25-1.841l-.037-.2c-.1-.058-.2-.114-.281-.156a5.147,5.147,0,0,1-1.135-.744l-.143-.026a.284.284,0,0,1-.069-.514,5.527,5.527,0,0,1,1.724-.6,1.73,1.73,0,0,1,1.741-1.23,12.924,12.924,0,0,1,1.893.07c0-.218,0-.437-.006-.657-.132-1.019-.356-2.005-.6-3.066a32.92,32.92,0,0,0-3.007-4.6c-1.151-1.5-1.321-3.375-1.787-5.155-.576-2.2-2.752-3.992-3.135-6.167" transform="translate(-1081.911 -2146.005)"/></g><path class="a" d="M1187.371,2288.967s-6.643-9-13.154-12.769v28.938H1172.2v-28.648a25.991,25.991,0,0,0-9.047,12.531v.38l-.344-.9c.262-3.1,1.26-9.759,5.252-13.434,0,0-9.145-3.457-14.381,2.989.2-.577,3.861-10.229,13.956-9.039,0,0-4.45-10.536-12.533-9.706,0,0,9.113-2.864,14.561,4.933,0,0,2.127-8.966-2.028-14.208,0,0,5.579,4.432,5.775,11.65,0,0,2.535-8.895,8.867-10.569,0,0-3.976,4.431-3.827,13.163,0,0,7.9-4.88,14.69-2.286,0,0-8.966,1.116-12.434,7.635,0,0,8.769,1.837,12.926,12.3-.377-.414-6.888-7.636-15.281-6.395C1178.355,2275.531,1185.93,2280.521,1187.371,2288.967Z" transform="translate(306.14 71.014)"/><path class="a" d="M1127.011,2312.974s-4.525-6.137-8.964-8.7v19.721h-1.371v-19.522a17.7,17.7,0,0,0-6.166,8.539v.259l-.235-.614c.18-2.111.859-6.65,3.579-9.154,0,0-6.231-2.355-9.8,2.037.133-.393,2.63-6.971,9.51-6.159,0,0-3.033-7.181-8.541-6.614,0,0,6.21-1.951,9.923,3.362,0,0,1.449-6.112-1.382-9.683a11.37,11.37,0,0,1,3.935,7.938s1.728-6.061,6.042-7.2c0,0-2.708,3.018-2.608,8.97,0,0,5.386-3.325,10.012-1.559,0,0-6.11.761-8.475,5.2,0,0,5.977,1.253,8.809,8.383-.256-.282-4.695-5.2-10.413-4.358C1120.868,2303.817,1126.03,2307.219,1127.011,2312.974Z" transform="translate(294.393 79.631)"/><path class="a" d="M1418.977,2335.572s-5.414-7.339-10.72-10.405v23.581h-1.639V2325.4a21.176,21.176,0,0,0-7.372,10.21v.31l-.28-.734c.212-2.524,1.027-7.952,4.279-10.946,0,0-7.451-2.817-11.718,2.437.16-.47,3.145-8.334,11.373-7.366,0,0-3.625-8.585-10.212-7.908,0,0,7.425-2.334,11.865,4.021,0,0,1.732-7.306-1.652-11.578a13.6,13.6,0,0,1,4.706,9.493s2.065-7.246,7.225-8.612c0,0-3.24,3.609-3.119,10.726,0,0,6.44-3.976,11.97-1.861,0,0-7.305.909-10.131,6.22,0,0,7.146,1.5,10.532,10.021-.305-.336-5.612-6.219-12.451-5.208C1411.631,2324.624,1417.8,2328.689,1418.977,2335.572Z" transform="translate(362.434 83.75)"/><path class="a" d="M1456.043,2362.978s-5.023-5.727-9.95-8.122v18.409h-1.521V2355.04a17.217,17.217,0,0,0-6.843,7.972v.242l-.26-.572c.2-1.971.954-6.21,3.974-8.546,0,0-6.918-2.2-10.878,1.9a10.16,10.16,0,0,1,10.555-5.751s-3.365-6.7-9.479-6.173c0,0,6.893-1.821,11.014,3.137,0,0,1.609-5.705-1.535-9.037,0,0,4.221,2.817,4.368,7.411,0,0,1.918-5.659,6.708-6.724,0,0-3.008,2.818-2.9,8.374,0,0,5.979-3.105,11.113-1.456,0,0-6.781.712-9.405,4.857a14.453,14.453,0,0,1,9.777,7.823c-.285-.264-5.21-4.856-11.558-4.067C1449.226,2354.432,1454.955,2357.607,1456.043,2362.978Z" transform="translate(371.674 91.884)"/><path class="a" d="M351.979,2294.7l-1.343,1.073v-82.155l1.343-1.074Z" transform="translate(116.07 62.14)"/><path class="a" d="M60.645,2204.689H78.3v-1.946H76.486s-.1-13.316-7.013-13.72c-6.779.335-6.679,13.652-6.679,13.652H60.645Z" transform="translate(47.433 56.573)"/><path class="a" d="M68.994,2189.146c0,1.076-.5,1.946-1.108,1.946s-1.107-.87-1.107-1.946.5-1.947,1.107-1.947S68.994,2188.071,68.994,2189.146Z" transform="translate(48.885 56.142)"/><ellipse class="a" cx="2.103" cy="2.282" rx="2.103" ry="2.282" transform="translate(1638.216 2249.807)"/><g transform="translate(931.99 2227.433)"><g transform="translate(0 0)"><path class="a" d="M737.208,2174.336h-8.189a2.055,2.055,0,0,1-2.147,2.327c0,.307,0,.692,0,.692h10.337Z" transform="translate(-726.871 -2174.336)"/><path class="a" d="M737.208,2178.678h-8.189a2.054,2.054,0,0,1-2.147,2.327c0,.307,0,.693,0,.693h10.337Z" transform="translate(-726.871 -2173.309)"/><path class="a" d="M737.208,2183.021h-8.189a2.054,2.054,0,0,1-2.147,2.326c0,.309,0,.693,0,.693h10.337Z" transform="translate(-726.871 -2172.281)"/><path class="a" d="M737.208,2187.362h-8.189a2.054,2.054,0,0,1-2.147,2.327c0,.308,0,.693,0,.693h10.337Z" transform="translate(-726.871 -2171.252)"/><path class="a" d="M737.208,2191.7h-8.189a2.054,2.054,0,0,1-2.147,2.326c0,.308,0,.693,0,.693h10.337Z" transform="translate(-726.871 -2170.225)"/><path class="a" d="M737.208,2196.046h-8.189a2.054,2.054,0,0,1-2.147,2.327c0,.308,0,.694,0,.694h10.337Z" transform="translate(-726.871 -2169.198)"/><path class="a" d="M737.208,2200.388h-8.189a2.053,2.053,0,0,1-2.147,2.326c0,.308,0,.694,0,.694h10.337Z" transform="translate(-726.871 -2168.17)"/><path class="a" d="M737.208,2204.73h-8.189a2.054,2.054,0,0,1-2.147,2.327c0,.308,0,.694,0,.694h10.337Z" transform="translate(-726.871 -2167.142)"/><path class="a" d="M737.208,2209.072h-8.189a2.053,2.053,0,0,1-2.147,2.326c0,.308,0,.694,0,.694h10.337Z" transform="translate(-726.871 -2166.115)"/><path class="a" d="M737.208,2213.414h-8.189a2.053,2.053,0,0,1-2.147,2.326c0,.309,0,.693,0,.693h10.337Z" transform="translate(-726.871 -2165.087)"/><path class="a" d="M737.208,2217.757h-8.189a2.053,2.053,0,0,1-2.147,2.325c0,.308,0,.694,0,.694h10.337Z" transform="translate(-726.871 -2164.06)"/><path class="a" d="M737.208,2222.1h-8.189a2.054,2.054,0,0,1-2.147,2.326c0,.308,0,.693,0,.693h10.337Z" transform="translate(-726.871 -2163.031)"/><path class="a" d="M737.208,2226.44h-8.189a2.054,2.054,0,0,1-2.147,2.326c0,.308,0,.694,0,.694h10.337Z" transform="translate(-726.871 -2162.004)"/><path class="a" d="M737.208,2230.782h-8.189a2.053,2.053,0,0,1-2.147,2.326c0,.308,0,.693,0,.693h10.337Z" transform="translate(-726.871 -2160.976)"/><path class="a" d="M737.208,2235.125h-8.189a2.054,2.054,0,0,1-2.147,2.326c0,.308,0,.693,0,.693h10.337Z" transform="translate(-726.871 -2159.949)"/><path class="a" d="M737.208,2239.466h-8.189a2.053,2.053,0,0,1-2.147,2.325c0,.31,0,.7,0,.7h10.337Z" transform="translate(-726.871 -2158.92)"/><path class="a" d="M737.208,2243.809h-8.189a2.054,2.054,0,0,1-2.147,2.326c0,.308,0,.692,0,.692h10.337Z" transform="translate(-726.871 -2157.893)"/><path class="a" d="M737.208,2248.15h-8.189a2.054,2.054,0,0,1-2.147,2.326c0,.309,0,.693,0,.693h10.337Z" transform="translate(-726.871 -2156.866)"/></g><g transform="translate(158.943 0.537)"><path class="a" d="M865.73,2174.771h-8.077s.157,2.773-2.259,2.864c0,.308,0,.694,0,.694H865.73Z" transform="translate(-855.394 -2174.771)"/><path class="a" d="M865.73,2179.547h-8.189a2.052,2.052,0,0,1-2.146,2.325c0,.308,0,.695,0,.695H865.73Z" transform="translate(-855.394 -2173.64)"/><path class="a" d="M865.73,2183.889h-8.189a2.053,2.053,0,0,1-2.146,2.326c0,.308,0,.694,0,.694H865.73Z" transform="translate(-855.394 -2172.611)"/><path class="a" d="M865.73,2188.231h-8.189a2.053,2.053,0,0,1-2.146,2.326c0,.309,0,.694,0,.694H865.73Z" transform="translate(-855.394 -2171.584)"/><path class="a" d="M865.73,2192.573h-8.189a2.055,2.055,0,0,1-2.146,2.328c0,.306,0,.692,0,.692H865.73Z" transform="translate(-855.394 -2170.556)"/><path class="a" d="M865.73,2196.914h-8.189a2.054,2.054,0,0,1-2.146,2.327c0,.309,0,.694,0,.694H865.73Z" transform="translate(-855.394 -2169.529)"/><path class="a" d="M865.73,2201.257h-8.189a2.054,2.054,0,0,1-2.146,2.327c0,.308,0,.693,0,.693H865.73Z" transform="translate(-855.394 -2168.502)"/><path class="a" d="M865.73,2205.6h-8.189a2.055,2.055,0,0,1-2.146,2.328c0,.308,0,.693,0,.693H865.73Z" transform="translate(-855.394 -2167.474)"/><path class="a" d="M865.73,2209.94h-8.189a2.054,2.054,0,0,1-2.146,2.327c0,.309,0,.693,0,.693H865.73Z" transform="translate(-855.394 -2166.447)"/><path class="a" d="M865.73,2214.282h-8.189a2.055,2.055,0,0,1-2.146,2.328c0,.308,0,.693,0,.693H865.73Z" transform="translate(-855.394 -2165.419)"/><path class="a" d="M865.73,2218.625h-8.189a2.054,2.054,0,0,1-2.146,2.327c0,.308,0,.693,0,.693H865.73Z" transform="translate(-855.394 -2164.39)"/><path class="a" d="M865.73,2222.966h-8.189a2.054,2.054,0,0,1-2.146,2.327c0,.309,0,.694,0,.694H865.73Z" transform="translate(-855.394 -2163.364)"/><path class="a" d="M865.73,2227.308h-8.189a2.054,2.054,0,0,1-2.146,2.328c0,.308,0,.693,0,.693H865.73Z" transform="translate(-855.394 -2162.334)"/><path class="a" d="M865.73,2231.65h-8.189a2.054,2.054,0,0,1-2.146,2.327c0,.31,0,.694,0,.694H865.73Z" transform="translate(-855.394 -2161.307)"/><path class="a" d="M865.73,2235.992h-8.189a2.054,2.054,0,0,1-2.146,2.328c0,.307,0,.692,0,.692H865.73Z" transform="translate(-855.394 -2160.281)"/><path class="a" d="M865.73,2240.334h-8.189a2.054,2.054,0,0,1-2.146,2.327c0,.309,0,.694,0,.694H865.73Z" transform="translate(-855.394 -2159.252)"/><path class="a" d="M865.73,2244.676h-8.189a2.053,2.053,0,0,1-2.146,2.326c0,.31,0,.7,0,.7H865.73Z" transform="translate(-855.394 -2158.224)"/><path class="a" d="M865.73,2249.019h-8.189a2.053,2.053,0,0,1-2.146,2.326c0,.309,0,.7,0,.7H865.73Z" transform="translate(-855.394 -2157.197)"/></g><g transform="translate(115.984 0)"><path class="a" d="M820.657,2251.169h8.189a2.053,2.053,0,0,1,2.147-2.325c0-.309,0-.694,0-.694H820.657Z" transform="translate(-820.657 -2156.866)"/><path class="a" d="M820.657,2246.827h8.189a2.054,2.054,0,0,1,2.147-2.326c0-.307,0-.692,0-.692H820.657Z" transform="translate(-820.657 -2157.893)"/><path class="a" d="M820.657,2242.487h8.189a2.054,2.054,0,0,1,2.147-2.326c0-.31,0-.694,0-.694H820.657Z" transform="translate(-820.657 -2158.92)"/><path class="a" d="M820.657,2238.144h8.189a2.053,2.053,0,0,1,2.147-2.326c0-.308,0-.693,0-.693H820.657Z" transform="translate(-820.657 -2159.949)"/><path class="a" d="M820.657,2233.8h8.189a2.054,2.054,0,0,1,2.147-2.326c0-.309,0-.693,0-.693H820.657Z" transform="translate(-820.657 -2160.976)"/><path class="a" d="M820.657,2229.461h8.189a2.054,2.054,0,0,1,2.147-2.326c0-.309,0-.694,0-.694H820.657Z" transform="translate(-820.657 -2162.004)"/><path class="a" d="M820.657,2225.118h8.189a2.054,2.054,0,0,1,2.147-2.326c0-.309,0-.693,0-.693H820.657Z" transform="translate(-820.657 -2163.031)"/><path class="a" d="M820.657,2220.776h8.189a2.055,2.055,0,0,1,2.147-2.327c0-.308,0-.692,0-.692H820.657Z" transform="translate(-820.657 -2164.06)"/><path class="a" d="M820.657,2216.434h8.189a2.053,2.053,0,0,1,2.147-2.325c0-.309,0-.694,0-.694H820.657Z" transform="translate(-820.657 -2165.087)"/><path class="a" d="M820.657,2212.093h8.189a2.054,2.054,0,0,1,2.147-2.327c0-.308,0-.693,0-.693H820.657Z" transform="translate(-820.657 -2166.115)"/><path class="a" d="M820.657,2207.751h8.189a2.055,2.055,0,0,1,2.147-2.327c0-.309,0-.694,0-.694H820.657Z" transform="translate(-820.657 -2167.142)"/><path class="a" d="M820.657,2203.409h8.189a2.054,2.054,0,0,1,2.147-2.327c0-.308,0-.693,0-.693H820.657Z" transform="translate(-820.657 -2168.17)"/><path class="a" d="M820.657,2199.067h8.189a2.055,2.055,0,0,1,2.147-2.327c0-.308,0-.694,0-.694H820.657Z" transform="translate(-820.657 -2169.198)"/><path class="a" d="M820.657,2194.724h8.189a2.054,2.054,0,0,1,2.147-2.327c0-.307,0-.692,0-.692H820.657Z" transform="translate(-820.657 -2170.225)"/><path class="a" d="M820.657,2190.382h8.189a2.054,2.054,0,0,1,2.147-2.326c0-.308,0-.694,0-.694H820.657Z" transform="translate(-820.657 -2171.252)"/><path class="a" d="M820.657,2186.04h8.189a2.054,2.054,0,0,1,2.147-2.326c0-.308,0-.693,0-.693H820.657Z" transform="translate(-820.657 -2172.281)"/><path class="a" d="M820.657,2181.7h8.189a2.054,2.054,0,0,1,2.147-2.326c0-.308,0-.694,0-.694H820.657Z" transform="translate(-820.657 -2173.309)"/><path class="a" d="M820.657,2177.356h8.189a2.053,2.053,0,0,1,2.147-2.325c0-.309,0-.695,0-.695H820.657Z" transform="translate(-820.657 -2174.336)"/></g><g transform="translate(115.448 97.528)"><path class="a" d="M820.223,2330.032h8.189a2.053,2.053,0,0,1,2.147-2.326c0-.308,0-.694,0-.694H820.223Z" transform="translate(-820.223 -2235.728)"/><path class="a" d="M820.223,2325.691h8.189a2.054,2.054,0,0,1,2.147-2.327c0-.308,0-.693,0-.693H820.223Z" transform="translate(-820.223 -2236.755)"/><path class="a" d="M820.223,2321.348h8.189a2.053,2.053,0,0,1,2.147-2.326c0-.308,0-.694,0-.694H820.223Z" transform="translate(-820.223 -2237.783)"/><path class="a" d="M820.223,2317.007h8.189a2.054,2.054,0,0,1,2.147-2.327c0-.308,0-.693,0-.693H820.223Z" transform="translate(-820.223 -2238.811)"/><path class="a" d="M820.223,2312.664h8.189a2.052,2.052,0,0,1,2.147-2.325c0-.308,0-.694,0-.694H820.223Z" transform="translate(-820.223 -2239.837)"/><path class="a" d="M820.223,2308.323h8.189a2.054,2.054,0,0,1,2.147-2.327c0-.308,0-.693,0-.693H820.223Z" transform="translate(-820.223 -2240.866)"/><path class="a" d="M820.223,2303.98h8.189a2.053,2.053,0,0,1,2.147-2.326c0-.308,0-.694,0-.694H820.223Z" transform="translate(-820.223 -2241.893)"/><path class="a" d="M820.223,2299.639h8.189a2.053,2.053,0,0,1,2.147-2.326c0-.309,0-.694,0-.694H820.223Z" transform="translate(-820.223 -2242.921)"/><path class="a" d="M820.223,2295.3h8.189a2.053,2.053,0,0,1,2.147-2.326c0-.308,0-.693,0-.693H820.223Z" transform="translate(-820.223 -2243.949)"/><path class="a" d="M820.223,2290.954h8.189a2.052,2.052,0,0,1,2.147-2.325c0-.309,0-.694,0-.694H820.223Z" transform="translate(-820.223 -2244.976)"/><path class="a" d="M820.223,2286.612h8.189a2.053,2.053,0,0,1,2.147-2.326c0-.308,0-.693,0-.693H820.223Z" transform="translate(-820.223 -2246.005)"/><path class="a" d="M820.223,2282.27h8.189a2.052,2.052,0,0,1,2.147-2.325c0-.309,0-.694,0-.694H820.223Z" transform="translate(-820.223 -2247.031)"/><path class="a" d="M820.223,2277.928h8.189a2.053,2.053,0,0,1,2.147-2.326c0-.308,0-.693,0-.693H820.223Z" transform="translate(-820.223 -2248.061)"/><path class="a" d="M820.223,2273.586h8.189a2.052,2.052,0,0,1,2.147-2.325c0-.31,0-.7,0-.7H820.223Z" transform="translate(-820.223 -2249.087)"/><path class="a" d="M820.223,2269.244h8.189a2.053,2.053,0,0,1,2.147-2.326c0-.308,0-.693,0-.693H820.223Z" transform="translate(-820.223 -2250.115)"/><path class="a" d="M820.223,2264.9h8.189a2.053,2.053,0,0,1,2.147-2.326c0-.309,0-.693,0-.693H820.223Z" transform="translate(-820.223 -2251.143)"/><path class="a" d="M820.223,2260.56h8.189a2.053,2.053,0,0,1,2.147-2.326c0-.308,0-.693,0-.693H820.223Z" transform="translate(-820.223 -2252.171)"/><path class="a" d="M820.223,2256.218h8.189a2.053,2.053,0,0,1,2.147-2.326c0-.309,0-.693,0-.693H820.223Z" transform="translate(-820.223 -2253.198)"/></g><g transform="translate(274.794 0.168)"><path class="a" d="M949.072,2251.307h8.188a2.054,2.054,0,0,1,2.147-2.326c0-.309,0-.694,0-.694H949.072Z" transform="translate(-949.072 -2157.002)"/><path class="a" d="M949.072,2246.964h8.188a2.054,2.054,0,0,1,2.147-2.326c0-.308,0-.694,0-.694H949.072Z" transform="translate(-949.072 -2158.028)"/><path class="a" d="M949.072,2242.622h8.188a2.054,2.054,0,0,1,2.147-2.325c0-.309,0-.694,0-.694H949.072Z" transform="translate(-949.072 -2159.056)"/><path class="a" d="M949.072,2238.28h8.188a2.054,2.054,0,0,1,2.147-2.326c0-.308,0-.693,0-.693H949.072Z" transform="translate(-949.072 -2160.085)"/><path class="a" d="M949.072,2233.938h8.188a2.054,2.054,0,0,1,2.147-2.325c0-.309,0-.694,0-.694H949.072Z" transform="translate(-949.072 -2161.111)"/><path class="a" d="M949.072,2229.6h8.188a2.054,2.054,0,0,1,2.147-2.326c0-.309,0-.693,0-.693H949.072Z" transform="translate(-949.072 -2162.14)"/><path class="a" d="M949.072,2225.253h8.188a2.054,2.054,0,0,1,2.147-2.325c0-.309,0-.694,0-.694H949.072Z" transform="translate(-949.072 -2163.167)"/><path class="a" d="M949.072,2220.912h8.188a2.054,2.054,0,0,1,2.147-2.326c0-.308,0-.693,0-.693H949.072Z" transform="translate(-949.072 -2164.196)"/><path class="a" d="M949.072,2216.57h8.188a2.054,2.054,0,0,1,2.147-2.326c0-.309,0-.693,0-.693H949.072Z" transform="translate(-949.072 -2165.223)"/><path class="a" d="M949.072,2212.227h8.188a2.053,2.053,0,0,1,2.147-2.324c0-.309,0-.694,0-.694H949.072Z" transform="translate(-949.072 -2166.251)"/><path class="a" d="M949.072,2207.886h8.188a2.055,2.055,0,0,1,2.147-2.326c0-.309,0-.693,0-.693H949.072Z" transform="translate(-949.072 -2167.278)"/><path class="a" d="M949.072,2203.545h8.188a2.055,2.055,0,0,1,2.147-2.327c0-.308,0-.693,0-.693H949.072Z" transform="translate(-949.072 -2168.306)"/><path class="a" d="M949.072,2199.2h8.188a2.055,2.055,0,0,1,2.147-2.326c0-.309,0-.693,0-.693H949.072Z" transform="translate(-949.072 -2169.334)"/><path class="a" d="M949.072,2194.86h8.188a2.054,2.054,0,0,1,2.147-2.326c0-.308,0-.693,0-.693H949.072Z" transform="translate(-949.072 -2170.362)"/><path class="a" d="M949.072,2190.518h8.188a2.054,2.054,0,0,1,2.147-2.325c0-.309,0-.694,0-.694H949.072Z" transform="translate(-949.072 -2171.388)"/><path class="a" d="M949.072,2186.176h8.188a2.054,2.054,0,0,1,2.147-2.326c0-.308,0-.693,0-.693H949.072Z" transform="translate(-949.072 -2172.417)"/><path class="a" d="M949.072,2181.835h8.188a2.055,2.055,0,0,1,2.147-2.327c0-.308,0-.694,0-.694H949.072Z" transform="translate(-949.072 -2173.444)"/><path class="a" d="M949.072,2177.492h8.188a2.054,2.054,0,0,1,2.147-2.326c0-.308,0-.694,0-.694H949.072Z" transform="translate(-949.072 -2174.472)"/></g><g transform="translate(274.257 97.695)"><path class="a" d="M948.638,2330.168h8.188a2.053,2.053,0,0,1,2.147-2.326c0-.309,0-.7,0-.7H948.638Z" transform="translate(-948.638 -2235.863)"/><path class="a" d="M948.638,2325.827h8.188a2.054,2.054,0,0,1,2.147-2.327c0-.309,0-.694,0-.694H948.638Z" transform="translate(-948.638 -2236.89)"/><path class="a" d="M948.638,2321.484h8.188a2.053,2.053,0,0,1,2.147-2.326c0-.309,0-.7,0-.7H948.638Z" transform="translate(-948.638 -2237.917)"/><path class="a" d="M948.638,2317.143h8.188a2.054,2.054,0,0,1,2.147-2.327c0-.309,0-.694,0-.694H948.638Z" transform="translate(-948.638 -2238.946)"/><path class="a" d="M948.638,2312.8h8.188a2.053,2.053,0,0,1,2.147-2.326c0-.309,0-.7,0-.7H948.638Z" transform="translate(-948.638 -2239.972)"/><path class="a" d="M948.638,2308.458h8.188a2.054,2.054,0,0,1,2.147-2.327c0-.309,0-.694,0-.694H948.638Z" transform="translate(-948.638 -2241.001)"/><path class="a" d="M948.638,2304.116h8.188a2.053,2.053,0,0,1,2.147-2.326c0-.309,0-.694,0-.694H948.638Z" transform="translate(-948.638 -2242.029)"/><path class="a" d="M948.638,2299.774h8.188a2.053,2.053,0,0,1,2.147-2.326c0-.31,0-.7,0-.7H948.638Z" transform="translate(-948.638 -2243.056)"/><path class="a" d="M948.638,2295.432h8.188a2.053,2.053,0,0,1,2.147-2.326c0-.309,0-.694,0-.694H948.638Z" transform="translate(-948.638 -2244.084)"/><path class="a" d="M948.638,2291.091h8.188a2.053,2.053,0,0,1,2.147-2.326c0-.31,0-.7,0-.7H948.638Z" transform="translate(-948.638 -2245.112)"/><path class="a" d="M948.638,2286.748h8.188a2.053,2.053,0,0,1,2.147-2.326c0-.309,0-.694,0-.694H948.638Z" transform="translate(-948.638 -2246.139)"/><path class="a" d="M948.638,2282.407h8.188a2.053,2.053,0,0,1,2.147-2.326c0-.31,0-.7,0-.7H948.638Z" transform="translate(-948.638 -2247.167)"/><path class="a" d="M948.638,2278.064h8.188a2.053,2.053,0,0,1,2.147-2.326c0-.309,0-.694,0-.694H948.638Z" transform="translate(-948.638 -2248.196)"/><path class="a" d="M948.638,2273.723h8.188a2.053,2.053,0,0,1,2.147-2.326c0-.31,0-.7,0-.7H948.638Z" transform="translate(-948.638 -2249.222)"/><path class="a" d="M948.638,2269.38h8.188a2.053,2.053,0,0,1,2.147-2.326c0-.309,0-.694,0-.694H948.638Z" transform="translate(-948.638 -2250.25)"/><path class="a" d="M948.638,2265.039h8.188a2.053,2.053,0,0,1,2.147-2.326c0-.31,0-.7,0-.7H948.638Z" transform="translate(-948.638 -2251.278)"/><path class="a" d="M948.638,2260.7h8.188a2.053,2.053,0,0,1,2.147-2.326c0-.309,0-.694,0-.694H948.638Z" transform="translate(-948.638 -2252.306)"/><path class="a" d="M948.638,2256.354h8.188a2.053,2.053,0,0,1,2.147-2.326c0-.31,0-.7,0-.7H948.638Z" transform="translate(-948.638 -2253.333)"/></g><g transform="translate(274.257 194.685)"><path class="a" d="M948.638,2408.6h8.188a2.054,2.054,0,0,1,2.147-2.327c0-.308,0-.693,0-.693H948.638Z" transform="translate(-948.638 -2314.291)"/><path class="a" d="M948.638,2404.253h8.188a2.053,2.053,0,0,1,2.147-2.326c0-.309,0-.694,0-.694H948.638Z" transform="translate(-948.638 -2315.317)"/><path class="a" d="M948.638,2399.912h8.188a2.054,2.054,0,0,1,2.147-2.328c0-.307,0-.692,0-.692H948.638Z" transform="translate(-948.638 -2316.346)"/><path class="a" d="M948.638,2395.569h8.188a2.053,2.053,0,0,1,2.147-2.326c0-.309,0-.694,0-.694H948.638Z" transform="translate(-948.638 -2317.374)"/><path class="a" d="M948.638,2391.228h8.188a2.054,2.054,0,0,1,2.147-2.327c0-.308,0-.693,0-.693H948.638Z" transform="translate(-948.638 -2318.401)"/><path class="a" d="M948.638,2386.885h8.188a2.053,2.053,0,0,1,2.147-2.326c0-.309,0-.694,0-.694H948.638Z" transform="translate(-948.638 -2319.428)"/><path class="a" d="M948.638,2382.544h8.188a2.054,2.054,0,0,1,2.147-2.327c0-.308,0-.693,0-.693H948.638Z" transform="translate(-948.638 -2320.457)"/><path class="a" d="M948.638,2378.2h8.188a2.053,2.053,0,0,1,2.147-2.326c0-.308,0-.694,0-.694H948.638Z" transform="translate(-948.638 -2321.484)"/><path class="a" d="M948.638,2373.86h8.188a2.054,2.054,0,0,1,2.147-2.327c0-.308,0-.693,0-.693H948.638Z" transform="translate(-948.638 -2322.512)"/><path class="a" d="M948.638,2369.518h8.188a2.053,2.053,0,0,1,2.147-2.326c0-.308,0-.694,0-.694H948.638Z" transform="translate(-948.638 -2323.539)"/><path class="a" d="M948.638,2365.176h8.188a2.054,2.054,0,0,1,2.147-2.327c0-.308,0-.693,0-.693H948.638Z" transform="translate(-948.638 -2324.567)"/><path class="a" d="M948.638,2360.833h8.188a2.052,2.052,0,0,1,2.147-2.325c0-.308,0-.694,0-.694H948.638Z" transform="translate(-948.638 -2325.594)"/><path class="a" d="M948.638,2356.492h8.188a2.054,2.054,0,0,1,2.147-2.327c0-.308,0-.693,0-.693H948.638Z" transform="translate(-948.638 -2326.623)"/><path class="a" d="M948.638,2352.149h8.188a2.053,2.053,0,0,1,2.147-2.326c0-.308,0-.694,0-.694H948.638Z" transform="translate(-948.638 -2327.649)"/><path class="a" d="M948.638,2347.807h8.188a2.053,2.053,0,0,1,2.147-2.326c0-.308,0-.693,0-.693H948.638Z" transform="translate(-948.638 -2328.678)"/><path class="a" d="M948.638,2343.465h8.188a2.053,2.053,0,0,1,2.147-2.326c0-.308,0-.694,0-.694H948.638Z" transform="translate(-948.638 -2329.706)"/><path class="a" d="M948.638,2339.123h8.188a2.052,2.052,0,0,1,2.147-2.325c0-.309,0-.694,0-.694H948.638Z" transform="translate(-948.638 -2330.733)"/><path class="a" d="M948.638,2334.781h8.188a2.053,2.053,0,0,1,2.147-2.326c0-.308,0-.693,0-.693H948.638Z" transform="translate(-948.638 -2331.762)"/></g></g><path class="a" d="M1227.4,2287.695h-10.024l3.043-44.031h3.222Z" transform="translate(321.214 69.506)"/><ellipse class="a" cx="4.475" cy="4.922" rx="4.475" ry="4.922" transform="translate(1539.122 2319.837)"/><g transform="translate(1037.639 2157.09)"><path class="a" d="M812.3,2172.58h8.189a2.052,2.052,0,0,1,2.146-2.326c0-.308,0-.694,0-.694H812.3Z" transform="translate(-812.3 -2105.124)"/><path class="a" d="M812.3,2168.239h8.189a2.053,2.053,0,0,1,2.146-2.327c0-.308,0-.694,0-.694H812.3Z" transform="translate(-812.3 -2106.152)"/><path class="a" d="M812.3,2163.9h8.189a2.054,2.054,0,0,1,2.146-2.328c0-.308,0-.694,0-.694H812.3Z" transform="translate(-812.3 -2107.179)"/><path class="a" d="M812.3,2159.555h8.189a2.053,2.053,0,0,1,2.146-2.327c0-.308,0-.694,0-.694H812.3Z" transform="translate(-812.3 -2108.207)"/><path class="a" d="M812.3,2155.213h8.189a2.054,2.054,0,0,1,2.146-2.328c0-.308,0-.694,0-.694H812.3Z" transform="translate(-812.3 -2109.235)"/><path class="a" d="M812.3,2150.87h8.189a2.052,2.052,0,0,1,2.146-2.326c0-.308,0-.694,0-.694H812.3Z" transform="translate(-812.3 -2110.262)"/><path class="a" d="M812.3,2146.529h8.189a2.053,2.053,0,0,1,2.146-2.327c0-.308,0-.694,0-.694H812.3Z" transform="translate(-812.3 -2111.29)"/><path class="a" d="M812.3,2142.186h8.189a2.053,2.053,0,0,1,2.146-2.326c0-.308,0-.694,0-.694H812.3Z" transform="translate(-812.3 -2112.318)"/><path class="a" d="M812.3,2137.845h8.189a2.053,2.053,0,0,1,2.146-2.327c0-.308,0-.694,0-.694H812.3Z" transform="translate(-812.3 -2113.345)"/><path class="a" d="M812.3,2133.5h8.189a2.053,2.053,0,0,1,2.146-2.327c0-.308,0-.694,0-.694H812.3Z" transform="translate(-812.3 -2114.373)"/><path class="a" d="M812.3,2129.16h8.189a2.053,2.053,0,0,1,2.146-2.326c0-.308,0-.694,0-.694H812.3Z" transform="translate(-812.3 -2115.4)"/><path class="a" d="M812.3,2124.818h8.189a2.053,2.053,0,0,1,2.146-2.326c0-.308,0-.694,0-.694H812.3Z" transform="translate(-812.3 -2116.428)"/><path class="a" d="M812.3,2120.476h8.189a2.052,2.052,0,0,1,2.146-2.325c0-.308,0-.694,0-.694H812.3Z" transform="translate(-812.3 -2117.456)"/></g><g transform="translate(935.407 2153.146)"><path class="a" d="M739.929,2114.266l-8.188.143a2.055,2.055,0,0,1-2.106,2.364c0,.308.012.693.012.693l10.334-.18Z" transform="translate(-729.634 -2114.266)"/><path class="a" d="M740,2118.608l-8.187.142a2.055,2.055,0,0,1-2.106,2.365c0,.307.012.692.012.692l10.334-.179Z" transform="translate(-729.616 -2113.238)"/><path class="a" d="M740.08,2122.949l-8.188.144a2.054,2.054,0,0,1-2.106,2.363c0,.308.011.694.011.694l10.335-.181Z" transform="translate(-729.598 -2112.211)"/><path class="a" d="M740.155,2127.29l-8.188.143a2.054,2.054,0,0,1-2.106,2.364c0,.307.013.693.013.693l10.333-.181Z" transform="translate(-729.58 -2111.184)"/><path class="a" d="M740.23,2131.632l-8.186.142a2.054,2.054,0,0,1-2.106,2.364c0,.309.011.695.011.695l10.335-.181Z" transform="translate(-729.562 -2110.156)"/><path class="a" d="M740.307,2135.973l-8.188.144a2.054,2.054,0,0,1-2.106,2.363c0,.308.012.694.012.694l10.334-.181Z" transform="translate(-729.544 -2109.129)"/><path class="a" d="M740.382,2140.314l-8.187.143a2.054,2.054,0,0,1-2.106,2.364c0,.309.012.694.012.694l10.333-.18Z" transform="translate(-729.526 -2108.101)"/><path class="a" d="M740.458,2144.656l-8.187.142a2.055,2.055,0,0,1-2.106,2.365c0,.308.011.694.011.694l10.335-.18Z" transform="translate(-729.508 -2107.073)"/><path class="a" d="M740.534,2149l-8.188.143a2.054,2.054,0,0,1-2.1,2.364c0,.307.012.693.012.693l10.333-.181Z" transform="translate(-729.49 -2106.046)"/><path class="a" d="M740.61,2153.338l-8.188.144a2.053,2.053,0,0,1-2.106,2.363c.005.308.013.694.013.694l10.333-.18Z" transform="translate(-729.473 -2105.019)"/><path class="a" d="M740.686,2157.68l-8.188.142a2.055,2.055,0,0,1-2.106,2.365c.005.306.012.693.012.693l10.333-.18Z" transform="translate(-729.455 -2103.991)"/><path class="a" d="M740.761,2162.021l-8.187.143a2.055,2.055,0,0,1-2.106,2.364c0,.307.013.694.013.694l10.333-.182Z" transform="translate(-729.437 -2102.964)"/><path class="a" d="M740.837,2166.362l-8.188.143a2.052,2.052,0,0,1-2.106,2.363c.006.309.012.694.012.694l10.335-.18Z" transform="translate(-729.419 -2101.936)"/></g><g transform="translate(1718.72 2219.78)"><path class="a" d="M1363.084,2168.147c.172.343.718.654.934.993.415.652.843,1.285,1.226,1.957.188.334.429,1.147.743,1.386a14.671,14.671,0,0,1,1.294.826,9.662,9.662,0,0,1,2.3,3.613,7.058,7.058,0,0,1,.386,1.392,9.853,9.853,0,0,1,1.418-2.866c1.023-1.648,1.918-3.231,3.65-4.238a11.687,11.687,0,0,1,6.089-1.306c1.188.079,2.387-.025,3.581.011a4.418,4.418,0,0,1,2.485.4l-.018.029c-.058-.023-.12-.04-.181-.06l-.061.059c-1.608.1-3.266,1.142-4.66,1.9-1.361.74-2.876,1.008-4.272,1.665a10.669,10.669,0,0,0-4.087,3.357,7.334,7.334,0,0,0-1.424,3.46l.015.061c.184.19.366.381.539.578l0,.005a1.8,1.8,0,0,0,.567-.008,15.77,15.77,0,0,0,2.485-1.106l.021.026a4.356,4.356,0,0,1-2.078,1.553c.209.025.427.03.642.042.136-.036.274-.069.414-.1,1-.18,1.833-.741,2.814-.968l.05.086a6.32,6.32,0,0,1-1.812,1.048,10.274,10.274,0,0,1,2.464-.3c.047,0,.076.073.026.1-1.116.5-2.252.969-3.362,1.477a5.749,5.749,0,0,1-2.932.075,4.206,4.206,0,0,0,.727.7,5.044,5.044,0,0,1,.675.5l-.021.027c-.362-.189-.784-.185-1.156-.391a3.388,3.388,0,0,1-.86-.748l-.126-.141a7.153,7.153,0,0,1-2.059-.461A4.12,4.12,0,0,1,1367.2,2181c-.7-.022-1.472-.19-1.675-.949l-.019-.1c-.052-.029-.1-.058-.146-.08a2.721,2.721,0,0,1-.585-.384l-.073-.013a.147.147,0,0,1-.036-.266,2.869,2.869,0,0,1,.889-.31.892.892,0,0,1,.9-.634,6.844,6.844,0,0,1,.975.036c0-.113,0-.224,0-.337-.068-.527-.184-1.036-.31-1.581a17.142,17.142,0,0,0-1.549-2.373,7,7,0,0,1-.922-2.657c-.3-1.134-1.417-2.057-1.616-3.179" transform="translate(-1363.03 -2168.147)"/></g><g transform="translate(1200.272 2155.4)"><path class="a" d="M943.807,2171.213H952a2.053,2.053,0,0,1,2.147-2.326c0-.308,0-.695,0-.695H943.807Z" transform="translate(-943.807 -2103.757)"/><path class="a" d="M943.807,2166.872H952a2.055,2.055,0,0,1,2.147-2.328c0-.305,0-.693,0-.693H943.807Z" transform="translate(-943.807 -2104.785)"/><path class="a" d="M943.807,2162.529H952a2.054,2.054,0,0,1,2.147-2.327c0-.307,0-.694,0-.694H943.807Z" transform="translate(-943.807 -2105.813)"/><path class="a" d="M943.807,2158.187H952a2.054,2.054,0,0,1,2.147-2.327c0-.307,0-.694,0-.694H943.807Z" transform="translate(-943.807 -2106.84)"/><path class="a" d="M943.807,2153.845H952a2.054,2.054,0,0,1,2.147-2.327c0-.307,0-.694,0-.694H943.807Z" transform="translate(-943.807 -2107.868)"/><path class="a" d="M943.807,2149.5H952a2.055,2.055,0,0,1,2.147-2.328c0-.307,0-.694,0-.694H943.807Z" transform="translate(-943.807 -2108.896)"/><path class="a" d="M943.807,2145.162H952a2.054,2.054,0,0,1,2.147-2.328c0-.307,0-.694,0-.694H943.807Z" transform="translate(-943.807 -2109.923)"/><path class="a" d="M943.807,2140.82H952a2.054,2.054,0,0,1,2.147-2.328c0-.307,0-.694,0-.694H943.807Z" transform="translate(-943.807 -2110.951)"/><path class="a" d="M943.807,2136.478H952a2.055,2.055,0,0,1,2.147-2.328c0-.307,0-.694,0-.694H943.807Z" transform="translate(-943.807 -2111.979)"/><path class="a" d="M943.807,2132.135H952a2.055,2.055,0,0,1,2.147-2.328c0-.306,0-.692,0-.692H943.807Z" transform="translate(-943.807 -2113.006)"/><path class="a" d="M943.807,2127.793H952a2.054,2.054,0,0,1,2.147-2.327c0-.307,0-.693,0-.693H943.807Z" transform="translate(-943.807 -2114.034)"/><path class="a" d="M943.807,2123.451H952a2.055,2.055,0,0,1,2.147-2.328c0-.306,0-.692,0-.692H943.807Z" transform="translate(-943.807 -2115.062)"/><path class="a" d="M943.807,2119.109H952a2.053,2.053,0,0,1,2.147-2.326c0-.308,0-.694,0-.694H943.807Z" transform="translate(-943.807 -2116.089)"/></g><g transform="translate(1096.095 2156.825)"><path class="a" d="M869.862,2117.241l-8.188.142a2.052,2.052,0,0,1-2.106,2.363c.005.31.012.7.012.7l10.334-.181Z" transform="translate(-859.568 -2117.241)"/><path class="a" d="M869.937,2121.582l-8.187.143a2.053,2.053,0,0,1-2.1,2.364c0,.308.011.694.011.694l10.335-.181Z" transform="translate(-859.55 -2116.213)"/><path class="a" d="M870.014,2125.924l-8.188.143a2.054,2.054,0,0,1-2.106,2.364c0,.306.011.694.011.694l10.335-.18Z" transform="translate(-859.532 -2115.186)"/><path class="a" d="M870.089,2130.265l-8.187.144a2.054,2.054,0,0,1-2.106,2.363c0,.308.012.694.012.694l10.333-.181Z" transform="translate(-859.514 -2114.159)"/><path class="a" d="M870.165,2134.606l-8.187.143a2.055,2.055,0,0,1-2.106,2.364c0,.307.011.694.011.694l10.335-.181Z" transform="translate(-859.496 -2113.131)"/><path class="a" d="M870.241,2138.948l-8.188.142a2.052,2.052,0,0,1-2.106,2.363c0,.308.014.694.014.694l10.332-.181Z" transform="translate(-859.478 -2112.104)"/><path class="a" d="M870.316,2143.289l-8.187.143a2.055,2.055,0,0,1-2.106,2.364c0,.308.012.694.012.694l10.333-.181Z" transform="translate(-859.461 -2111.076)"/><path class="a" d="M870.392,2147.63l-8.187.144a2.053,2.053,0,0,1-2.106,2.363c.005.309.012.694.012.694l10.334-.181Z" transform="translate(-859.442 -2110.048)"/><path class="a" d="M870.468,2151.971l-8.187.143a2.055,2.055,0,0,1-2.106,2.365c0,.308.012.693.012.693l10.334-.181Z" transform="translate(-859.424 -2109.021)"/><path class="a" d="M870.544,2156.313l-8.188.142a2.055,2.055,0,0,1-2.106,2.365c0,.307.012.693.012.693l10.334-.181Z" transform="translate(-859.407 -2107.994)"/><path class="a" d="M870.62,2160.654l-8.188.143a2.053,2.053,0,0,1-2.1,2.364c0,.308.011.693.011.693l10.335-.18Z" transform="translate(-859.389 -2106.966)"/><path class="a" d="M870.7,2165l-8.188.142a2.055,2.055,0,0,1-2.106,2.365c0,.306.012.693.012.693l10.333-.18Z" transform="translate(-859.371 -2105.938)"/><path class="a" d="M870.771,2169.337l-8.188.143a2.054,2.054,0,0,1-2.106,2.364c.006.309.014.694.014.694l10.334-.18Z" transform="translate(-859.353 -2104.911)"/></g><path class="a" d="M1301.334,2217.419l14.611-48.149,1.3.9-14.954,47.591Z" transform="translate(341.087 51.898)"/><path class="a" d="M1312.515,2180.777c-2.606-3.012-9.41-3.566-9.41-3.566s1.221-4.623-.323-7.563c6.31-.872,12.605,3.4,12.605,3.4Z" transform="translate(341.43 51.96)"/><path class="a" d="M1198.491,2185.867c0-.076.022-.147.022-.224a4.3,4.3,0,0,0-7.389-3.006,8.241,8.241,0,0,0-15.2-1.794,5.414,5.414,0,0,0-1.275-.169,5.306,5.306,0,0,0-2.641.723,8.539,8.539,0,0,0-16.354.816,6.936,6.936,0,0,0-3.423,3.4,6.506,6.506,0,0,0-4.016.5,8.539,8.539,0,0,0-16.408,4.5,6.917,6.917,0,0,0,1.188,13.734l.049,0v0h17.566a6.007,6.007,0,0,0,2.428.541v.006h22.238v-.035a5.328,5.328,0,0,0,4.92-4.529h16.855a7.3,7.3,0,0,0,1.437-14.467Z" transform="translate(299.604 53.417)"/><path class="a" d="M448.242,2091.076c0-.074.022-.144.022-.217a4.25,4.25,0,0,0-4.309-4.189,4.357,4.357,0,0,0-3.082,1.267,8.326,8.326,0,0,0-15.2-1.745,5.583,5.583,0,0,0-1.275-.165,5.419,5.419,0,0,0-2.64.7,8.61,8.61,0,0,0-16.354.794,6.838,6.838,0,0,0-3.423,3.305,7.2,7.2,0,0,0-1.184-.116,7.039,7.039,0,0,0-2.832.6,8.535,8.535,0,0,0-8-5.4,8.432,8.432,0,0,0-8.549,8.31,8.125,8.125,0,0,0,.141,1.472,6.713,6.713,0,0,0,1.187,13.352l.048-.006v.006h17.567a6.138,6.138,0,0,0,2.429.525v0h22.237v-.035a5.267,5.267,0,0,0,4.921-4.4H446.8a7.086,7.086,0,0,0,1.437-14.064Z" transform="translate(122.03 31.048)"/><g transform="translate(675.805 2074.007)"><path class="a" d="M519.82,2050.274c.335.664,1.4,1.268,1.814,1.926.8,1.264,1.634,2.492,2.374,3.8.366.648.835,2.223,1.443,2.687a28.525,28.525,0,0,1,2.508,1.6,18.691,18.691,0,0,1,4.453,7.008,13.576,13.576,0,0,1,.749,2.7c.4-2.042,2.091-4.494,2.753-5.559,1.983-3.2,3.721-6.266,7.081-8.219a22.642,22.642,0,0,1,11.809-2.535c2.305.153,4.626-.049,6.943.021,1.464.046,3.586-.193,4.822.777l-.033.055c-.114-.044-.233-.078-.35-.115l-.117.112c-3.122.194-6.336,2.217-9.039,3.685-2.641,1.436-5.579,1.956-8.287,3.23a20.655,20.655,0,0,0-7.928,6.51c-1.045,1.415-2.792,4.61-2.763,6.71l.03.117c.356.367.711.739,1.046,1.123l.009.008a3.536,3.536,0,0,0,1.1-.017c1.806-.3,3.14-1.565,4.822-2.145l.04.049a8.446,8.446,0,0,1-4.029,3.015c.407.049.826.06,1.244.081.263-.071.53-.137.8-.186,1.947-.349,3.556-1.438,5.459-1.878l.1.167a12.26,12.26,0,0,1-3.515,2.033,20.008,20.008,0,0,1,4.78-.582c.093,0,.147.143.051.187-2.166.972-4.37,1.879-6.521,2.865-1.431.653-3.788.46-5.689.143a8.191,8.191,0,0,0,1.41,1.368,10.014,10.014,0,0,1,1.311.979l-.041.053c-.7-.369-1.519-.359-2.239-.759a6.51,6.51,0,0,1-1.67-1.452l-.248-.273a13.73,13.73,0,0,1-3.994-.9c-1.47-.511-3.788-1.777-4.5-3.467-1.348-.048-2.854-.371-3.249-1.842l-.037-.2c-.1-.059-.2-.114-.282-.156a5.162,5.162,0,0,1-1.134-.745l-.143-.025a.285.285,0,0,1-.069-.515,5.537,5.537,0,0,1,1.725-.6,1.731,1.731,0,0,1,1.74-1.232,13.215,13.215,0,0,1,1.895.07c0-.217,0-.435-.006-.656-.132-1.02-.358-2.006-.6-3.065a33.1,33.1,0,0,0-3.006-4.6c-1.151-1.5-1.321-3.375-1.787-5.156-.576-2.2-2.752-3.991-3.136-6.165" transform="translate(-519.716 -2050.274)"/></g><path class="a" d="M-32.869,2164.89c0-.08.022-.155.022-.235a4.512,4.512,0,0,0-4.511-4.512,4.5,4.5,0,0,0-3.228,1.365,8.63,8.63,0,0,0-8.329-6.39,8.636,8.636,0,0,0-7.588,4.51,5.63,5.63,0,0,0-1.334-.177,5.556,5.556,0,0,0-2.766.757,8.947,8.947,0,0,0-8.435-5.979,8.953,8.953,0,0,0-8.691,6.834,7.267,7.267,0,0,0-3.584,3.562,7.25,7.25,0,0,0-1.24-.126,7.2,7.2,0,0,0-2.966.649,8.947,8.947,0,0,0-8.378-5.822,8.952,8.952,0,0,0-8.954,8.954,8.92,8.92,0,0,0,.148,1.584,7.243,7.243,0,0,0-6.012,7.13,7.255,7.255,0,0,0,7.254,7.255l.051-.005v.005h18.4a6.276,6.276,0,0,0,2.545.566v.006h23.288v-.037a5.578,5.578,0,0,0,5.153-4.741h17.654a7.653,7.653,0,0,0,7.651-7.652A7.651,7.651,0,0,0-32.869,2164.89Z" transform="translate(7.347 48.338)"/><rect class="b" width="6.444" height="10.739" transform="translate(760.16 2259.652)"/><rect class="b" width="6.444" height="10.739" transform="translate(760.16 2277.372)"/><rect class="b" width="6.444" height="10.739" transform="translate(760.16 2295.806)"/><rect class="b" width="6.444" height="10.739" transform="translate(760.16 2314.858)"/><rect class="b" width="1.543" height="136.032" transform="translate(346.459 2221.885)"/><rect class="b" width="1.543" height="136.032" transform="translate(225.104 2221.885)"/><path class="a" d="M-34.1,2249.578v-1.661l1.41-.017v-1.812h1.007v1.745h1.566v1.744Z" transform="translate(25.008 70.079)"/><path class="a" d="M-23.824,2249.578v-1.661l1.41-.017v-1.812h1.007v1.745h1.566v1.744Z" transform="translate(27.44 70.079)"/><path class="a" d="M-13.983,2249.578v-1.661l1.41-.017v-1.812h1.007v1.745H-10v1.744Z" transform="translate(29.769 70.079)"/><path class="a" d="M-4.575,2249.578v-1.661l1.41-.017v-1.812h1.007v1.745H-.592v1.744Z" transform="translate(31.996 70.079)"/><path class="a" d="M5.086,2249.578v-1.661l1.41-.017v-1.812H7.5v1.745H9.069v1.744Z" transform="translate(34.283 70.079)"/><path class="a" d="M351.2,2215.3s14.99,2.506,25.909,0a37.787,37.787,0,0,0,0,16.826s-20.495-1.433-25.909,0C350.906,2224.077,351.2,2215.3,351.2,2215.3Z" transform="translate(116.173 62.792)"/><path class="b" d="M363.412,2222.879a2.371,2.371,0,1,1-2.371-2.373A2.372,2.372,0,0,1,363.412,2222.879Z" transform="translate(117.971 64.025)"/><rect class="b" width="62.288" height="2.517" transform="translate(964.745 2230.454)"/><rect class="b" width="62.288" height="2.517" transform="translate(1124.135 2231.713)"/><path class="b" d="M1166.565,2319.865h-8.86v-14.6s1.071-3.643,4.43-3.643a4.592,4.592,0,0,1,4.43,3.643Z" transform="translate(307.092 83.224)"/><path class="b" d="M1186.538,2319.865h-8.86v-14.6s1.071-3.643,4.43-3.643a4.593,4.593,0,0,1,4.43,3.643Z" transform="translate(311.819 83.224)"/><path class="b" d="M1206.51,2319.865h-8.859v-14.6s1.071-3.643,4.43-3.643a4.592,4.592,0,0,1,4.43,3.643Z" transform="translate(316.547 83.224)"/><path class="b" d="M1252.32,2319.865h-8.861v-14.6s1.071-3.643,4.43-3.643a4.594,4.594,0,0,1,4.432,3.643Z" transform="translate(327.389 83.224)"/><path class="b" d="M1272.293,2319.865h-8.861v-14.6s1.071-3.643,4.432-3.643a4.591,4.591,0,0,1,4.429,3.643Z" transform="translate(332.116 83.224)"/><path class="b" d="M1292.265,2319.865h-8.859v-14.6s1.07-3.643,4.43-3.643a4.591,4.591,0,0,1,4.43,3.643Z" transform="translate(336.844 83.224)"/><rect class="b" width="25.685" height="8.054" transform="translate(806.742 2157.18)"/><rect class="b" width="6.936" height="8.054" transform="translate(840.995 2157.18)"/><rect class="b" width="6.935" height="8.054" transform="translate(812.648 2210.035)"/><rect class="b" width="6.935" height="8.054" transform="translate(812.648 2227.665)"/><rect class="b" width="6.444" height="36.078" transform="translate(1274.039 2282.388)"/><path class="b" d="M20.326,2302.706l.01-.074-.01-.074v-.2H20.3c-.2-2.234-2.765-4.009-5.935-4.009s-5.737,1.774-5.936,4.009H8.376v11.762h11.95v-10.9l.01-.076-.01-.073v-.365Z" transform="translate(35.061 82.45)"/><path class="b" d="M64.438,2302.408l.011-.075-.011-.072v-.2h-.027c-.2-2.232-2.766-4.007-5.935-4.007s-5.738,1.774-5.936,4.007h-.051v11.763H64.438v-10.9l.011-.074-.011-.075v-.365Z" transform="translate(45.502 82.379)"/><path class="b" d="M43.773,2302.408l.01-.075-.01-.072v-.2h-.028c-.2-2.232-2.765-4.007-5.935-4.007s-5.737,1.774-5.936,4.007h-.051v11.763h11.95v-10.9l.01-.074-.01-.075v-.365Z" transform="translate(40.611 82.379)"/><path class="b" d="M96.745,2302.706l.01-.074-.01-.074v-.2h-.028c-.2-2.234-2.765-4.009-5.935-4.009s-5.737,1.774-5.936,4.009H84.8v11.762h11.95v-10.9l.01-.076-.01-.073v-.365Z" transform="translate(53.149 82.45)"/><path class="b" d="M140.857,2302.408l.011-.075-.011-.072v-.2h-.027c-.2-2.232-2.765-4.007-5.935-4.007s-5.737,1.774-5.936,4.007h-.051v11.763h11.949v-10.9l.011-.074-.011-.075v-.365Z" transform="translate(63.59 82.379)"/><path class="b" d="M120.192,2302.408l.01-.075-.01-.072v-.2h-.028c-.2-2.232-2.765-4.007-5.935-4.007s-5.737,1.774-5.936,4.007h-.051v11.763h11.95v-10.9l.01-.074-.01-.075v-.365Z" transform="translate(58.698 82.379)"/><line class="c" y2="4.743" transform="translate(479.011 2284.531)"/><line class="c" x1="4.743" transform="translate(476.64 2286.903)"/><line class="c" x1="2.844" y2="3.796" transform="translate(477.589 2285.005)"/><line class="c" x2="3.258" y2="3.447" transform="translate(477.383 2285.183)"/><rect class="b" width="6.935" height="8.054" transform="translate(961.278 2073.503)"/><rect class="b" width="6.935" height="8.054" transform="translate(961.278 2086.032)"/><rect class="a" width="6.444" height="36.078" transform="translate(1186.424 2111.129)"/><rect class="b" width="9.225" height="21.345" transform="translate(333.356 2221.885)"/><path class="a" d="M-105.762,2256.164a1.03,1.03,0,0,1-1.03,1.029,1.03,1.03,0,0,1-1.029-1.029,1.029,1.029,0,0,1,1.029-1.029A1.029,1.029,0,0,1-105.762,2256.164Z" transform="translate(7.559 72.221)"/><path class="b" d="M333.631,2374.033H377.3v-35.8h-2.147s.537-31.324-19.689-31.324-19.51,30.786-19.51,30.786l-2.326.358Z" transform="translate(112.045 84.476)"/><circle class="b" cx="8.592" cy="8.592" r="8.592" transform="translate(645.248 2279.788)"/><circle class="a" cx="0.537" cy="0.537" r="0.537" transform="translate(653.37 2287.91)"/><path class="a" d="M501.962,2224.477l-.625-4.021.613-1.41.628,1.461-.281,3.97Z" transform="translate(151.738 63.679)"/><path class="a" d="M501.955,2223.917l2.282,5.839.688.454-.084-.806-2.635-5.487Z" transform="translate(151.885 64.832)"/></g></svg>