<svg xmlns="http://www.w3.org/2000/svg" width="36.224" height="24.904" viewBox="0 0 36.224 24.904"><defs><style>.a{fill:#00bbdc;}</style></defs><g transform="translate(24.012 4.591)"><path class="a" d="M339.392,152.942l12.212,7.72V144.9Z" transform="translate(-339.392 -144.896)"/></g><g transform="translate(0 4.591)"><path class="a" d="M0,144.9v15.766l12.212-7.72Z" transform="translate(0 -144.896)"/></g><g transform="translate(0.068)"><path class="a" d="M34.852,80H3.156a2.236,2.236,0,0,0-2.2,1.927L19,93.815,37.048,81.927A2.236,2.236,0,0,0,34.852,80Z" transform="translate(-0.96 -80)"/></g><g transform="translate(0.072 14.003)"><path class="a" d="M22.889,277.922l-3.2,2.11a1.137,1.137,0,0,1-1.245,0l-3.2-2.112L1.024,286.91a2.232,2.232,0,0,0,2.192,1.911h31.7A2.232,2.232,0,0,0,37.1,286.91Z" transform="translate(-1.024 -277.92)"/></g></svg>