<svg xmlns="http://www.w3.org/2000/svg" width="36.317" height="32.686" viewBox="0 0 36.317 32.686"><defs><style>.a{fill:#5e5e5e;}</style></defs><g transform="translate(-16 -39.998)"><path class="a" d="M52.023,155.718l-1.469-.882a2.615,2.615,0,0,1-1.263-2.231.605.605,0,0,0-.605-.605H19.632a.605.605,0,0,0-.605.605,2.615,2.615,0,0,1-1.263,2.231l-1.469.882a.605.605,0,0,0-.294.519v1.211a.605.605,0,0,0,.177.428l.783.783-.783.783a.605.605,0,0,0-.177.428v1.211a.605.605,0,0,0,.177.428l.783.783-.783.783A.605.605,0,0,0,16,163.5v1.211a.605.605,0,0,0,.177.428l.783.783-.783.783a.605.605,0,0,0-.177.428v1.211a.605.605,0,0,0,.177.428l.783.783-.783.783a.605.605,0,0,0-.177.428v1.211a.605.605,0,0,0,.294.519l1.469.882a2.615,2.615,0,0,1,1.263,2.231.605.605,0,0,0,.605.605H48.686a.605.605,0,0,0,.605-.605,2.615,2.615,0,0,1,1.263-2.231l1.469-.882a.605.605,0,0,0,.294-.519v-1.211a.605.605,0,0,0-.177-.428l-.783-.783.783-.783a.605.605,0,0,0,.177-.428v-1.211a.605.605,0,0,0-.177-.428l-.783-.783.783-.783a.605.605,0,0,0,.177-.428V163.5a.605.605,0,0,0-.177-.428l-.783-.783.783-.783a.605.605,0,0,0,.177-.428v-1.211a.606.606,0,0,0-.177-.428l-.783-.783.783-.783a.605.605,0,0,0,.177-.428v-1.211a.605.605,0,0,0-.294-.519Zm-.917,1.479-1.033,1.033a.605.605,0,0,0,0,.856l1.033,1.033v.709l-1.033,1.033a.605.605,0,0,0,0,.856l1.033,1.033v.709l-1.033,1.033a.605.605,0,0,0,0,.856l1.033,1.033v.709l-1.033,1.033a.605.605,0,0,0,0,.856l1.033,1.033v.617l-1.175.705a3.835,3.835,0,0,0-1.8,2.664H20.188a3.835,3.835,0,0,0-1.8-2.664l-1.175-.705v-.617l1.033-1.033a.605.605,0,0,0,0-.856l-1.033-1.033v-.709l1.033-1.033a.605.605,0,0,0,0-.856l-1.033-1.033v-.709l1.033-1.033a.605.605,0,0,0,0-.856l-1.033-1.033v-.709l1.033-1.033a.605.605,0,0,0,0-.856L17.21,157.2v-.617l1.175-.705a3.835,3.835,0,0,0,1.8-2.664H48.129a3.835,3.835,0,0,0,1.8,2.664l1.175.705Z" transform="translate(0 -103.528)"/><path class="a" d="M175.731,43.4l-.524-1.091a.605.605,0,0,0-.49-.341l-1.706-.158a2.615,2.615,0,0,1-2.1-1.464.605.605,0,0,0-.808-.284l-13.562,6.515.524,1.091,13.061-6.274a3.835,3.835,0,0,0,2.778,1.621l1.365.127.267.556-.484,1.379a.605.605,0,0,0,.371.772l1.379.484.416.865,1.091-.524-.524-1.091a.605.605,0,0,0-.345-.309L175.39,44.9l.367-1.044a.605.605,0,0,0-.026-.463Z" transform="translate(-129.904)"/><path class="a" d="M104.817,200h-23A1.818,1.818,0,0,0,80,201.816v13.316a1.818,1.818,0,0,0,1.816,1.816h23a1.818,1.818,0,0,0,1.816-1.816V201.816A1.818,1.818,0,0,0,104.817,200ZM86.053,215.738H81.816a.606.606,0,0,1-.605-.605V201.816a.606.606,0,0,1,.605-.605h4.237Zm19.369-.605a.606.606,0,0,1-.605.605H87.263V201.211h17.553a.606.606,0,0,1,.605.605Z" transform="translate(-59.158 -147.896)"/><path class="a" d="M112,240h2.421v1.211H112Z" transform="translate(-88.737 -184.87)"/><path class="a" d="M112,272h2.421v1.211H112Z" transform="translate(-88.737 -214.448)"/><path class="a" d="M112,304h2.421v1.211H112Z" transform="translate(-88.737 -244.027)"/><path class="a" d="M112,336h2.421v1.211H112Z" transform="translate(-88.737 -273.606)"/><path class="a" d="M112,368h2.421v1.211H112Z" transform="translate(-88.737 -303.185)"/><path class="a" d="M200,232h1.211v1.211H200Z" transform="translate(-170.078 -177.475)"/><path class="a" d="M232,232h4.842v1.211H232Z" transform="translate(-199.657 -177.475)"/><path class="a" d="M312,232h2.421v1.211H312Z" transform="translate(-273.604 -177.475)"/><path class="a" d="M200,264h4.237v1.211H200Z" transform="translate(-170.078 -207.054)"/><path class="a" d="M272,264h1.211v1.211H272Z" transform="translate(-236.631 -207.054)"/><path class="a" d="M200,296h6.053v1.211H200Z" transform="translate(-170.078 -236.633)"/><path class="a" d="M296,296h1.211v1.211H296Z" transform="translate(-258.815 -236.633)"/><path class="a" d="M320,352h1.211v1.211H320Z" transform="translate(-280.999 -288.396)"/><path class="a" d="M352,352h3.632v1.211H352Z" transform="translate(-310.578 -288.396)"/><path class="a" d="M296,384h4.842v1.211H296Z" transform="translate(-258.815 -317.974)"/><path class="a" d="M376,384h1.816v1.211H376Z" transform="translate(-332.762 -317.974)"/></g></svg>