<svg xmlns="http://www.w3.org/2000/svg" width="62.671" height="44.066" viewBox="0 0 62.671 44.066"><defs><style>.a{fill:#00bbdc;}</style></defs><path class="a" d="M53.491,25.705a9.063,9.063,0,0,0-4.158,1.042L46.851,23.8A12.248,12.248,0,0,1,50.4,22.366a14.949,14.949,0,0,1,3.1-.331,5.242,5.242,0,0,0,3.722-1.528,5.766,5.766,0,0,0,1.653-4.2A16.445,16.445,0,0,0,42.59,0H40.516a1.836,1.836,0,1,0,0,3.672H42.59a12.4,12.4,0,0,1,1.6.162V7.382a9.105,9.105,0,0,0-3.02.869c-.012-.014-.027-.023-.039-.037a9.157,9.157,0,0,0-3.747,3.218L33.2,17.7a1.841,1.841,0,0,1-1.25.8,11.576,11.576,0,0,0-8.631,6.4,14.605,14.605,0,0,1,2.506,8.151H22.033a11.179,11.179,0,1,0-.677,3.672H38.68a1.835,1.835,0,0,0,1.836-1.836,13.775,13.775,0,0,1,.361-3.095A12.53,12.53,0,0,1,43.988,26.1l2.478,2.945a9.091,9.091,0,0,0-2.156,5.839,9.18,9.18,0,1,0,9.18-9.18ZM11.016,40.394a7.344,7.344,0,1,1,7.344-7.344H12.852a1.837,1.837,0,0,1-1.836-1.836,1.836,1.836,0,1,0-3.672,0,5.515,5.515,0,0,0,5.508,5.508h4.487A7.319,7.319,0,0,1,11.016,40.394Zm42.474,0a5.515,5.515,0,0,1-5.508-5.508,5.457,5.457,0,0,1,.842-2.893l3.232,4.04a1.837,1.837,0,1,0,2.869-2.3L51.7,29.7a5.437,5.437,0,0,1,1.794-.325,5.508,5.508,0,1,1,0,11.016Zm0,0" transform="translate(0 0)"/><path class="a" d="M179.1,40.443l3.146-4.719a12.8,12.8,0,0,1,3.822-3.687A12.729,12.729,0,0,0,179.255,30a12.887,12.887,0,0,0-10.7,5.758l2.937,1.762A24.5,24.5,0,0,0,179.1,40.443Zm0,0" transform="translate(-147.919 -26.328)"/><path class="a" d="M21.678,67,9.9,60H1.836A1.835,1.835,0,0,0,0,61.836a9.191,9.191,0,0,0,9.18,9.18c3.673,0,7.482.08,11.564,3.628.016-.029.016-.062.033-.09a15.216,15.216,0,0,1,5.741-5.314A28.147,28.147,0,0,1,21.678,67Zm0,0" transform="translate(0.001 -52.655)"/></svg>