<svg xmlns="http://www.w3.org/2000/svg" width="70.039" height="46.772" viewBox="0 0 70.039 46.772"><defs><style>.a{fill:#00bbdc;}</style></defs><g transform="translate(0 0)"><path class="a" d="M41.953,297.488a5.094,5.094,0,1,1-4.248,5.026,4.8,4.8,0,0,1,.065-.843A5.1,5.1,0,0,1,41.953,297.488Z" transform="translate(16.04 -260.832)"/><path class="a" d="M20.735,214.932a.834.834,0,0,1,.5.794v12.337a.769.769,0,0,1-.811.746h-2.5a8.347,8.347,0,0,0-15.79,0H0V212.76H15.628Z" transform="translate(48.801 -189.901)"/><path class="a" d="M48.9,143.6v-.032a.834.834,0,0,1,.859-.811H57.5a.885.885,0,0,1,.778.486l3.923,7.62H48.9Z" transform="translate(-0.088 -131.247)"/><path class="a" d="M331.6,297.36a5.1,5.1,0,1,1-5.091,5.091,4.188,4.188,0,0,1,.049-.778A5.133,5.133,0,0,1,331.6,297.36Z" transform="translate(-319.585 -260.786)"/><path class="a" d="M164.777,97.213H121.005V71.76h48.636v8.268h-.811a4.061,4.061,0,0,0-4.053,4.085Z" transform="translate(-119.219 -71.76)"/><path class="a" d="M151.818,248.76h44.745v10.213H170.932a8.347,8.347,0,0,0-15.79,0h-3.4a.779.779,0,0,1-.73-.827v-8.463A.862.862,0,0,1,151.818,248.76Z" transform="translate(-151.005 -220.065)"/></g></svg>