<svg xmlns="http://www.w3.org/2000/svg" width="51.678" height="51.678" viewBox="0 0 51.678 51.678"><defs><style>.a{fill:#00bbdc;}</style></defs><g transform="translate(0)"><path class="a" d="M191.573,240.877c-1.078-1.09-3.312-1.528-4.956-1.676.133,1.643.549,3.878,1.627,4.968a3.826,3.826,0,0,0,2.493,1.369l-.614-.614a1.514,1.514,0,0,1,2.141-2.141l.647.647c0-.038,0-.077,0-.116A4.083,4.083,0,0,0,191.573,240.877Z" transform="translate(-167.781 -215.058)"/><path class="a" d="M264.241,15.9a1.514,1.514,0,0,0,1.514-1.514v-1.6h3.313a1.514,1.514,0,0,0,0-3.028h-3.313V6.138h3.313a1.514,1.514,0,0,0,0-3.028h-3.313v-1.6a1.514,1.514,0,0,0-3.028,0V14.382A1.514,1.514,0,0,0,264.241,15.9Z" transform="translate(-236.209)"/><path class="a" d="M48.2,41.066c-5.38-1.748-12.221-7.271-15.509-9.926-.358-.289-.673-.544-.945-.76a10.467,10.467,0,0,0-6.494-2.273H13.893a13.873,13.873,0,0,0-10.828,5.2L3.028,21.831a2.341,2.341,0,0,1,2.389-2.285h8.925V20.58a3.623,3.623,0,0,0,3.218,3.6l5.93.667V11.216l-5.93.667a3.623,3.623,0,0,0-3.218,3.6v1.034H5.417A5.373,5.373,0,0,0,0,21.835v30.33a2.682,2.682,0,0,0,2.35,2.658,10.6,10.6,0,1,1,21.155.021h2.786a10.6,10.6,0,1,1,21.154,0H49a2.682,2.682,0,0,0,2.679-2.679v-6.3a5.028,5.028,0,0,0-3.479-4.8ZM27.832,43.2a1.514,1.514,0,0,1-2.141,0l-.3-.3a4.974,4.974,0,0,1-2.353.592,6.707,6.707,0,0,1-4.731-2.269,9.75,9.75,0,0,1-2.335-5.512A19.566,19.566,0,0,1,15.76,32.5a1.514,1.514,0,0,1,1.478-1.464c.61-.014,6.038-.06,8.706,2.637a7,7,0,0,1,2.2,4.356,4.947,4.947,0,0,1-.6,2.743l.286.286A1.514,1.514,0,0,1,27.832,43.2Z" transform="translate(0 -10.084)"/></g><g transform="translate(5.359 36.542)"><path class="a" d="M64.493,363.077a7.569,7.569,0,1,0,3.6,7.98A7.581,7.581,0,0,0,64.493,363.077Zm.627,7.4a4.536,4.536,0,1,1-2.158-4.785A4.552,4.552,0,0,1,65.12,370.475Z" transform="translate(-53.092 -362.039)"/><path class="a" d="M115.408,422.246a1.514,1.514,0,1,0,.717,1.591A1.528,1.528,0,0,0,115.408,422.246Z" transform="translate(-107.069 -415.983)"/><g transform="translate(23.94)"><path class="a" d="M301.684,363.077a7.569,7.569,0,1,0,3.6,7.98A7.582,7.582,0,0,0,301.684,363.077Zm.627,7.4a4.536,4.536,0,1,1-2.158-4.785A4.552,4.552,0,0,1,302.311,370.475Z" transform="translate(-290.283 -362.039)"/><path class="a" d="M352.6,422.246a1.514,1.514,0,1,0,.717,1.591A1.528,1.528,0,0,0,352.6,422.246Z" transform="translate(-344.26 -415.983)"/></g></g></svg>