<svg xmlns="http://www.w3.org/2000/svg" width="80.648" height="38.12" viewBox="0 0 80.648 38.12"><defs><style>.a{fill:#00bbdc;}</style></defs><g transform="translate(-21 -145)"><path class="a" d="M92.1,145.01,81.1,145h-.015A4.067,4.067,0,0,0,77,149.091v8.092H92.1Z" transform="translate(-46.391)"/><path class="a" d="M287.076,157.484l-7.932-9.864a5.841,5.841,0,0,0-4.541-2.177l-6.6-.023v12.111h19.113C287.1,157.531,287.088,157.5,287.076,157.484Z" transform="translate(-204.617 -0.348)"/><circle class="a" cx="6.745" cy="6.745" r="6.745" transform="translate(38.401 169.631)"/><circle class="a" cx="6.745" cy="6.745" r="6.745" transform="translate(78.973 169.631)"/><path class="a" d="M177,157.269h13.556V145.151L177,145.1Z" transform="translate(-129.232 -0.086)"/><path class="a" d="M300.785,227.809h-8.947a6.44,6.44,0,0,1-.673-.04v.04H268v16.816h13.541a8.8,8.8,0,0,1,17.588,0h7.136V233.236A5.474,5.474,0,0,0,300.785,227.809Z" transform="translate(-204.617 -68.567)"/><path class="a" d="M77,244.816h5.742a8.8,8.8,0,0,1,17.588,0h7.384V228H77Z" transform="translate(-46.391 -68.758)"/><path class="a" d="M21,218h4.461v16.644H21Z" transform="translate(0 -60.474)"/></g></svg>