<svg xmlns="http://www.w3.org/2000/svg" width="71.236" height="47.491" viewBox="0 0 71.236 47.491"><defs><style>.a{fill:#00bbdc;}</style></defs><g transform="translate(55.801 32.056)"><path class="a" d="M7.717,315.733A7.717,7.717,0,1,1,0,323.45,7.727,7.727,0,0,1,7.717,315.733Zm0,13.06a5.343,5.343,0,1,0-5.343-5.343A5.349,5.349,0,0,0,7.717,328.793Z" transform="translate(0 -315.733)"/></g><g transform="translate(0 0)"><path class="a" d="M1.187,109.078H2.374V107.3a.594.594,0,0,1,.594-.594H23.152a.594.594,0,0,1,.594.594v1.044a.6.6,0,0,0,.173.42l4.228,4.228a1.186,1.186,0,0,1,.348.838v4.155a.594.594,0,0,0,.594.594h7.124a.594.594,0,0,0,.594-.594V93.05a.594.594,0,0,0-.594-.594H24.339a.593.593,0,0,0-.594.594v10.685a.594.594,0,0,1-.594.594H2.968a.594.594,0,0,1-.594-.594V96.018c0-5.294,4.438-9.846,9.5-10.685H49.865a1.023,1.023,0,0,1,.12.006c7.575.767,12.251,13.772,13.828,18.99H65.3a1.188,1.188,0,0,1,1.187,1.187v3.562a1.188,1.188,0,0,1-1.187,1.187H61.738V112.7a11.874,11.874,0,0,1,9.1,2.965,1.187,1.187,0,0,1-1.584,1.769c-3.549-3.177-9.2-3.448-13.447.53a8.656,8.656,0,0,0-2.384,6.544A1.186,1.186,0,0,1,52.24,125.7H21.276a8.3,8.3,0,0,1-16.432,0H3.562a1.188,1.188,0,0,1-1.187-1.187V116.2H1.187A1.188,1.188,0,0,1,0,115.015v-4.749A1.187,1.187,0,0,1,1.187,109.078Zm54.284-6.112a.6.6,0,0,0,.839.374l3.524-1.762a.6.6,0,0,0,.292-.744,34.958,34.958,0,0,0-5.4-9.968.594.594,0,0,0-.784-.1l-1.167.778a.593.593,0,0,0-.243.651Zm-16.292.769a.593.593,0,0,0,.594.594H52.605a.593.593,0,0,0,.572-.75L50.263,92.894a.591.591,0,0,0-.571-.437H39.773a.593.593,0,0,0-.594.594ZM13.06,130.449a5.948,5.948,0,0,0,5.816-4.749H7.244A5.946,5.946,0,0,0,13.06,130.449Z" transform="translate(0 -85.333)"/></g></svg>