<svg xmlns="http://www.w3.org/2000/svg" width="85.309" height="39.045" viewBox="0 0 85.309 39.045"><defs><style>.a{fill:#00bbdc;}</style></defs><g transform="translate(59.716 24.827)"><g transform="translate(0 0)"><path class="a" d="M75.375,287.834a7.109,7.109,0,1,1-7.109,7.109A7.117,7.117,0,0,1,75.375,287.834Zm0,11.375a4.266,4.266,0,1,0-4.265-4.266A4.271,4.271,0,0,0,75.375,299.209Z" transform="translate(-68.266 -287.834)"/></g></g><g transform="translate(0 0)"><path class="a" d="M1.421,163.66v-8.531a1.422,1.422,0,0,1,.973-1.349l8.022-2.674c3.021-5.117,7.175-9.987,16.352-11.595l.051-.008c16.95-2.343,29.675,1.48,37.845,11.368,6.081.088,12.289,1.359,15.94,3.7a6.961,6.961,0,0,1,3.118,5.564l.165,3.53a1.422,1.422,0,0,1,1.422,1.422v5.687a1.422,1.422,0,0,1-1.422,1.422H78.2a1.431,1.431,0,0,1-1.422-1.437c0-.007,0-.014,0-.023a9.952,9.952,0,0,0-19.9.038,1.293,1.293,0,0,1-1.422,1.422H29.858a1.431,1.431,0,0,1-1.422-1.437c0-.007,0-.014,0-.023a9.952,9.952,0,0,0-19.9.038,1.293,1.293,0,0,1-1.422,1.422H1.422A1.422,1.422,0,0,1,0,170.768v-5.687A1.422,1.422,0,0,1,1.421,163.66Zm38.389-13.507a.711.711,0,0,0,.711.711H59.064a.715.715,0,0,0,.471-1.25c-4.934-4.5-11.208-7.069-18.94-7.753a.725.725,0,0,0-.783.717Zm-17.082.007a.712.712,0,0,0,.711.7H36.256a.711.711,0,0,0,.711-.711v-7.763a.713.713,0,0,0-.707-.718,65.389,65.389,0,0,0-9.024.644,23.951,23.951,0,0,0-4.1,1.085.712.712,0,0,0-.461.68Zm-7.421.7h3.866a.711.711,0,0,0,.711-.718l-.037-3.853a.717.717,0,0,0-1.149-.559,18.8,18.8,0,0,0-3.954,3.98A.715.715,0,0,0,15.308,150.863Z" transform="translate(0 -138.833)"/></g><g transform="translate(11.374 24.827)"><g transform="translate(0 0)"><path class="a" d="M365.509,287.834a7.109,7.109,0,1,1-7.109,7.109A7.117,7.117,0,0,1,365.509,287.834Zm0,11.375a4.266,4.266,0,1,0-4.266-4.266A4.271,4.271,0,0,0,365.509,299.209Z" transform="translate(-358.4 -287.834)"/></g></g></svg>