<svg xmlns="http://www.w3.org/2000/svg" width="36.974" height="37.914" viewBox="0 0 36.974 37.914"><defs><style>.a{fill:#fff;}</style></defs><g transform="translate(-6.348)"><g transform="translate(6.348 0)"><path class="a" d="M52.385,192.113H67.721a.741.741,0,0,0,.741-.741V186.86a.741.741,0,0,0-.741-.741H52.385a.741.741,0,0,0-.741.741v4.513a.741.741,0,0,0,.741.741Zm.741-4.513H66.98v3.032H53.125Z" transform="translate(-48.29 -172.337)"/><path class="a" d="M51.644,304.24a.741.741,0,0,0,.741.741H67.721a.741.741,0,0,0,.741-.741v-11.48a.741.741,0,0,0-.741-.741H52.385a.741.741,0,0,0-.741.741Zm11.7-10.739H66.98v2.346H63.348Zm0,3.826H66.98v2.346H63.348Zm0,3.827H66.98V303.5H63.348ZM58.238,293.5h3.63v2.346h-3.63Zm0,3.826h3.63v2.346h-3.63Zm0,3.827h3.63V303.5h-3.63ZM53.125,293.5h3.632v2.346H53.125Zm0,3.826h3.632v2.346H53.125Zm0,3.827h3.632V303.5H53.125Z" transform="translate(-48.29 -270.396)"/><path class="a" d="M358.5,304.138a2.306,2.306,0,0,1,3.124,0,4.176,4.176,0,1,0-3.124,0Zm3.124-3.1a.809.809,0,1,1-.821.809A.817.817,0,0,1,361.621,301.04Zm-3.124,0a.809.809,0,1,1-.821.809A.816.816,0,0,1,358.5,301.04Z" transform="translate(-330.289 -277.376)"/><path class="a" d="M129.572,50.519h3.907a.741.741,0,1,0,0-1.481h-3.907a.741.741,0,1,0,0,1.481Z" transform="translate(-119.761 -45.407)"/><path class="a" d="M129.572,90.515h3.907a.741.741,0,1,0,0-1.481h-3.907a.741.741,0,1,0,0,1.481Z" transform="translate(-119.761 -82.441)"/><path class="a" d="M41.481,14.758H29.873V9.626a2.348,2.348,0,0,0-2.351-2.34h-3.79V5.062H26.9a.741.741,0,0,0,.741-.741V2.68A2.691,2.691,0,0,0,24.947,0H14.176a1.685,1.685,0,0,0-1.686,1.679V7.286H8.7a2.349,2.349,0,0,0-2.353,2.34v9.33a.741.741,0,1,0,1.481,0V9.626A.867.867,0,0,1,8.7,8.767h3.788v1.689H10.923a.741.741,0,0,0,0,1.481H25.1a.741.741,0,0,0,0-1.481H23.732V8.767h3.79a.865.865,0,0,1,.87.859V35.574a.865.865,0,0,1-.87.859H8.7a.867.867,0,0,1-.872-.859V25.925a.741.741,0,0,0-1.481,0v9.649A2.349,2.349,0,0,0,8.7,37.914H27.522a2.348,2.348,0,0,0,2.351-2.34V29.82H41.481a1.838,1.838,0,0,0,1.841-1.83v-11.4a1.838,1.838,0,0,0-1.841-1.83ZM23.732,2.936V2.68a1.215,1.215,0,0,1,2.43,0v.9h-2.43V2.936ZM22.251,2.68v7.775H13.97V1.679a.2.2,0,0,1,.205-.2h8.362a2.65,2.65,0,0,0-.286,1.2Zm19.59,25.31a.359.359,0,0,1-.36.349H29.873V19.48H41.841Zm0-9.991H29.873v-1.76H41.481a.359.359,0,0,1,.36.349Z" transform="translate(-6.348 0)"/><path class="a" d="M7.089,296.648a.741.741,0,0,0,.741-.741v0a.741.741,0,1,0-.741.745Z" transform="translate(-6.348 -273.308)"/></g></g></svg>