<svg xmlns="http://www.w3.org/2000/svg" width="35.756" height="30.414" viewBox="0 0 35.756 30.414"><defs><style>.a{fill:#5e5e5e;}</style></defs><g transform="translate(0 -9.567)"><path class="a" d="M35.512,22.51,13.723,9.93a2.727,2.727,0,0,0-3.72,1L7.495,15.272l-1.67,2.892a2.727,2.727,0,0,0,1,3.721L14.293,26.2l-1.162,1.981a1.753,1.753,0,0,1-1.506.863H7.263V25.717a.489.489,0,0,0-.489-.489H4.12V24.6a2.167,2.167,0,0,0-2.165-2.165H.489A.489.489,0,0,0,0,22.921v16.57a.489.489,0,0,0,.489.489H1.955A2.167,2.167,0,0,0,4.12,37.816V36.263H6.774a.489.489,0,0,0,.489-.489v-2.4h4.362a6.1,6.1,0,0,0,5.241-3l1.177-2.007,4.1,2.364a2.71,2.71,0,0,0,1.357.366A2.738,2.738,0,0,0,24.2,31a2.707,2.707,0,0,0,1.183-.667,4.073,4.073,0,0,0,1.709.378,4.138,4.138,0,0,0,1.072-.142A4.082,4.082,0,0,0,30.4,29.06l1,.578a.489.489,0,0,0,.668-.179l3.626-6.28a.489.489,0,0,0-.178-.668ZM3.143,37.816A1.188,1.188,0,0,1,1.955,39H.978V23.41h.978A1.188,1.188,0,0,1,3.143,24.6Zm3.143-2.531H4.12V26.206H6.285Zm9.737-5.41a5.117,5.117,0,0,1-4.4,2.519H7.263V30.019h4.362a2.734,2.734,0,0,0,2.35-1.346l1.166-1.987L17.2,27.874Zm6.6.005L7.311,21.038a1.748,1.748,0,0,1-.639-2.385L8.1,16.184l14.037,8.1,4.3,2.485-1.425,2.47,0,0a1.725,1.725,0,0,1-.123.182v0A1.748,1.748,0,0,1,22.627,29.88Zm5.29-.257a3.116,3.116,0,0,1-1.938-.1l1.305-2.261,2.261,1.305a3.116,3.116,0,0,1-1.629,1.058Zm3.546-1.078L28.3,26.72l-.954-.551L16.555,19.938l-7.969-4.6,2.264-3.922a1.748,1.748,0,0,1,2.385-.639L34.6,23.113Z" transform="translate(0 0)"/><path class="a" d="M102.729,58.943a1.869,1.869,0,0,0,.937.253,1.882,1.882,0,1,0-.937-.253Zm.159-2.079a.9.9,0,0,1,.548-.419.9.9,0,1,1-.548.42Z" transform="translate(-73.354 -33.055)"/><path class="a" d="M33.274,44.133,29.268,41.82a.489.489,0,1,0-.489.847l4.007,2.313a.489.489,0,0,0,.488-.846Z" transform="translate(-20.564 -23.196)"/></g></svg>