<svg xmlns="http://www.w3.org/2000/svg" width="36.147" height="36.146" viewBox="0 0 36.147 36.146"><defs><style>.a{fill:#fff;}</style></defs><g transform="translate(0 -0.003)"><path class="a" d="M36.146,1.133A1.13,1.13,0,0,0,35.016,0H1.129A1.13,1.13,0,0,0,0,1.133v9.037c0,.38-.02.227,2.259,4.785v5.381a15.814,15.814,0,1,0,31.628,0V14.954c2.3-4.607,2.227-4.384,2.254-4.679.008-.087.005.5.005-9.143ZM2.259,2.262H33.887V9.04H2.259Zm29.8,11.3H4.087L2.957,11.3H33.189ZM11.323,32.092c-.042-.024-.028.365-.028-4.98a6.777,6.777,0,1,1,13.555,0v4.964a13.568,13.568,0,0,1-13.527.016Zm20.3-11.757a13.494,13.494,0,0,1-4.518,10.106V27.113a9.037,9.037,0,1,0-18.073,0v3.329A13.494,13.494,0,0,1,4.518,20.335V15.817h27.11Z" transform="translate(0)"/><path class="a" d="M201.036,324.521a4.518,4.518,0,1,0-4.518,4.518A4.523,4.523,0,0,0,201.036,324.521Zm-6.777,0a2.259,2.259,0,1,1,2.259,2.259A2.262,2.262,0,0,1,194.259,324.521Z" transform="translate(-178.445 -297.409)"/></g></svg>