<svg xmlns="http://www.w3.org/2000/svg" width="31.674" height="31.673" viewBox="0 0 31.674 31.673"><defs><style>.a{fill:#5e5e5e;}</style></defs><g transform="translate(0 -0.001)"><g transform="translate(3.712 6.188)"><path class="a" d="M60.626,100.008a.618.618,0,1,0,.618.618A.617.617,0,0,0,60.626,100.008Z" transform="translate(-60.008 -100.008)"/></g><g transform="translate(2.474 2.475)"><path class="a" d="M48.659,40a8.662,8.662,0,0,0-5.548,2.015.619.619,0,1,0,.794.949,7.394,7.394,0,1,1-2.424,3.8.619.619,0,1,0-1.2-.316A8.661,8.661,0,1,0,48.659,40Z" transform="translate(-39.998 -40)"/></g><g transform="translate(0 0.001)"><g transform="translate(0 0)"><path class="a" d="M30.766,26.394,23.913,19.54a1.859,1.859,0,0,0-2.112-.362l-1.59-1.59a11.015,11.015,0,0,0,2.059-6.452A11.135,11.135,0,1,0,11.135,22.271a11.014,11.014,0,0,0,6.452-2.059l1.59,1.59a1.856,1.856,0,0,0,.363,2.113l6.853,6.853a3.093,3.093,0,1,0,4.374-4.373Zm-19.632-5.36a9.9,9.9,0,1,1,9.9-9.9A9.909,9.909,0,0,1,11.135,21.034Zm7.424-1.6a11.227,11.227,0,0,0,.875-.875l1.418,1.418-.875.875ZM29.891,29.893a1.853,1.853,0,0,1-2.624,0L20.414,23.04a.619.619,0,0,1,0-.875l1.749-1.749h0a.62.62,0,0,1,.875,0l6.853,6.854A1.853,1.853,0,0,1,29.891,29.893Z" transform="translate(0 -0.001)"/></g></g><g transform="translate(6.186 4.95)"><path class="a" d="M104.946,80A4.954,4.954,0,0,0,100,84.948c0,2.208,3.085,5.787,4.507,7.238a.619.619,0,0,0,.883,0c1.465-1.494,4.507-5.036,4.507-7.238A4.954,4.954,0,0,0,104.946,80Zm0,10.855c-1.337-1.448-3.711-4.345-3.711-5.906a3.712,3.712,0,1,1,7.423,0C108.657,86.507,106.283,89.4,104.946,90.854Z" transform="translate(-99.997 -79.999)"/></g><g transform="translate(8.66 7.424)"><path class="a" d="M142.47,120a2.474,2.474,0,1,0,2.474,2.474A2.477,2.477,0,0,0,142.47,120Zm0,3.712a1.237,1.237,0,1,1,1.237-1.237A1.239,1.239,0,0,1,142.47,123.71Z" transform="translate(-139.996 -119.998)"/></g></g></svg>