<svg xmlns="http://www.w3.org/2000/svg" width="13.889" height="13.889" viewBox="0 0 13.889 13.889"><g transform="translate(359 223.484)"><g transform="translate(-359 -223.484)"><circle cx="0.678" cy="0.678" r="0.678" transform="translate(6.266 9.589)"/><path d="M6.944,0a6.944,6.944,0,1,0,6.944,6.944A6.941,6.941,0,0,0,6.944,0Zm0,12.8A5.859,5.859,0,1,1,12.8,6.944,5.856,5.856,0,0,1,6.944,12.8Z"/><path d="M178.17,128.5a2.173,2.173,0,0,0-2.17,2.17.543.543,0,0,0,1.085,0,1.085,1.085,0,1,1,1.085,1.085.543.543,0,0,0-.543.543v1.356a.543.543,0,0,0,1.085,0v-.882a2.17,2.17,0,0,0-.543-4.272Z" transform="translate(-171.226 -125.014)"/></g></g></svg>