<svg xmlns="http://www.w3.org/2000/svg" width="31.711" height="31.711" viewBox="0 0 31.711 31.711"><defs><style>.a{fill:#5e5e5e;}</style></defs><g transform="translate(0)"><path class="a" d="M29.463,12.713H27.208a.557.557,0,0,1-.526-.391A11.353,11.353,0,0,0,26,10.683a.546.546,0,0,1,.107-.634L27.7,8.456a2.251,2.251,0,0,0,0-3.18L26.435,4.012a2.251,2.251,0,0,0-3.18,0L21.663,5.6a.546.546,0,0,1-.635.107,11.353,11.353,0,0,0-1.64-.681A.557.557,0,0,1,19,4.5V2.249A2.251,2.251,0,0,0,16.75,0H14.962a2.251,2.251,0,0,0-2.249,2.249V4.5a.557.557,0,0,1-.391.526,11.353,11.353,0,0,0-1.64.681.545.545,0,0,1-.634-.107L8.456,4.012a2.251,2.251,0,0,0-3.18,0L4.012,5.276a2.251,2.251,0,0,0,0,3.18L5.6,10.048a.546.546,0,0,1,.107.635,11.353,11.353,0,0,0-.681,1.64.557.557,0,0,1-.526.391H2.249A2.251,2.251,0,0,0,0,14.962V16.75A2.251,2.251,0,0,0,2.249,19H4.5a.557.557,0,0,1,.526.391,11.353,11.353,0,0,0,.681,1.64.546.546,0,0,1-.107.634L4.012,23.255a2.251,2.251,0,0,0,0,3.18L5.276,27.7a2.251,2.251,0,0,0,3.18,0l1.592-1.592A.546.546,0,0,1,10.683,26a11.36,11.36,0,0,0,1.64.681.557.557,0,0,1,.391.526v2.255a2.251,2.251,0,0,0,2.249,2.249H16.75A2.251,2.251,0,0,0,19,29.463V27.208a.557.557,0,0,1,.391-.527A11.355,11.355,0,0,0,21.029,26a.545.545,0,0,1,.634.107L23.255,27.7a2.251,2.251,0,0,0,3.18,0L27.7,26.435a2.251,2.251,0,0,0,0-3.18l-1.592-1.592A.546.546,0,0,1,26,21.028a11.353,11.353,0,0,0,.681-1.64A.557.557,0,0,1,27.208,19h2.255a2.251,2.251,0,0,0,2.249-2.249V14.962A2.251,2.251,0,0,0,29.463,12.713Zm1.01,4.037a1.011,1.011,0,0,1-1.01,1.01H27.208A1.793,1.793,0,0,0,25.5,19a10.113,10.113,0,0,1-.606,1.46,1.781,1.781,0,0,0,.334,2.074l1.592,1.592a1.011,1.011,0,0,1,0,1.428l-1.264,1.264a1.011,1.011,0,0,1-1.428,0l-1.592-1.592a1.781,1.781,0,0,0-2.074-.334A10.109,10.109,0,0,1,19,25.5a1.793,1.793,0,0,0-1.245,1.7v2.255a1.011,1.011,0,0,1-1.01,1.01H14.962a1.011,1.011,0,0,1-1.01-1.01V27.208a1.793,1.793,0,0,0-1.245-1.7,10.117,10.117,0,0,1-1.46-.607,1.781,1.781,0,0,0-2.074.334L7.58,26.824a1.011,1.011,0,0,1-1.428,0L4.888,25.559a1.011,1.011,0,0,1,0-1.428L6.48,22.539a1.781,1.781,0,0,0,.334-2.074A10.11,10.11,0,0,1,6.207,19,1.793,1.793,0,0,0,4.5,17.76H2.249a1.011,1.011,0,0,1-1.01-1.01V14.962a1.011,1.011,0,0,1,1.01-1.01H4.5a1.793,1.793,0,0,0,1.7-1.245,10.113,10.113,0,0,1,.606-1.46A1.781,1.781,0,0,0,6.48,9.173L4.888,7.58a1.011,1.011,0,0,1,0-1.428L6.152,4.888a1.011,1.011,0,0,1,1.428,0L9.172,6.48a1.781,1.781,0,0,0,2.074.334,10.11,10.11,0,0,1,1.46-.607,1.793,1.793,0,0,0,1.245-1.7V2.249a1.011,1.011,0,0,1,1.01-1.01H16.75a1.011,1.011,0,0,1,1.01,1.01V4.5A1.793,1.793,0,0,0,19,6.207a10.113,10.113,0,0,1,1.46.606,1.781,1.781,0,0,0,2.074-.334l1.592-1.592a1.011,1.011,0,0,1,1.428,0l1.264,1.264a1.011,1.011,0,0,1,0,1.428L25.231,9.173a1.781,1.781,0,0,0-.334,2.074,10.11,10.11,0,0,1,.607,1.46,1.793,1.793,0,0,0,1.7,1.245h2.255a1.011,1.011,0,0,1,1.01,1.01V16.75Z" transform="translate(0 0)"/><path class="a" d="M139.676,129.439a.619.619,0,0,0-.306.821,6.876,6.876,0,1,1-2.531-2.925.619.619,0,1,0,.672-1.04,8.113,8.113,0,1,0,2.986,3.451A.619.619,0,0,0,139.676,129.439Z" transform="translate(-117.258 -117.258)"/><path class="a" d="M180.955,176a4.955,4.955,0,1,0,4.955,4.955A4.961,4.961,0,0,0,180.955,176Zm0,8.671a3.716,3.716,0,1,1,3.716-3.716A3.72,3.72,0,0,1,180.955,184.671Z" transform="translate(-165.099 -165.099)"/><path class="a" d="M338.169,168.121h0a.619.619,0,1,0-.621-.619A.619.619,0,0,0,338.171,168.121Z" transform="translate(-316.643 -156.546)"/></g></svg>