<svg xmlns="http://www.w3.org/2000/svg" width="24.834" height="38.938" viewBox="0 0 24.834 38.938"><defs><style>.a{fill:#2d2d2d;}</style></defs><g transform="translate(-72.806)"><path class="a" d="M97.391,8.822a.861.861,0,0,0-.636-.249H92.026a9.572,9.572,0,0,0-1.77-3.982H96.7a.85.85,0,0,0,.884-.885V.885A.851.851,0,0,0,96.7,0H73.691a.852.852,0,0,0-.885.885V4.563a.9.9,0,0,0,.885.885H77.7q5.835,0,7.411,3.125H73.691a.852.852,0,0,0-.885.885v2.821a.852.852,0,0,0,.885.884H85.5a5.4,5.4,0,0,1-2.835,3.457,12.48,12.48,0,0,1-5.877,1.189h-3.1a.9.9,0,0,0-.885.885v3.513a.827.827,0,0,0,.249.608q5.309,5.641,13.772,15.791a.815.815,0,0,0,.691.332h5.393a.8.8,0,0,0,.8-.5.756.756,0,0,0-.111-.94q-8.074-9.9-12.693-14.823a14.026,14.026,0,0,0,7.633-3.042,10.339,10.339,0,0,0,3.567-6.471h4.646a.852.852,0,0,0,.885-.884V9.458A.861.861,0,0,0,97.391,8.822Z" transform="translate(0 0)"/></g></svg>