<?xml version="1.0" encoding="utf-8"?>
<!-- Generator: Adobe Illustrator 23.0.5, SVG Export Plug-In . SVG Version: 6.00 Build 0)  -->
<svg version="1.1" id="Layer_1" xmlns="http://www.w3.org/2000/svg" xmlns:xlink="http://www.w3.org/1999/xlink" x="0px" y="0px"
	 viewBox="0 0 200 200" style="enable-background:new 0 0 200 200;" xml:space="preserve">
<style type="text/css">
	.st0{fill:#1D2B44;}
	.st1{fill:#FFC738;}
</style>
<g>
	<path class="st0" d="M87.4,39.6l0,16.4c0,0-38.5,4.6-40.3,42.6c-1.4,33.8,0,59,0,59l11.1-13.7c0,0,73.2,12.2,76.8-38.9
		c10.3-0.2,17.5,0,17.5,0s-0.9,23.6-20.3,39.8S99,161.3,68.1,160.4C54.9,175.2,45.5,186,45.5,186s-11.3,6.7-15.3-5.6
		c0-17.8,0-88.4,0-88.4C30.1,93.8,30.2,43.7,87.4,39.6z"/>
	<path class="st1" d="M95.3,56.4c0,0,34.7,3,39.6,40.6c9.5-0.2,17.6,0,17.6,0s-4.6-49.8-57.2-57.5C95.2,50.1,95.3,56.4,95.3,56.4z"
		/>
	<path class="st1" d="M95.3,26c0,0,61.2-0.1,72.2,71.1c11,0,17.7,0,17.7,0S181,14.8,95.3,7.9C95.3,15.1,95.3,26,95.3,26z"/>
	<path class="st1" d="M120,99.7c0-15.7-12.7-28.4-28.4-28.4c-13.9,0-25.5,10-27.9,23.3l0,0l0,0c0,0.1,0,0.2-0.1,0.3
		c-0.3,1.5-0.4,3.1-0.4,4.7c0,0.7-0.8,18.1-0.8,18.1c-0.2,6.1,4.8,11.1,10.9,10.9l17.9-0.6c0.1,0,0.2,0,0.3,0c0.8,0,1.6,0,2.3-0.1
		l0.2,0l0,0C108.6,126.7,120,114.5,120,99.7z"/>
	<circle class="st0" cx="91.6" cy="100.2" r="13"/>
</g>
</svg>
