<?xml version="1.0" encoding="utf-8"?>
<!-- Generator: Adobe Illustrator 24.3.0, SVG Export Plug-In . SVG Version: 6.00 Build 0)  -->
<svg version="1.1" xmlns="http://www.w3.org/2000/svg" xmlns:xlink="http://www.w3.org/1999/xlink" x="0px" y="0px"
	 viewBox="0 0 200 200" style="enable-background:new 0 0 200 200;" xml:space="preserve">
<style type="text/css">
	.st0{display:none;}
	.st1{display:inline;}
	.st2{fill:#1D2B44;}
	.st3{fill:#FFC738;}
	.st4{fill:#FFFFFF;}
</style>
<g id="Layer_1" class="st0">
	<g transform="translate(0)" class="st1">
		<path class="st2" d="M95.24,97.35c-3.78-3.82-11.61-5.36-17.37-5.88c0.47,5.76,1.92,13.59,5.7,17.42c2.19,2.66,5.32,4.38,8.74,4.8
			l-2.15-2.15c-2.05-2.09-2.02-5.45,0.08-7.51c2.06-2.02,5.36-2.02,7.43,0l2.27,2.27c0-0.13,0-0.27,0-0.41
			C99.42,102.58,97.76,99.56,95.24,97.35z"/>
		<path class="st2" d="M110.1,62.57c2.93,0,5.31-2.38,5.31-5.31c0,0,0,0,0,0v-5.61h11.61c2.93,0,5.31-2.38,5.31-5.31
			c0-2.93-2.38-5.3-5.31-5.31h-11.61V28.35h11.61c2.93,0,5.31-2.38,5.31-5.31c0-2.93-2.38-5.31-5.31-5.31h-11.61v-5.61
			c0-2.93-2.38-5.31-5.31-5.31s-5.31,2.38-5.31,5.31v45.12c-0.01,2.93,2.36,5.31,5.29,5.32C110.09,62.57,110.1,62.57,110.1,62.57z"
			/>
		<path class="st2" d="M180.8,115.44c-18.86-6.13-42.84-25.49-54.37-34.8c-1.25-1.01-2.36-1.91-3.31-2.66
			c-6.47-5.15-14.5-7.95-22.76-7.97H60.54c-14.76,0-28.73,6.71-37.96,18.23l-0.13-40.23c0.11-4.52,3.85-8.1,8.37-8.01h31.29v3.62
			c0,6.46,4.86,11.9,11.28,12.62l20.79,2.34V10.8l-20.79,2.34c-6.42,0.72-11.28,6.16-11.28,12.62v3.62H30.83
			c-10.39-0.09-18.88,8.25-18.99,18.64v106.32c0.01,4.74,3.54,8.73,8.24,9.32c-1.32-20.48,14.22-38.15,34.7-39.46
			s38.15,14.22,39.46,34.7c0.1,1.61,0.1,3.23,0,4.84H104c-1.35-20.48,14.15-38.17,34.63-39.52s38.17,14.15,39.52,34.63
			c0.11,1.63,0.11,3.26,0,4.89h5.45c5.18-0.01,9.39-4.21,9.39-9.39v-22.08C193.03,124.6,188.1,117.8,180.8,115.44L180.8,115.44z
			 M109.4,122.93c-2.07,2.07-5.43,2.07-7.51,0l-1.05-1.05c-2.54,1.36-5.37,2.08-8.25,2.08c-6.38-0.29-12.37-3.16-16.58-7.95
			c-4.69-5.42-7.55-12.18-8.19-19.32c-0.56-3.73-0.8-7.49-0.74-11.26c0.09-2.81,2.37-5.07,5.18-5.13
			c2.14-0.05,21.17-0.21,30.52,9.24c4.32,4,7.06,9.42,7.71,15.27c0.24,3.34-0.49,6.68-2.1,9.62l1,1
			C111.47,117.49,111.48,120.85,109.4,122.93C109.41,122.92,109.4,122.92,109.4,122.93z"/>
	</g>
	<g transform="translate(5.359 36.542)" class="st1">
		<path class="st2" d="M65.23,102.03c-12.64-7.41-28.9-3.17-36.31,9.47c-7.41,12.64-3.17,28.9,9.47,36.31
			c12.64,7.41,28.9,3.17,36.31-9.47c1.51-2.58,2.58-5.4,3.15-8.34C80,118.95,74.94,107.74,65.23,102.03z M67.43,127.97
			c-1.69,8.62-10.04,14.24-18.66,12.55c-8.62-1.69-14.24-10.04-12.55-18.66c1.69-8.62,10.04-14.24,18.66-12.55
			c1.76,0.34,3.44,0.98,4.98,1.89C65.68,114.63,68.71,121.34,67.43,127.97L67.43,127.97z"/>
		<path class="st3" d="M54.5,120.35c-2.52-1.49-5.78-0.65-7.27,1.87c-1.49,2.52-0.65,5.78,1.87,7.27c2.52,1.49,5.78,0.65,7.27-1.87
			c0.31-0.52,0.53-1.09,0.64-1.69C57.42,123.72,56.42,121.5,54.5,120.35z"/>
		<g transform="translate(23.94)">
			<path class="st2" d="M125.21,102.03c-12.64-7.41-28.9-3.17-36.31,9.47c-7.41,12.64-3.17,28.9,9.47,36.31
				c12.64,7.41,28.9,3.17,36.31-9.47c1.51-2.58,2.58-5.4,3.15-8.34C139.98,118.95,134.92,107.74,125.21,102.03z M127.41,127.97
				c-1.69,8.62-10.04,14.24-18.66,12.55c-8.62-1.69-14.24-10.04-12.55-18.66c1.69-8.62,10.04-14.24,18.66-12.55
				c1.76,0.34,3.44,0.98,4.98,1.89C125.66,114.63,128.69,121.34,127.41,127.97L127.41,127.97z"/>
			<path class="st3" d="M114.48,120.35c-2.52-1.49-5.78-0.65-7.27,1.87c-1.49,2.52-0.65,5.78,1.87,7.27
				c2.52,1.49,5.78,0.65,7.27-1.87c0.31-0.52,0.53-1.09,0.64-1.69C117.41,123.72,116.4,121.5,114.48,120.35z"/>
		</g>
	</g>
</g>
<g id="Layer_2" class="st0">
	<g transform="translate(-21 -145)" class="st1">
		<path class="st2" d="M83.44,202.32l-26.46-0.02h-0.04c-5.4-0.02-9.8,4.34-9.83,9.74c0,0.03,0,0.07,0,0.1v19.47h36.32V202.32z"/>
		<path class="st2" d="M171.84,231.49l-19.08-23.73c-2.66-3.31-6.68-5.23-10.92-5.24l-15.88-0.06v29.13h45.98
			C171.9,231.61,171.87,231.53,171.84,231.49z"/>
		<circle class="st2" cx="82.08" cy="277.77" r="16.23"/>
		<circle class="st2" cx="179.68" cy="277.77" r="16.23"/>
		<path class="st2" d="M88.39,231.61H121v-29.15l-32.61-0.12V231.61z"/>
		<path class="st2" d="M204.82,236.56H183.3c-0.54,0-1.08-0.04-1.62-0.1v0.1h-55.72v40.45h32.57c0.43-11.68,10.25-20.8,21.94-20.37
			c11.08,0.41,19.96,9.3,20.37,20.37H218v-27.4C217.94,242.38,212.05,236.55,204.82,236.56z"/>
		<path class="st2" d="M47.11,277.01h13.81c0.43-11.68,10.25-20.8,21.94-20.37c11.08,0.41,19.96,9.3,20.37,20.37H121v-40.45H47.11
			V277.01z"/>
		<path class="st3" d="M24,232.43h10.73v40.04H24V232.43z"/>
	</g>
</g>
<g id="Layer_3" class="st0">
	<g transform="translate(59.716 24.827)" class="st1">
		<g transform="translate(0 0)">
			<path class="st4" d="M96.47,80.7c8.88,0,16.08,7.2,16.08,16.08c0,8.88-7.2,16.08-16.08,16.08s-16.08-7.2-16.08-16.08
				C80.39,87.91,87.59,80.71,96.47,80.7z M96.47,106.44c5.33,0,9.65-4.32,9.65-9.65c0-5.33-4.32-9.65-9.65-9.65
				c-5.33,0-9.65,4.32-9.65,9.65c0,0,0,0,0,0C86.82,102.11,91.14,106.43,96.47,106.44z"/>
		</g>
	</g>
	<g transform="translate(0 0)" class="st1">
		<path class="st4" d="M8.21,105.53v-19.3c0-1.39,0.89-2.61,2.2-3.05l18.15-6.05C35.4,65.55,44.8,54.53,65.56,50.9l0.12-0.02
			c38.35-5.3,67.14,3.35,85.62,25.72c13.76,0.2,27.8,3.07,36.06,8.37c4.25,2.81,6.88,7.5,7.05,12.59l0.37,7.99
			c1.78,0,3.22,1.44,3.22,3.22v12.87c0,1.78-1.44,3.22-3.22,3.22h-12.87c-1.79-0.01-3.22-1.47-3.22-3.25c0-0.02,0-0.03,0-0.05
			c-0.27-12.43-10.57-22.29-23-22.02c-12.08,0.26-21.8,10.02-22.02,22.1c0.17,1.61-0.99,3.05-2.6,3.22c-0.2,0.02-0.41,0.02-0.62,0
			H72.55c-1.79-0.01-3.22-1.47-3.22-3.25c0-0.02,0-0.03,0-0.05c-0.27-12.43-10.57-22.29-23-22.02c-12.08,0.26-21.8,10.02-22.02,22.1
			c0.17,1.61-0.99,3.05-2.6,3.22c-0.2,0.02-0.41,0.02-0.62,0H8.22c-1.78,0-3.22-1.44-3.22-3.22c0,0,0-0.01,0-0.01v-12.87
			C5,106.97,6.44,105.53,8.21,105.53z M95.06,74.97c0,0.89,0.72,1.61,1.61,1.61h41.95c0.89,0,1.61-0.73,1.61-1.63
			c0-0.46-0.2-0.9-0.54-1.2c-11.16-10.18-25.36-15.99-42.85-17.54c-0.9-0.07-1.69,0.6-1.77,1.5c0,0.04,0,0.08-0.01,0.12L95.06,74.97
			z M56.42,74.99c0.01,0.88,0.73,1.58,1.61,1.58h29c0.89,0,1.61-0.72,1.61-1.61V57.4c0.01-0.89-0.71-1.62-1.6-1.62
			c-6.83,0.01-13.65,0.5-20.42,1.46c-3.16,0.54-6.26,1.36-9.28,2.45c-0.64,0.24-1.06,0.86-1.04,1.54L56.42,74.99z M39.63,76.57h8.75
			c0.89,0,1.61-0.72,1.61-1.61c0-0.01,0-0.01,0-0.02l-0.08-8.72c-0.02-0.9-0.76-1.61-1.65-1.59c-0.34,0.01-0.67,0.12-0.95,0.33
			c-3.42,2.54-6.43,5.57-8.95,9c-0.55,0.71-0.42,1.72,0.29,2.27C38.93,76.46,39.27,76.58,39.63,76.57L39.63,76.57z"/>
	</g>
	<g transform="translate(11.374 24.827)" class="st1">
		<g transform="translate(0 0)">
			<path class="st4" d="M35.44,80.7c8.88,0,16.08,7.2,16.08,16.08c0,8.88-7.2,16.08-16.08,16.08c-8.88,0-16.08-7.2-16.08-16.08
				C19.37,87.91,26.56,80.71,35.44,80.7z M35.44,106.44c5.33,0,9.65-4.32,9.65-9.65c0-5.33-4.32-9.65-9.65-9.65
				c-5.33,0-9.65,4.32-9.65,9.65c0,0,0,0,0,0C25.8,102.11,30.11,106.43,35.44,106.44z"/>
		</g>
	</g>
</g>
<g id="Layer_4" class="st0">
	<g transform="translate(55.801 32.056)" class="st1">
		<path class="st4" d="M118.51,84.34c11.43,0,20.69,9.26,20.69,20.69c0,11.43-9.26,20.69-20.69,20.69
			c-11.43,0-20.69-9.26-20.69-20.69C97.83,93.61,107.09,84.35,118.51,84.34z M118.51,119.35c7.91,0,14.33-6.41,14.33-14.33
			c0-7.91-6.41-14.33-14.33-14.33s-14.33,6.41-14.33,14.33l0,0C104.19,112.93,110.6,119.34,118.51,119.35z"/>
	</g>
	<g transform="translate(0 0)" class="st1">
		<path class="st4" d="M7.18,94.11h3.18v-4.77c0-0.88,0.71-1.59,1.59-1.59c0,0,0,0,0,0h54.12c0.88,0,1.59,0.71,1.59,1.59l0,0v2.8
			c0,0.42,0.17,0.83,0.46,1.13l11.34,11.34c0.6,0.6,0.93,1.4,0.93,2.25v11.14c0,0.88,0.71,1.59,1.59,1.59l0,0h19.1
			c0.88,0,1.59-0.71,1.59-1.59l0,0V51.13c0-0.88-0.71-1.59-1.59-1.59h0H69.26c-0.88,0-1.59,0.71-1.59,1.59c0,0,0,0,0,0.01v28.65
			c0,0.88-0.71,1.59-1.59,1.59h0H11.96c-0.88,0-1.59-0.71-1.59-1.59l0,0V59.09c0-14.19,11.9-26.4,25.47-28.65H137.7
			c0.11,0,0.21,0,0.32,0.02c20.31,2.06,32.85,36.93,37.08,50.92h3.99c1.76,0,3.18,1.43,3.18,3.18v9.55c0,1.76-1.43,3.18-3.18,3.18
			h-9.55v6.53c8.89-0.89,17.74,1.99,24.4,7.95c1.31,1.17,1.42,3.19,0.25,4.5s-3.19,1.42-4.5,0.25c-9.52-8.52-24.67-9.25-36.05,1.42
			c-4.49,4.7-6.81,11.06-6.39,17.55c0.01,1.76-1.41,3.19-3.16,3.2c0,0-0.01,0-0.01,0H61.05c-1.74,12.17-13.02,20.62-25.19,18.87
			c-9.78-1.4-17.47-9.09-18.87-18.87h-3.44c-1.76,0-3.18-1.43-3.18-3.18V113.2H7.18c-1.76,0-3.18-1.42-3.18-3.18V97.29
			C4,95.53,5.42,94.11,7.18,94.11C7.18,94.11,7.18,94.11,7.18,94.11z M152.73,77.72c0.25,0.85,1.14,1.35,1.99,1.1
			c0.09-0.03,0.18-0.06,0.26-0.1l9.45-4.72c0.73-0.37,1.07-1.23,0.78-1.99c-3.34-9.64-8.23-18.67-14.48-26.73
			c-0.53-0.61-1.43-0.73-2.1-0.27l-3.13,2.09c-0.57,0.38-0.83,1.08-0.65,1.75L152.73,77.72z M109.05,79.78
			c0,0.88,0.71,1.59,1.59,1.59c0,0,0,0,0.01,0h34.41c0.88,0,1.59-0.71,1.59-1.59c0-0.14-0.02-0.28-0.06-0.42l-7.81-28.65
			c-0.19-0.69-0.81-1.17-1.53-1.17h-26.6c-0.88,0-1.59,0.71-1.59,1.59c0,0,0,0,0,0.01L109.05,79.78z M39.02,151.41
			c7.56-0.01,14.07-5.33,15.59-12.73H23.42C24.94,146.08,31.46,151.4,39.02,151.41z"/>
	</g>
</g>
<g id="Layer_5">
	<path class="st2" d="M166.66,108.25c-4.24,0.03-8.42,1.07-12.17,3.05l-7.27-8.63c3.22-1.94,6.73-3.35,10.39-4.2
		c2.98-0.64,6.02-0.96,9.07-0.97c4.08,0.02,8-1.59,10.9-4.47c3.22-3.27,4.96-7.71,4.84-12.29C182.2,54.49,161,33.25,134.75,33h-6.07
		c-2.97,0-5.37,2.41-5.37,5.37s2.41,5.37,5.37,5.37l0,0h6.07c1.57,0.06,3.13,0.21,4.68,0.47v10.39c-3.07,0.33-6.06,1.19-8.84,2.54
		c-0.04-0.04-0.08-0.07-0.11-0.11c-4.45,2.08-8.24,5.33-10.97,9.42l-12.25,18.35c-0.84,1.26-2.16,2.11-3.66,2.34
		c-10.99,1.72-20.43,8.72-25.27,18.73c4.76,7.05,7.32,15.35,7.34,23.86h-11.1c0.26-18.07-14.17-32.93-32.25-33.2
		c-18.07-0.26-32.93,14.17-33.2,32.25C8.87,146.87,23.3,161.73,41.38,162c13.92,0.2,26.44-8.42,31.21-21.5h50.71
		c2.97,0,5.37-2.4,5.37-5.37c0,0,0,0,0-0.01c0.01-3.05,0.36-6.09,1.06-9.06c1.52-6.26,4.66-12,9.11-16.66l7.25,8.62
		c-4.05,4.78-6.28,10.83-6.31,17.09c0,14.84,12.03,26.87,26.87,26.87c14.84,0,26.87-12.03,26.87-26.87S181.5,108.24,166.66,108.25
		L166.66,108.25L166.66,108.25z M42.32,151.25c-11.87,0-21.5-9.63-21.5-21.5c0-11.87,9.63-21.5,21.5-21.5s21.5,9.63,21.5,21.5l0,0
		H47.7c-2.97,0-5.37-2.41-5.37-5.37c0-2.97-2.41-5.37-5.37-5.37c-2.97,0-5.37,2.41-5.37,5.37l0,0c0.01,8.9,7.22,16.11,16.12,16.12
		h13.13C57.02,147.13,49.97,151.22,42.32,151.25z M166.66,151.25c-8.9-0.01-16.11-7.22-16.12-16.12c0.01-3,0.86-5.93,2.46-8.47
		l9.46,11.83c1.86,2.32,5.25,2.69,7.57,0.83c2.32-1.86,2.69-5.25,0.83-7.57l-9.44-11.81c1.68-0.61,3.46-0.93,5.25-0.95
		c8.9,0,16.13,7.21,16.13,16.12s-7.21,16.13-16.12,16.13c0,0-0.01,0-0.01,0L166.66,151.25z"/>
	<path class="st2" d="M101.35,74.32l9.21-13.81c2.93-4.34,6.75-8.02,11.19-10.79c-5.95-3.84-12.86-5.91-19.94-5.96
		c-12.6,0.03-24.35,6.36-31.32,16.86l8.6,5.16C85.97,69.84,93.5,72.73,101.35,74.32z"/>
	<path class="st2" d="M73.54,74.99L39.06,54.5H15.45c-2.97,0-5.37,2.4-5.37,5.37c0,0,0,0,0,0.01c0.02,14.83,12.04,26.86,26.87,26.87
		c10.75,0,21.9,0.23,33.85,10.62c0.05-0.08,0.05-0.18,0.1-0.26c4.15-6.56,9.94-11.92,16.81-15.56
		C82.78,79.82,78.04,77.62,73.54,74.99z"/>
</g>
</svg>
