<?xml version="1.0" encoding="utf-8"?>
<!-- Generator: Adobe Illustrator 24.3.0, SVG Export Plug-In . SVG Version: 6.00 Build 0)  -->
<svg version="1.1" id="Layer_1" xmlns="http://www.w3.org/2000/svg" xmlns:xlink="http://www.w3.org/1999/xlink" x="0px" y="0px"
	 viewBox="0 0 200 200" style="enable-background:new 0 0 200 200;" xml:space="preserve">
<style type="text/css">
	.st0{fill:#1D2B44;}
</style>
<g transform="translate(0)">
	<path class="st0" d="M95.24,97.35c-3.78-3.82-11.61-5.36-17.37-5.88c0.47,5.76,1.92,13.59,5.7,17.42c2.19,2.66,5.32,4.38,8.74,4.8
		l-2.15-2.15c-2.05-2.09-2.02-5.45,0.08-7.51c2.06-2.02,5.36-2.02,7.43,0l2.27,2.27c0-0.13,0-0.27,0-0.41
		C99.42,102.58,97.76,99.56,95.24,97.35z"/>
	<path class="st0" d="M110.1,62.57c2.93,0,5.31-2.38,5.31-5.31c0,0,0,0,0,0v-5.61h11.61c2.93,0,5.31-2.38,5.31-5.31
		c0-2.93-2.38-5.3-5.31-5.31h-11.61V28.35h11.61c2.93,0,5.31-2.38,5.31-5.31c0-2.93-2.38-5.31-5.31-5.31h-11.61v-5.61
		c0-2.93-2.38-5.31-5.31-5.31s-5.31,2.38-5.31,5.31v45.12c-0.01,2.93,2.36,5.31,5.29,5.32C110.09,62.57,110.1,62.57,110.1,62.57z"/>
	<path class="st0" d="M180.8,115.44c-18.86-6.13-42.84-25.49-54.37-34.8c-1.25-1.01-2.36-1.91-3.31-2.66
		c-6.47-5.15-14.5-7.95-22.76-7.97H60.54c-14.76,0-28.73,6.71-37.96,18.23l-0.13-40.23c0.11-4.52,3.85-8.1,8.37-8.01h31.29v3.62
		c0,6.46,4.86,11.9,11.28,12.62l20.79,2.34V10.8l-20.79,2.34c-6.42,0.72-11.28,6.16-11.28,12.62v3.62H30.83
		c-10.39-0.09-18.88,8.25-18.99,18.64v106.32c0.01,4.74,3.54,8.73,8.24,9.32c-1.32-20.48,14.22-38.15,34.7-39.46
		s38.15,14.22,39.46,34.7c0.1,1.61,0.1,3.23,0,4.84H104c-1.35-20.48,14.15-38.17,34.63-39.52s38.17,14.15,39.52,34.63
		c0.11,1.63,0.11,3.26,0,4.89h5.45c5.18-0.01,9.39-4.21,9.39-9.39v-22.08C193.03,124.6,188.1,117.8,180.8,115.44L180.8,115.44z
		 M109.4,122.93c-2.07,2.07-5.43,2.07-7.51,0l-1.05-1.05c-2.54,1.36-5.37,2.08-8.25,2.08c-6.38-0.29-12.37-3.16-16.58-7.95
		c-4.69-5.42-7.55-12.18-8.19-19.32c-0.56-3.73-0.8-7.49-0.74-11.26c0.09-2.81,2.37-5.07,5.18-5.13c2.14-0.05,21.17-0.21,30.52,9.24
		c4.32,4,7.06,9.42,7.71,15.27c0.24,3.34-0.49,6.68-2.1,9.62l1,1C111.47,117.49,111.48,120.85,109.4,122.93
		C109.41,122.92,109.4,122.92,109.4,122.93z"/>
</g>
<g transform="translate(5.359 36.542)">
	<path class="st0" d="M65.23,102.03c-12.64-7.41-28.9-3.17-36.31,9.47c-7.41,12.64-3.17,28.9,9.47,36.31
		c12.64,7.41,28.9,3.17,36.31-9.47c1.51-2.58,2.58-5.4,3.15-8.34C80,118.95,74.94,107.74,65.23,102.03z M67.43,127.97
		c-1.69,8.62-10.04,14.24-18.66,12.55c-8.62-1.69-14.24-10.04-12.55-18.66c1.69-8.62,10.04-14.24,18.66-12.55
		c1.76,0.34,3.44,0.98,4.98,1.89C65.68,114.63,68.71,121.34,67.43,127.97L67.43,127.97z"/>
	<path class="st0" d="M54.5,120.35c-2.52-1.49-5.78-0.65-7.27,1.87c-1.49,2.52-0.65,5.78,1.87,7.27c2.52,1.49,5.78,0.65,7.27-1.87
		c0.31-0.52,0.53-1.09,0.64-1.69C57.42,123.72,56.42,121.5,54.5,120.35z"/>
	<g transform="translate(23.94)">
		<path class="st0" d="M125.21,102.03c-12.64-7.41-28.9-3.17-36.31,9.47c-7.41,12.64-3.17,28.9,9.47,36.31
			c12.64,7.41,28.9,3.17,36.31-9.47c1.51-2.58,2.58-5.4,3.15-8.34C139.98,118.95,134.92,107.74,125.21,102.03z M127.41,127.97
			c-1.69,8.62-10.04,14.24-18.66,12.55c-8.62-1.69-14.24-10.04-12.55-18.66c1.69-8.62,10.04-14.24,18.66-12.55
			c1.76,0.34,3.44,0.98,4.98,1.89C125.66,114.63,128.69,121.34,127.41,127.97L127.41,127.97z"/>
		<path class="st0" d="M114.48,120.35c-2.52-1.49-5.78-0.65-7.27,1.87c-1.49,2.52-0.65,5.78,1.87,7.27
			c2.52,1.49,5.78,0.65,7.27-1.87c0.31-0.52,0.53-1.09,0.64-1.69C117.41,123.72,116.4,121.5,114.48,120.35z"/>
	</g>
</g>
</svg>
