<svg xmlns="http://www.w3.org/2000/svg" width="65.471" height="67.135" viewBox="0 0 65.471 67.135"><g transform="translate(-75.348 -90)"><g transform="translate(75.348 90)"><path d="M52.955,196.733H80.111a1.311,1.311,0,0,0,1.311-1.311V187.43a1.311,1.311,0,0,0-1.311-1.311H52.955a1.311,1.311,0,0,0-1.311,1.311v7.991a1.311,1.311,0,0,0,1.311,1.311Zm1.311-7.991H78.8v5.369H54.266Z" transform="translate(-45.705 -161.714)"/><path d="M51.644,313.658a1.311,1.311,0,0,0,1.311,1.311H80.111a1.311,1.311,0,0,0,1.311-1.311V293.331a1.311,1.311,0,0,0-1.311-1.311H52.955a1.311,1.311,0,0,0-1.311,1.311Zm20.725-19.016H78.8V298.8H72.369Zm0,6.776H78.8v4.153H72.369Zm0,6.776H78.8v4.153H72.369ZM63.32,294.643h6.427V298.8H63.32Zm0,6.776h6.427v4.153H63.32Zm0,6.776h6.427v4.153H63.32Zm-9.053-13.551H60.7V298.8H54.266Zm0,6.776H60.7v4.153H54.266Zm0,6.776H60.7v4.153H54.266Z" transform="translate(-45.705 -253.729)"/><path d="M360.272,307.668a4.073,4.073,0,0,0,2.765-1.079,4.054,4.054,0,1,0,0-5.951,4.064,4.064,0,1,0-2.765,7.03Zm5.531-5.486a1.432,1.432,0,1,1-1.454,1.432A1.447,1.447,0,0,1,365.8,302.182Zm-5.531,0a1.432,1.432,0,1,1-1.454,1.432A1.445,1.445,0,0,1,360.272,302.182Z" transform="translate(-310.322 -260.28)"/><path d="M130.142,51.66h6.917a1.311,1.311,0,0,0,0-2.622h-6.917a1.311,1.311,0,1,0,0,2.622Z" transform="translate(-112.771 -42.608)"/><path d="M130.142,91.656h6.917a1.311,1.311,0,1,0,0-2.622h-6.917a1.311,1.311,0,1,0,0,2.622Z" transform="translate(-112.771 -77.36)"/><path d="M68.559,26.133H48.005V17.044A4.158,4.158,0,0,0,43.842,12.9H37.131V8.963h5.614a1.311,1.311,0,0,0,1.311-1.311V4.746A4.765,4.765,0,0,0,39.282,0H20.209a2.983,2.983,0,0,0-2.986,2.973V12.9H10.515a4.16,4.16,0,0,0-4.167,4.144V33.566a1.311,1.311,0,0,0,2.622,0V17.044a1.534,1.534,0,0,1,1.544-1.521h6.708v2.99H14.449a1.311,1.311,0,1,0,0,2.622H39.555a1.311,1.311,0,0,0,0-2.622H37.131v-2.99h6.712a1.532,1.532,0,0,1,1.54,1.521V62.992a1.533,1.533,0,0,1-1.54,1.521H10.515A1.534,1.534,0,0,1,8.97,62.992V45.906a1.311,1.311,0,1,0-2.622,0V62.992a4.16,4.16,0,0,0,4.167,4.144H43.842a4.158,4.158,0,0,0,4.163-4.144V52.8H68.559a3.254,3.254,0,0,0,3.26-3.24V29.373a3.254,3.254,0,0,0-3.26-3.24ZM37.131,5.2V4.745a2.151,2.151,0,0,1,4.3,0v1.6h-4.3V5.2Zm-2.622-.453V18.513H19.845V2.973a.362.362,0,0,1,.364-.35H35.014a4.692,4.692,0,0,0-.506,2.123ZM69.2,49.563a.636.636,0,0,1-.637.618H48.005V34.494H69.2Zm0-17.691H48.005V28.755H68.559a.636.636,0,0,1,.637.618Z" transform="translate(-6.348 0)"/><path d="M7.659,297.791A1.311,1.311,0,0,0,8.97,296.48v-.007a1.311,1.311,0,1,0-1.311,1.319Z" transform="translate(-6.348 -256.462)"/></g></g></svg>