<svg xmlns="http://www.w3.org/2000/svg" width="42.141" height="41.18" viewBox="0 0 42.141 41.18"><defs><style>.a{fill:#fff;}</style></defs><g transform="translate(0 -5.836)"><g transform="translate(10.447 12.265)"><path class="a" d="M129.864,83.952H127.5a.519.519,0,0,0-.576.471h0v7.645c0,.318.376.482.765.482s.765-.165.765-.482V89.339h1.317a2.456,2.456,0,0,0,2.764-2.67V86.6A2.4,2.4,0,0,0,129.864,83.952ZM131,86.787c0,.917-.47,1.353-1.235,1.353h-1.317V85.293h1.317c.765,0,1.235.435,1.235,1.353Z" transform="translate(-126.923 -83.952)"/></g><g transform="translate(0 5.836)"><path class="a" d="M39.54,5.836H35.794a.6.6,0,1,0,0,1.2H39.54a1.4,1.4,0,0,1,1.4,1.4V36.672a1.4,1.4,0,0,1-1.4,1.4H34.771V31.379h2.181a1.506,1.506,0,0,0,1.5-1.5v-.969a1.506,1.506,0,0,0-1.5-1.5H5.189a1.506,1.506,0,0,0-1.5,1.5v.968a1.506,1.506,0,0,0,1.5,1.5H7.37v6.691H2.6a1.4,1.4,0,0,1-1.4-1.4V8.437a1.4,1.4,0,0,1,1.4-1.4H31.888a.6.6,0,0,0,0-1.2H2.6A2.6,2.6,0,0,0,0,8.437V36.672a2.6,2.6,0,0,0,2.6,2.6H7.37V45.21a1.36,1.36,0,0,0,.764,1.218l.938.453a1.345,1.345,0,0,0,1.176,0h0l2.2-1.062a.149.149,0,0,1,.131,0l2.2,1.062a1.345,1.345,0,0,0,1.176,0l2.2-1.062a.149.149,0,0,1,.131,0l2.2,1.062a1.345,1.345,0,0,0,1.176,0l2.2-1.062a.149.149,0,0,1,.131,0l2.2,1.062a1.345,1.345,0,0,0,1.176,0l2.2-1.062a.15.15,0,0,1,.131,0l2.2,1.062a1.345,1.345,0,0,0,1.176,0l.939-.453a1.359,1.359,0,0,0,.764-1.218V39.272H39.54a2.6,2.6,0,0,0,2.6-2.6V8.437A2.6,2.6,0,0,0,39.54,5.836ZM7.37,30.177H5.189a.3.3,0,0,1-.3-.3v-.969a.3.3,0,0,1,.3-.3H7.37Zm26.2,15.032a.151.151,0,0,1-.085.135l-.939.453a.15.15,0,0,1-.131,0l-2.2-1.062a1.345,1.345,0,0,0-1.176,0L26.84,45.8a.149.149,0,0,1-.131,0l-2.2-1.062a1.345,1.345,0,0,0-1.176,0l-2.2,1.062a.15.15,0,0,1-.131,0l-2.2-1.062a1.345,1.345,0,0,0-1.176,0l-2.2,1.062a.15.15,0,0,1-.131,0l-2.2-1.062a1.345,1.345,0,0,0-1.176,0L9.726,45.8a.15.15,0,0,1-.131,0l-.938-.453a.151.151,0,0,1-.085-.135V28.6h25V45.21Zm1.2-16.606h2.181a.3.3,0,0,1,.3.3v.969a.3.3,0,0,1-.3.3H34.771Z" transform="translate(0 -5.836)"/></g><g transform="translate(11.536 30.914)"><path class="a" d="M158.628,310.523H140.761a.6.6,0,1,0,0,1.2h17.867a.6.6,0,1,0,0-1.2Z" transform="translate(-140.16 -310.523)"/></g><g transform="translate(17.549 34.519)"><path class="a" d="M225.669,354.328H213.815a.6.6,0,1,0,0,1.2h11.854a.6.6,0,0,0,0-1.2Z" transform="translate(-213.214 -354.328)"/></g><g transform="translate(11.536 34.519)"><path class="a" d="M142.867,354.328h-2.106a.6.6,0,1,0,0,1.2h2.106a.6.6,0,1,0,0-1.2Z" transform="translate(-140.16 -354.328)"/></g><g transform="translate(2.957 9.866)"><g transform="translate(0 0)"><path class="a" d="M54.443,54.794H37.709a1.79,1.79,0,0,0-1.788,1.788V67.259a1.79,1.79,0,0,0,1.788,1.788H54.443a1.79,1.79,0,0,0,1.788-1.788V56.582A1.79,1.79,0,0,0,54.443,54.794Zm.586,12.465a.587.587,0,0,1-.586.586H37.709a.587.587,0,0,1-.586-.586V56.582A.587.587,0,0,1,37.709,56H54.443a.587.587,0,0,1,.586.586V67.259Z" transform="translate(-35.921 -54.794)"/></g></g><g transform="translate(25.279 9.866)"><g transform="translate(0 0)"><path class="a" d="M312.3,54.794h-4.152a1.022,1.022,0,0,0-1.021,1.021v4.152a1.022,1.022,0,0,0,1.021,1.021H312.3a1.022,1.022,0,0,0,1.021-1.021V55.815A1.022,1.022,0,0,0,312.3,54.794Zm-.181,4.992h-3.79V56h3.79Z" transform="translate(-307.131 -54.794)"/></g></g><g transform="translate(32.991 9.866)"><g transform="translate(0 0)"><path class="a" d="M406,54.794h-4.152a1.022,1.022,0,0,0-1.021,1.021v4.152a1.022,1.022,0,0,0,1.021,1.021H406a1.022,1.022,0,0,0,1.021-1.021V55.815A1.022,1.022,0,0,0,406,54.794Zm-.181,4.992h-3.79V56h3.79Z" transform="translate(-400.827 -54.794)"/></g></g><g transform="translate(25.279 17.925)"><path class="a" d="M312.3,152.709h-4.152a1.022,1.022,0,0,0-1.021,1.021v4.152a1.022,1.022,0,0,0,1.021,1.021H312.3a1.022,1.022,0,0,0,1.021-1.021V153.73A1.022,1.022,0,0,0,312.3,152.709Zm-.181,4.992h-3.79v-3.79h3.79Z" transform="translate(-307.131 -152.709)"/></g><g transform="translate(32.991 17.925)"><path class="a" d="M406,152.71h-4.152a1.022,1.022,0,0,0-1.021,1.021v4.152a1.022,1.022,0,0,0,1.021,1.021H406a1.022,1.022,0,0,0,1.021-1.021v-4.152A1.022,1.022,0,0,0,406,152.71Zm-.181,4.992h-3.79v-3.79h3.79Z" transform="translate(-400.827 -152.71)"/></g></g></svg>