<svg xmlns="http://www.w3.org/2000/svg" width="50.774" height="57.094" viewBox="0 0 50.774 57.094"><g transform="translate(-28.339)"><g transform="translate(28.339)"><g transform="translate(0)"><path d="M76.854,0H30.6a2.261,2.261,0,0,0-2.257,2.258V30.807a.84.84,0,1,0,1.68,0V2.258A.585.585,0,0,1,30.6,1.68H76.854a.585.585,0,0,1,.578.578v16.6a.84.84,0,0,0,1.68,0V2.258A2.261,2.261,0,0,0,76.854,0Z" transform="translate(-28.339 0)"/></g></g><g transform="translate(28.339 21.379)"><g transform="translate(0)"><path d="M78.273,191.722a.84.84,0,0,0-.84.84v13.16a.586.586,0,0,1-.578.578H69.506v-1.255h.153a2.174,2.174,0,0,0,2.171-2.171v-6.366a2.173,2.173,0,0,0-2.171-2.171H63.293a2.173,2.173,0,0,0-2.17,2.171v6.366a2.173,2.173,0,0,0,2.17,2.171h.2V206.3H30.6a.586.586,0,0,1-.577-.578V204.51a.84.84,0,0,0-1.68,0v1.212a2.261,2.261,0,0,0,2.257,2.258h32.9v2.089l-.531-.425a2.987,2.987,0,1,0-3.754,4.648l4.285,3.526c.1,1.071-.316,2.258.7,3.409a2.3,2.3,0,0,0-.525,1.463v2.659a2.088,2.088,0,0,0,2.086,2.086h9.535a2.088,2.088,0,0,0,2.086-2.086v-2.659a2.292,2.292,0,0,0-.409-1.309,2.78,2.78,0,0,0,.841-1.994v-7.457a2.8,2.8,0,0,0-2.792-2.792h-5.5v-1.158h7.349a2.261,2.261,0,0,0,2.258-2.258v-13.16A.84.84,0,0,0,78.273,191.722Zm-2.7,33.629h0a.293.293,0,0,1-.294.293H65.749a.294.294,0,0,1-.293-.293v-2.659a.518.518,0,0,1,.512-.512h9.1a.518.518,0,0,1,.511.512v2.659Zm-.567-14.419h0a1,1,0,0,1,1,1v7.457a1,1,0,0,1-1,1H66.284a1,1,0,0,1-1-1v-1.727a1.451,1.451,0,0,0-.531-1.124l-4.407-3.627a1.269,1.269,0,0,1-.453-.865,1.166,1.166,0,0,1,1.176-1.281,1.211,1.211,0,0,1,.766.278l1.083.867a1.444,1.444,0,0,0,1.539.176,1.487,1.487,0,0,0,.828-1.5c0-.07,0,.334,0-9.847a1.2,1.2,0,0,1,.393-.892,1.216,1.216,0,0,1,2.035.934v9.257a.9.9,0,0,0,.9.9ZM64.463,198.526a3.014,3.014,0,0,0-.97,2.209v2.63h-.2a.491.491,0,0,1-.49-.491v-6.366a.49.49,0,0,1,.49-.491h6.366a.491.491,0,0,1,.491.491v6.366a.491.491,0,0,1-.491.491h-.153v-2.588A3.012,3.012,0,0,0,64.463,198.526Z" transform="translate(-28.339 -191.722)"/></g></g><g transform="translate(32.318 24.361)"><path d="M66.833,218.464H65.619a1.6,1.6,0,0,0-1.6,1.6v1.213a1.6,1.6,0,0,0,1.6,1.6h1.213a1.6,1.6,0,0,0,1.6-1.6v-1.213A1.6,1.6,0,0,0,66.833,218.464Zm-.082,2.729H65.7v-1.049h1.049Z" transform="translate(-64.022 -218.464)"/></g><g transform="translate(38.447 24.361)"><g transform="translate(0)"><path d="M121.792,218.464h-1.213a1.6,1.6,0,0,0-1.6,1.6v1.213a1.6,1.6,0,0,0,1.6,1.6h1.213a1.6,1.6,0,0,0,1.6-1.6v-1.213A1.6,1.6,0,0,0,121.792,218.464Zm-.083,2.729h-1.047v-1.049h1.047Z" transform="translate(-118.981 -218.464)"/></g></g><g transform="translate(44.574 24.361)"><path d="M176.743,218.464H175.53a1.6,1.6,0,0,0-1.6,1.6v1.213a1.6,1.6,0,0,0,1.6,1.6h1.213a1.6,1.6,0,0,0,1.6-1.6v-1.213A1.6,1.6,0,0,0,176.743,218.464Zm-.083,2.729h-1.049v-1.049h1.049Z" transform="translate(-173.931 -218.464)"/></g><g transform="translate(50.703 24.361)"><path d="M231.7,218.464H230.49a1.6,1.6,0,0,0-1.6,1.6v1.213a1.6,1.6,0,0,0,1.6,1.6H231.7a1.6,1.6,0,0,0,1.6-1.6v-1.213A1.6,1.6,0,0,0,231.7,218.464Zm-.083,2.729h-1.049v-1.049h1.049Z" transform="translate(-228.891 -218.464)"/></g><g transform="translate(32.318 29.766)"><g transform="translate(0)"><path d="M66.832,266.935H65.618a1.6,1.6,0,0,0-1.6,1.6v1.213a1.6,1.6,0,0,0,1.6,1.6h1.213a1.6,1.6,0,0,0,1.6-1.6v-1.213A1.6,1.6,0,0,0,66.832,266.935Zm-.082,2.728H65.7v-1.047H66.75Z" transform="translate(-64.021 -266.935)"/></g></g><g transform="translate(38.447 29.766)"><g transform="translate(0)"><path d="M121.792,266.935h-1.213a1.6,1.6,0,0,0-1.6,1.6v1.213a1.6,1.6,0,0,0,1.6,1.6h1.213a1.6,1.6,0,0,0,1.6-1.6v-1.213A1.6,1.6,0,0,0,121.792,266.935Zm-.083,2.728h-1.047v-1.047h1.047Z" transform="translate(-118.981 -266.935)"/></g></g><g transform="translate(44.574 29.766)"><path d="M176.743,266.935H175.53a1.6,1.6,0,0,0-1.6,1.6v1.213a1.6,1.6,0,0,0,1.6,1.6h1.213a1.6,1.6,0,0,0,1.6-1.6v-1.213A1.6,1.6,0,0,0,176.743,266.935Zm-.083,2.728h-1.049v-1.047h1.049Z" transform="translate(-173.931 -266.935)"/></g><g transform="translate(50.703 29.766)"><path d="M231.7,266.935H230.49a1.6,1.6,0,0,0-1.6,1.6v1.213a1.6,1.6,0,0,0,1.6,1.6H231.7a1.6,1.6,0,0,0,1.6-1.6v-1.213A1.6,1.6,0,0,0,231.7,266.935Zm-.083,2.728h-1.049v-1.047h1.049Z" transform="translate(-228.891 -266.935)"/></g><g transform="translate(59.052 7.673)"><path d="M317.769,68.808H304.6a.84.84,0,0,0,0,1.68h13.17a.84.84,0,0,0,0-1.68Z" transform="translate(-303.759 -68.808)"/></g><g transform="translate(57.307 11.257)"><g transform="translate(0)"><path d="M305.611,100.945h-16.66a.84.84,0,0,0,0,1.68h16.66a.84.84,0,0,0,0-1.68Z" transform="translate(-288.111 -100.945)"/></g></g><g transform="translate(60.899 4.089)"><g transform="translate(0)"><path d="M330.641,36.671h-9.475a.84.84,0,0,0,0,1.68h9.475a.84.84,0,0,0,0-1.68Z" transform="translate(-320.326 -36.671)"/></g></g><g transform="translate(60.899 18.424)"><g transform="translate(0)"><path d="M330.641,165.221h-9.475a.84.84,0,1,0,0,1.68h9.475a.84.84,0,1,0,0-1.68Z" transform="translate(-320.326 -165.221)"/></g></g><g transform="translate(59.052 14.84)"><path d="M317.769,133.084H304.6a.84.84,0,0,0,0,1.68h13.17a.84.84,0,1,0,0-1.68Z" transform="translate(-303.759 -133.084)"/></g><g transform="translate(44.423 2.935)"><path d="M174.66,26.32a2.085,2.085,0,1,0,2.085,2.085A2.087,2.087,0,0,0,174.66,26.32Zm0,2.489a.4.4,0,1,1,.4-.4A.4.4,0,0,1,174.66,28.809Z" transform="translate(-172.575 -26.32)"/></g><g transform="translate(38.838 2.935)"><g transform="translate(0)"><path d="M124.572,26.32a2.085,2.085,0,1,0,2.085,2.085A2.087,2.087,0,0,0,124.572,26.32Zm0,2.489a.4.4,0,1,1,.4-.4A.4.4,0,0,1,124.572,28.809Z" transform="translate(-122.487 -26.32)"/></g></g><g transform="translate(31.805 8.634)"><g transform="translate(0)"><path d="M80.9,77.423H72.543a.84.84,0,0,0,0,1.68H80.9a.656.656,0,0,1,.656.656v9.275a.656.656,0,0,1-.656.656H61.753a.656.656,0,0,1-.656-.656V79.759a.657.657,0,0,1,.656-.656h7.429a.84.84,0,1,0,0-1.68H61.753a2.339,2.339,0,0,0-2.336,2.336v9.275a2.339,2.339,0,0,0,2.336,2.336H80.9a2.339,2.339,0,0,0,2.336-2.336V79.759A2.339,2.339,0,0,0,80.9,77.423Z" transform="translate(-59.417 -77.423)"/></g></g></g></svg>