<svg xmlns="http://www.w3.org/2000/svg" width="44.425" height="37.787" viewBox="0 0 44.425 37.787"><defs><style>.a{fill:#fff;}</style></defs><g transform="translate(0 -9.567)"><path class="a" d="M44.122,25.648,17.05,10.019a3.388,3.388,0,0,0-4.621,1.238l-3.117,5.4L7.237,20.248a3.388,3.388,0,0,0,1.239,4.623l9.282,5.358-1.443,2.461a2.178,2.178,0,0,1-1.871,1.072H9.024v-4.13a.607.607,0,0,0-.607-.607h-3.3v-.784a2.693,2.693,0,0,0-2.69-2.69H.607A.607.607,0,0,0,0,26.159V46.746a.607.607,0,0,0,.607.607H2.43a2.693,2.693,0,0,0,2.69-2.69V42.735h3.3a.607.607,0,0,0,.607-.607V39.142h5.419a7.578,7.578,0,0,0,6.512-3.729l1.462-2.493L27.5,35.857a3.367,3.367,0,0,0,1.686.455,3.4,3.4,0,0,0,.882-.117,3.363,3.363,0,0,0,1.47-.829,5.06,5.06,0,0,0,2.124.47A5.141,5.141,0,0,0,35,35.659a5.072,5.072,0,0,0,2.767-1.874l1.244.718a.607.607,0,0,0,.83-.222l4.505-7.8a.608.608,0,0,0-.221-.831ZM3.9,44.664A1.476,1.476,0,0,1,2.43,46.139H1.215V26.766H2.43A1.476,1.476,0,0,1,3.9,28.241Zm3.9-3.144H5.119V30.24h2.69Zm12.1-6.721a6.358,6.358,0,0,1-5.464,3.13H9.024v-2.95h5.419a3.4,3.4,0,0,0,2.919-1.672l1.449-2.468,2.555,1.475Zm8.206.007L9.084,23.819a2.172,2.172,0,0,1-.794-2.963l1.77-3.067L27.5,27.857l5.347,3.087-1.77,3.068,0,0a2.143,2.143,0,0,1-.153.226v0A2.171,2.171,0,0,1,28.113,34.8Zm6.573-.319a3.872,3.872,0,0,1-2.408-.127L33.9,31.55l2.809,1.622a3.872,3.872,0,0,1-2.024,1.314Zm4.406-1.34-3.928-2.268-1.185-.684-13.41-7.742-9.9-5.716,2.813-4.872a2.172,2.172,0,0,1,2.963-.793L42.988,26.4Z" transform="translate(0 0)"/><path class="a" d="M102.957,59.793a2.322,2.322,0,0,0,1.164.314,2.338,2.338,0,1,0-1.164-.314Zm.2-2.583a1.115,1.115,0,0,1,.681-.521,1.122,1.122,0,1,1-.68.522Z" transform="translate(-66.461 -29.948)"/><path class="a" d="M34.423,44.71l-4.977-2.874a.607.607,0,1,0-.607,1.052l4.978,2.874a.607.607,0,0,0,.606-1.052Z" transform="translate(-18.631 -21.016)"/></g></svg>