<svg xmlns="http://www.w3.org/2000/svg" width="57.88" height="67.429" viewBox="0 0 57.88 67.429"><g transform="translate(-36.251)"><path d="M36.251,0V9.877h1.975v-7.9H92.156v53.6h1.975V0Z"/><path d="M92.156,143.6H38.226V90H36.251v55.576h57.88V135.7H92.156Z" transform="translate(0 -78.146)"/><path d="M263.5,39.475h21.038V59.494H263.5v1.975h23.014V37.5H263.5Z" transform="translate(-197.321 -32.561)"/><path d="M73.751,61.469H96.765V59.494H75.726V39.475H96.765V37.5H73.751Z" transform="translate(-32.561 -32.561)"/><path d="M399.175,249.5h-5.926v5.926h5.926Zm-1.975,3.951h-1.975v-1.975H397.2Z" transform="translate(-309.983 -216.645)"/><path d="M339.176,249.5H333.25v5.926h5.926Zm-1.975,3.951h-1.975v-1.975H337.2Z" transform="translate(-257.885 -216.645)"/><path d="M279.176,249.5H273.25v5.926h5.926Zm-1.975,3.951h-1.976v-1.975H277.2Z" transform="translate(-205.787 -216.645)"/><path d="M393.249,315.429h5.926V309.5h-5.926Zm1.975-3.951H397.2v1.975h-1.975Z" transform="translate(-309.983 -268.743)"/><path d="M333.25,315.429h5.926V309.5H333.25Zm1.975-3.951H337.2v1.975h-1.975Z" transform="translate(-257.885 -268.743)"/><path d="M273.25,315.429h5.926V309.5H273.25Zm1.975-3.951H277.2v1.975h-1.976Z" transform="translate(-205.787 -268.743)"/><path d="M393.249,375.428h5.926V369.5h-5.926Zm1.975-3.951H397.2v1.975h-1.975Z" transform="translate(-309.983 -320.84)"/><path d="M333.25,375.428h5.926V369.5H333.25Zm1.975-3.951H337.2v1.975h-1.975Z" transform="translate(-257.885 -320.84)"/><path d="M273.25,375.428h5.926V369.5H273.25Zm1.975-3.951H277.2v1.975h-1.976Z" transform="translate(-205.787 -320.84)"/><path d="M73.751,259.381h1.975v-7.9H96.074v7.9h1.975V249.5h-24.3Z" transform="translate(-32.561 -216.645)"/><path d="M112.937,305.184h7.21V279.5h-16.4v25.68h7.21v-1.975h-5.235V281.479h12.445v21.729h-5.235Z" transform="translate(-58.61 -242.694)"/><path d="M273.25,435.427h21.73V429.5H285.1v1.975H293v1.975H275.225v-1.975h7.9V429.5H273.25Z" transform="translate(-205.787 -372.937)"/><path d="M66.251,467h1.975v1.975H66.251Z" transform="translate(-26.049 -405.498)"/><path d="M153.251,369.5h1.975v9.877h-1.975Z" transform="translate(-101.591 -320.838)"/><path d="M183.251,369.5h1.975v9.877h-1.975Z" transform="translate(-127.641 -320.838)"/><path d="M0,0H5.926V1.975H0Z" transform="matrix(0.5, -0.866, 0.866, 0.5, 59.397, 20.707)"/><path d="M0,0H1.975V1.975H0Z" transform="matrix(0.5, -0.866, 0.866, 0.5, 63.348, 13.864)"/><path d="M0,0H1.975V1.975H0Z" transform="matrix(0.5, -0.866, 0.866, 0.5, 64.335, 20.707)"/><path d="M0,0H5.926V1.975H0Z" transform="matrix(0.5, -0.866, 0.866, 0.5, 66.311, 17.285)"/><path d="M183.251,309.5h1.975v1.975h-1.975Z" transform="translate(-127.641 -268.743)"/><path d="M103.751,174.5h1.975v1.975h-1.975Z" transform="translate(-58.61 -151.523)"/><path d="M393.249,67.5h1.975v1.975h-1.975Z" transform="translate(-309.983 -58.61)"/></g></svg>