<svg xmlns="http://www.w3.org/2000/svg" width="67.426" height="67.431" viewBox="0 0 67.426 67.431"><g transform="translate(-16.038 85)"><path d="M139.7,57.175V50.84a10.126,10.126,0,0,0-10.115-10.115h-3.372V35.759a5.626,5.626,0,0,0,3.372-5.149V25.588a5.631,5.631,0,0,0-4.935-5.577l-35.4-4a1.124,1.124,0,0,0-1.231,1.324l3.372,17.982a1.124,1.124,0,0,0,1.1.917h13.7l1.962,9.153a4.491,4.491,0,0,0-1.775,7.7,4.486,4.486,0,0,0,0,6.743,4.491,4.491,0,0,0,1.483,7.614,4.493,4.493,0,0,0,3.733,7h9.217a11.258,11.258,0,0,0,11.012,8.991,1.124,1.124,0,1,0,0-2.248,9.007,9.007,0,0,1-8.706-6.743H130.2l7.531,8.607a1.124,1.124,0,0,0,.846.384h5.619a1.124,1.124,0,0,0,1.124-1.124V64.326a1.124,1.124,0,0,0-.261-.72ZM93.429,33.982,90.51,18.412,96,19.033l2.99,14.949Zm7.855,0L98.348,19.3l26.034,2.944a3.377,3.377,0,0,1,2.953,3.346V30.61a3.375,3.375,0,0,1-3.372,3.372Zm8.07,13.486H111.6a2.248,2.248,0,1,1,0,4.5h-2.248a2.248,2.248,0,0,1,0-4.5Zm4.5,24.725H111.6a2.248,2.248,0,0,1,0-4.5h2.248a2.248,2.248,0,0,1,0,4.5Zm1.124-6.743h-5.619a2.248,2.248,0,0,1,0-4.5h5.619a2.248,2.248,0,1,1,0,4.5Zm1.124-6.743h-6.743a2.248,2.248,0,0,1,0-4.5H116.1a2.248,2.248,0,1,1,0,4.5Zm4.5,13.486h-2.852a4.479,4.479,0,0,0,0-4.5h2.852Zm0-6.743h-1.728a4.481,4.481,0,0,0-.452-5.139,4.494,4.494,0,0,0-2.316-8.347h-.6A4.492,4.492,0,0,0,111.6,45.22h-1.179L108.5,36.23h15.467v4.5a5.619,5.619,0,0,0-1.127,11.125,19.526,19.526,0,0,0,1.127,6.162v4.067A3.375,3.375,0,0,1,120.593,65.45ZM143.07,81.184h-3.985l-7.531-8.607a1.124,1.124,0,0,0-.846-.384H122.84V67.227a5.626,5.626,0,0,0,3.372-5.149v-.372a8.086,8.086,0,0,0,1.669,1.336h0a1.123,1.123,0,0,0,1.155-1.925h0a7.2,7.2,0,0,1-2.826-3.531h0a16.956,16.956,0,0,1-1.118-5.619h3.367a1.124,1.124,0,0,0,0-2.248h-4.5a3.372,3.372,0,0,1,0-6.743h5.619a7.876,7.876,0,0,1,7.867,7.867v6.743a1.124,1.124,0,0,0,.261.72l5.359,6.431Z" transform="translate(-61.853 -101)"/><path d="M51.565,62.957a1.124,1.124,0,0,0-1.589,0,6.743,6.743,0,0,0,0,9.536A1.124,1.124,0,0,0,51.565,70.9a4.5,4.5,0,0,1,0-6.357A1.124,1.124,0,0,0,51.565,62.957Z" transform="translate(-27.472 -142.319)"/><path d="M19.325,40.329a11.251,11.251,0,0,0,0,15.894,1.124,1.124,0,1,0,1.589-1.589,9,9,0,0,1,0-12.715,1.124,1.124,0,1,0-1.589-1.589Z" transform="translate(0 -122.87)"/></g></svg>