<svg xmlns="http://www.w3.org/2000/svg" width="36.977" height="33.498" viewBox="0 0 36.977 33.498"><defs><style>.a{fill:#5e5e5e;}</style></defs><g transform="translate(0 -24.089)"><g transform="translate(0 24.089)"><path class="a" d="M91.048,161.115a.542.542,0,0,0-.542-.542H75.422a.542.542,0,0,0,0,1.083H90.506A.542.542,0,0,0,91.048,161.115Z" transform="translate(-69.472 -150.716)"/><path class="a" d="M87.954,229.5H75.422a.542.542,0,1,0,0,1.083H87.954a.542.542,0,0,0,0-1.083Z" transform="translate(-69.472 -214.661)"/><path class="a" d="M87.954,298.419H75.422a.542.542,0,1,0,0,1.083H87.954a.542.542,0,0,0,0-1.083Z" transform="translate(-69.472 -278.607)"/><path class="a" d="M304.394,37.867a7.667,7.667,0,0,1-2.866-5.994v-.642a4.727,4.727,0,0,0-2.482-4.156V26.33a2.241,2.241,0,0,0-4.483,0v.744a4.727,4.727,0,0,0-2.482,4.156v.642a7.666,7.666,0,0,1-2.866,5.994A1.254,1.254,0,0,0,290,40.1h3.463a3.518,3.518,0,0,0,6.687,0h3.463a1.254,1.254,0,0,0,.783-2.234ZM295.647,26.33a1.158,1.158,0,1,1,2.316,0v.322a4.724,4.724,0,0,0-2.316,0ZM296.8,41.443a2.435,2.435,0,0,1-2.175-1.341h4.351A2.435,2.435,0,0,1,296.8,41.443Zm6.806-2.425H290a.171.171,0,0,1-.1-.307,8.745,8.745,0,0,0,3.27-6.838v-.642a3.64,3.64,0,0,1,7.28,0v.642a8.745,8.745,0,0,0,3.27,6.838A.171.171,0,0,1,303.611,39.018Z" transform="translate(-267.889 -24.089)"/><path class="a" d="M32.181,89.747a.542.542,0,0,0-.542.542v4.635a3.255,3.255,0,0,1-3.251,3.251H11.962a1.764,1.764,0,0,0-1.219.487l-5.862,5.565.863-4.794a1.068,1.068,0,0,0-1.051-1.257H4.334a3.255,3.255,0,0,1-3.251-3.251V80.12a3.254,3.254,0,0,1,3.251-3.251H23.169a.542.542,0,0,0,0-1.083H4.334A4.339,4.339,0,0,0,0,80.12v14.8a4.339,4.339,0,0,0,4.334,4.334h.341l-.931,5.171a.952.952,0,0,0,1.592.859l6.153-5.841a.685.685,0,0,1,.473-.189H28.389a4.339,4.339,0,0,0,4.334-4.334V90.289a.542.542,0,0,0-.542-.542Z" transform="translate(0 -72.052)"/></g></g></svg>