<svg xmlns="http://www.w3.org/2000/svg" width="32.549" height="32.549" viewBox="0 0 32.549 32.549"><defs><style>.a{fill:#5e5e5e;}</style></defs><g transform="translate(4.2 3.15)"><path class="a" d="M67.15,48H64v6.825h1.05V52.2h2.1a2.1,2.1,0,1,0,0-4.2Zm0,3.15h-2.1v-2.1h2.1a1.05,1.05,0,1,1,0,2.1Z" transform="translate(-64 -48)"/></g><path class="a" d="M32.549,29.4V15.75H21.832l-5.285,5.285-4.379.73a2.617,2.617,0,0,0-2.193,2.589V29.4h6.342a3.663,3.663,0,0,0,1.066,2.1H8.925V21.524H7.875V12.392a6.3,6.3,0,1,0-3.15,0v9.132H3.675V31.5H2.1v1.05H30.449V31.5H22.516a3.67,3.67,0,0,0,1.066-2.1ZM1.05,6.3A5.25,5.25,0,1,1,6.3,11.55,5.256,5.256,0,0,1,1.05,6.3Zm5.775,6.273v8.952H5.775V12.573c.174.015.348.027.525.027S6.651,12.588,6.825,12.573ZM7.875,31.5H4.725V24.674h3.15Zm0-7.875H4.725v-1.05h3.15Zm8.442,4.725H11.025V27.3h5.609A3.642,3.642,0,0,0,16.317,28.349Zm3.633,3.15a2.625,2.625,0,1,1,2.625-2.625A2.628,2.628,0,0,1,19.949,31.5Zm2.625-5.25v.058a3.663,3.663,0,0,0-5.25,0v-.058h-6.3v-1.9A1.57,1.57,0,0,1,12.341,22.8l4.711-.785L22.267,16.8H31.5v9.45H26.774V27.3H31.5v1.05H23.582a3.642,3.642,0,0,0-.318-1.05h2.46v-1.05Z"/><g transform="translate(18.682 17.85)"><path class="a" d="M288.888,272l-4.2,4.2h11.767V272Zm6.517,3.15h-8.182l2.1-2.1h6.082Z" transform="translate(-284.688 -272)"/></g><g transform="translate(18.374 27.299)"><path class="a" d="M281.575,416a1.575,1.575,0,1,0,1.575,1.575A1.577,1.577,0,0,0,281.575,416Zm0,2.1a.525.525,0,1,1,.525-.525A.526.526,0,0,1,281.575,418.1Z" transform="translate(-280 -416)"/></g><g transform="translate(26.825 23.01)"><g transform="translate(0 0)"><rect class="a" width="4" height="2" transform="translate(-0.276 -0.461)"/></g></g><g transform="translate(0.115 31.404)"><g transform="translate(0 0)"><rect class="a" height="1" transform="translate(0.434 0.145)"/></g></g><g transform="translate(31.404 31.404)"><g transform="translate(0 0)"><rect class="a" width="1" height="1" transform="translate(0.145 0.145)"/></g></g></svg>