<svg xmlns="http://www.w3.org/2000/svg" width="20.658" height="32.341" viewBox="0 0 20.658 32.341"><defs><style>.a{fill:#5e5e5e;}</style></defs><g transform="translate(-86.482 0)"><g transform="translate(93.183 19.142)"><g transform="translate(0)"><path class="a" d="M192.278,283.386H186.36a.675.675,0,1,0,0,1.351h5.917a.675.675,0,1,0,0-1.351Z" transform="translate(-185.685 -283.386)"/></g></g><g transform="translate(90.366 21.911)"><path class="a" d="M156.211,324.386H144.66a.675.675,0,0,0,0,1.351h11.551a.675.675,0,1,0,0-1.351Z" transform="translate(-143.985 -324.386)"/></g><g transform="translate(90.366 24.748)"><path class="a" d="M156.211,366.386H144.66a.675.675,0,0,0,0,1.351h11.551a.675.675,0,1,0,0-1.351Z" transform="translate(-143.985 -366.386)"/></g><g transform="translate(94.128 6.713)"><path class="a" d="M204.388,101.142h-.567a2.913,2.913,0,0,0-.149-.405h.709a.675.675,0,1,0,0-1.351h-4.019a.675.675,0,1,0,0,1.351h1.148a1.162,1.162,0,0,1,.8.405h-1.959a.675.675,0,1,0,0,1.351h1.952c-.014,0-.034.061-.061.081a1.061,1.061,0,0,1-.743.324h-1.148a.66.66,0,0,0-.466,1.142l2.884,2.715a.679.679,0,1,0,.932-.986l-1.7-1.6a2.443,2.443,0,0,0,1.2-.648,2.278,2.278,0,0,0,.608-1.027h.567a.675.675,0,0,0,0-1.351Z" transform="translate(-199.679 -99.386)"/></g><g transform="translate(86.482 0)"><path class="a" d="M106.733.046A.66.66,0,0,0,106,.222L104.558,1.8,103.119.229a.673.673,0,0,0-.952-.041l-.041.041L100.688,1.8,99.249.222A.673.673,0,0,0,98.3.181l-.041.041L96.817,1.789,95.378.222a.673.673,0,0,0-.952-.041l-.041.041L92.947,1.789,91.508.222a.673.673,0,0,0-.952-.041l-.041.041L89.076,1.789,87.631.222a.657.657,0,0,0-1.148.453V31.665a.663.663,0,0,0,.648.675.635.635,0,0,0,.507-.223l1.439-1.574,1.439,1.567a.673.673,0,0,0,.952.041l.041-.041,1.439-1.567,1.439,1.567a.673.673,0,0,0,.952.041l.041-.041,1.439-1.567,1.439,1.567a.673.673,0,0,0,.952.041l.041-.041,1.439-1.567,1.439,1.567a.673.673,0,0,0,.952.041l.041-.041,1.439-1.567,1.432,1.567a.669.669,0,0,0,.5.216.539.539,0,0,0,.23-.047.66.66,0,0,0,.419-.628V.661A.624.624,0,0,0,106.733.046Zm-2.168,28.823a.676.676,0,0,0-.5.223l-1.439,1.574L101.187,29.1a.673.673,0,0,0-.952-.041l-.041.041-1.439,1.567L97.317,29.1a.673.673,0,0,0-.952-.041l-.041.041-1.439,1.567L93.446,29.1a.673.673,0,0,0-.952-.041l-.041.041-1.439,1.567-1.439-1.574a.676.676,0,0,0-.5-.223.637.637,0,0,0-.486.223l-.757.838V2.41l.75.831a.637.637,0,0,0,.486.223.676.676,0,0,0,.5-.223l1.439-1.574,1.439,1.567a.673.673,0,0,0,.952.041l.041-.041,1.439-1.567,1.439,1.567a.673.673,0,0,0,.952.041l.041-.041,1.439-1.567,1.439,1.567a.673.673,0,0,0,.952.041l.041-.041,1.439-1.567,1.439,1.574a.676.676,0,0,0,.5.223.637.637,0,0,0,.486-.223L105.8,2.4V29.923l-.75-.831A.637.637,0,0,0,104.565,28.869Z" transform="translate(-86.482 0)"/></g></g></svg>