<svg xmlns="http://www.w3.org/2000/svg" width="23.332" height="30.581" viewBox="0 0 23.332 30.581"><defs><style>.a{fill:#5e5e5e;}</style></defs><g transform="translate(-60.68)"><g transform="translate(60.68 0)"><path class="a" d="M84.012,25.311c-.068-4.156-4.317-5.384-7.42-6.281-.362-.1-.71-.205-1.036-.306V17.01A6.11,6.11,0,0,0,77.194,15.5h1.89a1.679,1.679,0,0,0,1.677-1.677V11.8a2.154,2.154,0,0,0,.174-.851v-.632a2.151,2.151,0,0,0-.174-.85V8.416a8.415,8.415,0,1,0-16.829,0V9.433c0,.008,0,.016,0,.024a2.151,2.151,0,0,0-.177.857v.632a2.167,2.167,0,0,0,2.163,2.165h.494a6.079,6.079,0,0,0,2.723,3.9v1.715c-.326.1-.674.2-1.036.306-3.1.9-7.352,2.125-7.42,6.281,0,0,0,.007,0,.01v4.663a.6.6,0,0,0,.6.6h1.771a.6.6,0,0,0,0-1.195H61.874v-4.06a3.914,3.914,0,0,1,2.1-3.421,13.688,13.688,0,0,1,3.178-1.346l1.443,2.812a.6.6,0,0,0,.865.222l.643-.434.552,2.076-.947,4.151H68.411a.6.6,0,1,0,0,1.195h15a.6.6,0,0,0,.6-.6V25.321S84.012,25.314,84.012,25.311ZM76.26,20.178l.119.034-1.033,2.014-1.932-1.3,1.637-1.1c.38.12.785.237,1.209.359Zm-3.914,1.466,1.2.808-.579,2.176H71.727l-.579-2.175Zm0-1.441-2.015-1.359V17.586a6.053,6.053,0,0,0,4.03,0v1.257ZM77.212,8.525l-.024-.016c-1.226-.78-2.284-1.454-3.943-.979l-.046.015c-.352.132-.671.255-.981.374A10.709,10.709,0,0,1,67.48,8.992V8.514a4.866,4.866,0,1,1,9.732,0v.011Zm2.355,5.3a.483.483,0,0,1-.483.483h-1.19a6.011,6.011,0,0,0,.385-1.2h.494a2.149,2.149,0,0,0,.794-.152v.868Zm.174-2.882a.971.971,0,0,1-.969.97h-.367c0-.015,0-2.571,0-2.571h.366a.97.97,0,0,1,.969.969v.632Zm-13.822.971a.971.971,0,0,1-.969-.97v-.632a.97.97,0,0,1,.969-.969h.366s0,2.556,0,2.571ZM66.3,8.15h-.377a2.151,2.151,0,0,0-.791.151,7.22,7.22,0,0,1,14.437,0,2.15,2.15,0,0,0-.793-.151H78.4a6.06,6.06,0,0,0-12.1,0Zm1.219,4.3v0a4.9,4.9,0,0,1-.036-.579V10.187a11.909,11.909,0,0,0,5.168-1.153c.3-.116.61-.235.948-.362,1.128-.315,1.777.1,2.95.845.2.13.427.272.666.417v1.937a4.835,4.835,0,0,1-.658,2.438H72.346a.6.6,0,1,0,0,1.195h3.233a4.861,4.861,0,0,1-8.063-3.052Zm1.831,9.774-1.034-2.014.119-.034c.424-.122.828-.24,1.209-.359l1.638,1.1Zm1.585,7.16.813-3.565h1.2l.814,3.565Zm11.886,0h-7.83l-.948-4.151.553-2.077.645.435a.6.6,0,0,0,.865-.223l1.441-2.811a13.689,13.689,0,0,1,3.177,1.346,3.914,3.914,0,0,1,2.1,3.421v4.06Z" transform="translate(-60.68 0)"/><path class="a" d="M335.038,441.995h-3.01a.6.6,0,1,0,0,1.195h3.01a.6.6,0,0,0,0-1.195Z" transform="translate(-315.26 -415.596)"/><path class="a" d="M135.824,492a.6.6,0,0,0,0,1.195h0a.6.6,0,0,0,0-1.195Z" transform="translate(-130.774 -462.612)"/></g></g></svg>