<svg xmlns="http://www.w3.org/2000/svg" width="32.496" height="29.029" viewBox="0 0 32.496 29.029"><defs><style>.a{fill:#5e5e5e;}</style></defs><g transform="translate(-0.001 -25.494)"><g transform="translate(0.001 25.494)"><path class="a" d="M26.346,39.638a8.109,8.109,0,0,0-10.091-12.66,8.112,8.112,0,0,0-10.1,12.66A11.526,11.526,0,0,0,0,49.88v3.482a1.161,1.161,0,0,0,1.161,1.161H31.336A1.161,1.161,0,0,0,32.5,53.362V49.88A11.526,11.526,0,0,0,26.346,39.638ZM20.891,27.829a5.795,5.795,0,0,1,2.385,11.079c-.089.041-.179.078-.269.116a5.689,5.689,0,0,1-.883.275c-.058.013-.116.02-.175.031a5.805,5.805,0,0,1-1.021.1c-.154,0-.31-.012-.464-.026a.877.877,0,0,1-.174-.012,5.863,5.863,0,0,1-1.9-.559c-.022-.01-.048-.009-.07-.019-.116-.056-.232-.1-.335-.167.009-.012.015-.024.024-.036a8.141,8.141,0,0,0,1.243-2.264l.036-.1A8.186,8.186,0,0,0,19.6,35.06c.01-.059.019-.116.028-.18a7.409,7.409,0,0,0,0-2.493c-.009-.06-.017-.116-.028-.18a8.188,8.188,0,0,0-.308-1.194l-.036-.1a8.143,8.143,0,0,0-1.243-2.264c-.009-.012-.015-.024-.024-.036A5.766,5.766,0,0,1,20.891,27.829ZM5.8,33.632A5.788,5.788,0,0,1,15.6,29.44c.067.065.133.13.2.2a5.967,5.967,0,0,1,.55.667c.051.072.1.149.145.223a5.709,5.709,0,0,1,.426.783c.029.066.051.133.077.2a5.673,5.673,0,0,1,.288.928c.008.035.01.07.017.106a5.463,5.463,0,0,1,0,2.184c-.007.036-.009.071-.017.106a5.659,5.659,0,0,1-.288.928c-.025.066-.048.133-.077.2a5.729,5.729,0,0,1-.426.782c-.048.074-.094.151-.145.223a5.954,5.954,0,0,1-.55.667c-.065.067-.131.132-.2.2a5.793,5.793,0,0,1-1.6,1.082c-.094.043-.189.082-.285.116a5.837,5.837,0,0,1-.861.267c-.073.016-.149.026-.223.038a5.758,5.758,0,0,1-.955.1h-.128a5.75,5.75,0,0,1-.955-.1c-.074-.013-.15-.022-.223-.038A5.835,5.835,0,0,1,9.5,39.03l-.285-.116A5.8,5.8,0,0,1,5.8,33.632ZM20.891,52.2H2.322V49.88a9.226,9.226,0,0,1,6.172-8.746,8.1,8.1,0,0,0,6.225,0,9.326,9.326,0,0,1,1.13.5c.241.124.464.266.7.408.151.094.3.186.449.289.224.159.435.332.643.509.133.116.266.232.391.348.191.181.371.373.544.569.124.142.245.285.36.434.152.195.3.395.432.6.116.174.219.355.321.536.116.2.223.4.32.607s.183.435.267.657c.073.193.151.384.211.58.081.269.138.548.195.826.035.165.08.326.106.493a9.6,9.6,0,0,1,.106,1.388V52.2Zm9.285,0H23.212V49.88c0-.363-.021-.723-.053-1.079-.009-.1-.026-.208-.037-.312-.031-.257-.067-.511-.116-.763q-.031-.161-.066-.324-.084-.388-.194-.768c-.024-.084-.046-.168-.072-.251a11.5,11.5,0,0,0-1.4-2.933l-.045-.066q-.3-.445-.639-.86l-.008-.01a10.534,10.534,0,0,0-.749-.832h.048a8.214,8.214,0,0,0,.988.07h.064a8.208,8.208,0,0,0,.915-.059c.1-.012.189-.029.284-.044q.37-.057.731-.147c.068-.017.138-.034.208-.053A7.9,7.9,0,0,0,24,41.132a9.227,9.227,0,0,1,6.177,8.748V52.2Z" transform="translate(-0.001 -25.494)"/></g></g></svg>