<svg xmlns="http://www.w3.org/2000/svg" width="32.997" height="31.426" viewBox="0 0 32.997 31.426"><defs><style>.a{fill:#fff;}</style></defs><g transform="translate(-5.262 -25.523)"><g transform="translate(5.262 25.523)"><path class="a" d="M38.259,28.927a.786.786,0,0,0-.786-.786h-3.5a3.4,3.4,0,0,0-6.624,0H26.12a3.4,3.4,0,0,0-6.624,0H18.263a3.4,3.4,0,0,0-6.624,0h-1.4a.791.791,0,0,0-.763.6L5.284,46.026A.786.786,0,0,0,6.047,47h3.4v2.881a.786.786,0,0,0,.786.786H24.144a7.071,7.071,0,0,0,14.1-.613c0-.083.019-21.122.019-21.122ZM36.687,45.46A7.136,7.136,0,0,0,35.64,44.4v-5a.786.786,0,1,0-1.571,0v4.026a7.012,7.012,0,0,0-1.792-.535l3.2-13.181h1.215ZM10.855,29.713h.784a3.41,3.41,0,0,0,3.312,2.619.786.786,0,0,0,0-1.571A1.835,1.835,0,0,1,13.3,29.713h6.2a3.41,3.41,0,0,0,3.312,2.619.786.786,0,0,0,0-1.571,1.835,1.835,0,0,1-1.656-1.048h6.2a3.41,3.41,0,0,0,3.312,2.619.786.786,0,1,0,0-1.571,1.835,1.835,0,0,1-1.656-1.048h4.847l-.889,3.666h-23Zm19.808-2.619a1.835,1.835,0,0,1,1.656,1.048H29.008a1.835,1.835,0,0,1,1.656-1.048Zm-7.856,0a1.835,1.835,0,0,1,1.656,1.048H21.152a1.835,1.835,0,0,1,1.656-1.048Zm-7.856,0a1.835,1.835,0,0,1,1.656,1.048H13.3a1.835,1.835,0,0,1,1.656-1.048ZM9.585,34.95h23l-1.909,7.874a7.063,7.063,0,0,0-4.994,2.6H7.046ZM11.023,47H24.714a7.014,7.014,0,0,0-.57,2.1H11.023ZM31.956,55.32v-.729a.786.786,0,0,0-1.571,0v.729a5.511,5.511,0,0,1-4.657-4.657h.729a.786.786,0,1,0,0-1.571h-.729a5.511,5.511,0,0,1,4.657-4.657v.729a.786.786,0,0,0,1.571,0v-.729a5.511,5.511,0,0,1,4.657,4.657h-.729a.786.786,0,0,0,0,1.571h.729a5.511,5.511,0,0,1-4.657,4.657Z" transform="translate(-5.262 -25.523)"/><path class="a" d="M250.051,191.092h2.1a.786.786,0,0,0,0-1.571h-2.1a.786.786,0,0,0,0,1.571Z" transform="translate(-233.29 -178.784)"/><path class="a" d="M170.051,191.092h2.1a.786.786,0,0,0,0-1.571h-2.1a.786.786,0,0,0,0,1.571Z" transform="translate(-158.528 -178.784)"/><path class="a" d="M90.051,191.092h2.1a.786.786,0,1,0,0-1.571h-2.1a.786.786,0,1,0,0,1.571Z" transform="translate(-83.765 -178.784)"/><path class="a" d="M330.051,191.092h2.1a.786.786,0,1,0,0-1.571h-2.1a.786.786,0,1,0,0,1.571Z" transform="translate(-308.053 -178.784)"/><path class="a" d="M234.051,239.092h2.1a.786.786,0,1,0,0-1.571h-2.1a.786.786,0,1,0,0,1.571Z" transform="translate(-218.338 -223.642)"/><path class="a" d="M154.051,239.092h2.1a.786.786,0,1,0,0-1.571h-2.1a.786.786,0,1,0,0,1.571Z" transform="translate(-143.575 -223.642)"/><path class="a" d="M74.051,239.092h2.1a.786.786,0,1,0,0-1.571h-2.1a.786.786,0,1,0,0,1.571Z" transform="translate(-68.813 -223.642)"/><path class="a" d="M314.051,239.092h2.1a.786.786,0,1,0,0-1.571h-2.1a.786.786,0,1,0,0,1.571Z" transform="translate(-293.1 -223.642)"/><path class="a" d="M226.051,287.092h2.1a.786.786,0,1,0,0-1.571h-2.1a.786.786,0,0,0,0,1.571Z" transform="translate(-210.862 -268.499)"/><path class="a" d="M146.051,287.092h2.1a.786.786,0,0,0,0-1.571h-2.1a.786.786,0,0,0,0,1.571Z" transform="translate(-136.099 -268.499)"/><path class="a" d="M68.931,286.307a.786.786,0,0,0-.786-.786h-2.1a.786.786,0,0,0,0,1.571h2.1A.786.786,0,0,0,68.931,286.307Z" transform="translate(-61.337 -268.499)"/><path class="a" d="M361.418,353.752l-1.695,1.695-1.589-.794a.786.786,0,0,0-.7,1.405l2.1,1.047a.786.786,0,0,0,.907-.147l2.1-2.1a.786.786,0,0,0-1.111-1.111Z" transform="translate(-333.97 -332.048)"/></g></g></svg>